<?xml version="1.0" encoding="utf-8"?>
<!-- Generator: Adobe Illustrator 26.0.0, SVG Export Plug-In . SVG Version: 6.00 Build 0)  -->
<svg version="1.1" id="Layer_1" xmlns="http://www.w3.org/2000/svg" xmlns:xlink="http://www.w3.org/1999/xlink" x="0px" y="0px"
	 viewBox="0 0 368 298" style="enable-background:new 0 0 368 298;" xml:space="preserve">
<style type="text/css">
	.st0{fill:#139DFF;}
	.st1{stroke:#000000;strokeWidth:1.2;strokeLinecap:round;strokeLinejoin:round;}
	.st2{fill:#FFFFFF;stroke:#000000;strokeWidth:1.2;strokeLinecap:round;strokeLinejoin:round;}
	.st3{fill:#0A69A3;}
	.st4{fill:#FFFFFF;}
	.st5{fill:#0A69A3;stroke:#000000;strokeWidth:1.2;strokeLinecap:round;strokeLinejoin:round;}
	.st6{fill:none;stroke:#FFFFFF;strokeWidth:1.2;strokeLinecap:round;strokeLinejoin:round;}
	.st7{fill:none;stroke:#FFFFFF;strokeWidth:2;strokeLinecap:round;strokeLinejoin:round;}
	.st8{fill:none;stroke:#000000;strokeWidth:1.2;strokeLinecap:round;strokeLinejoin:round;}
	.st9{fill:#139DFF;stroke:#000000;strokeWidth:1.2;strokeLinecap:round;strokeLinejoin:round;}
	.st10{fill:none;stroke:#139DFF;strokeWidth:1.2;strokeLinecap:round;strokeLinejoin:round;}
	.st11{fill:none;stroke:#139DFF;stroke-miterlimit:10;}
</style>
<path className="st0" d="M181.7,11.2l-63.1,66.5l-82.8,39.5c-0.4,0.2-0.8,0.5-1,0.8c-0.3,0.3-0.5,0.7-0.7,1.1c-0.1,0.4-0.2,0.9-0.1,1.3
	c0,0.4,0.2,0.9,0.4,1.3l43.8,80.6l12,90.9c0.1,0.4,0.2,0.9,0.4,1.2c0.2,0.4,0.5,0.7,0.9,1s0.8,0.4,1.2,0.5c0.4,0.1,0.9,0.1,1.3,0
	l90.2-16.7l90.2,16.7c0.4,0.1,0.9,0.1,1.3,0s0.8-0.3,1.2-0.5c0.4-0.3,0.7-0.6,0.9-1c0.2-0.4,0.4-0.8,0.4-1.2l12-90.9l43.8-80.6
	c0.2-0.4,0.3-0.8,0.4-1.3c0-0.4,0-0.9-0.1-1.3s-0.4-0.8-0.6-1.1c-0.3-0.3-0.6-0.6-1-0.8l-82.8-39.5l-63.1-66.5
	c-0.3-0.3-0.7-0.6-1.1-0.8c-0.4-0.2-0.8-0.3-1.3-0.3c-0.4,0-0.9,0.1-1.3,0.3C182.4,10.6,182.1,10.8,181.7,11.2"/>
<g>
	<path className="st1" d="M274.6,223.5l20.1,9.9l-20.1,82.8V223.5z"/>
	<path className="st1" d="M188.5,175.8l36.4,26.4v37.9h-36.4V175.8z"/>
	<path className="st2" d="M77.6,175.7h111V299L80.1,316.2L77.6,175.7z"/>
	<path className="st2" d="M188.5,223.5h86.1v92.7L188.5,299V223.5z"/>
	<path className="st3" d="M88.5,205l0.8,30.8c0.2,5.2,4.1,9,9.3,9l67.8-0.9c1.3,0,2.5-0.3,3.7-0.8s2.2-1.2,3.1-2.1
		c0.9-0.9,1.6-2,2.1-3.2s0.7-2.4,0.7-3.7l-0.5-31.2c0-1.3-0.3-2.5-0.8-3.7s-1.2-2.2-2.2-3.1c-0.9-0.9-2-1.6-3.2-2
		c-1.2-0.5-2.5-0.7-3.7-0.7L97.9,195c-1.3,0-2.6,0.3-3.7,0.8c-1.2,0.5-2.2,1.3-3.1,2.2s-1.6,2.1-2,3.3
		C88.6,202.4,88.4,203.7,88.5,205L88.5,205z"/>
	<path className="st4" d="M122.6,205.7l0.8,26.5c0,0.3,0.1,0.6,0.3,0.8c0.2,0.3,0.4,0.5,0.7,0.6c0.3,0.1,0.6,0.2,0.9,0.1
		c0.3,0,0.6-0.2,0.8-0.3l20.8-16c0.2-0.2,0.4-0.4,0.5-0.7s0.1-0.5,0.1-0.8s-0.1-0.5-0.3-0.8c-0.2-0.2-0.4-0.4-0.6-0.5L125,204
		c-0.3-0.1-0.5-0.2-0.8-0.1c-0.3,0-0.5,0.1-0.8,0.3c-0.2,0.2-0.4,0.4-0.5,0.6C122.7,205.1,122.6,205.4,122.6,205.7z"/>
	<path className="st3" d="M197.9,242.4v28.7c0,1.2,0.5,2.4,1.3,3.3c0.9,0.9,2,1.4,3.3,1.4l57.5,1c0.6,0,1.3-0.1,1.8-0.3
		c0.6-0.2,1.1-0.6,1.6-1c0.4-0.4,0.8-1,1-1.6s0.3-1.2,0.3-1.8l-0.6-29.2c-0.1-2.5-2.1-5.7-4.6-5.8l-57,0.7c-0.6,0-1.2,0.1-1.8,0.3
		s-1.1,0.6-1.5,1s-0.8,1-1,1.5C198,241.2,197.9,241.8,197.9,242.4L197.9,242.4z"/>
	<path className="st5" d="M258.2,235.6L247.9,261l10.7-5.8l8.3,10.2l1.2-25.9L258.2,235.6z"/>
	<path className="st5" d="M266.1,239.8l6.5,25.2l6.1-9.5l11.2,2.3l-13-22.4L266.1,239.8z"/>
	<path className="st5" d="M267.1,247.8c7.7,0,13.9-6.2,13.9-13.9s-6.2-13.9-13.9-13.9c-7.7,0-13.9,6.2-13.9,13.9
		S259.5,247.8,267.1,247.8z"/>
	<path className="st6" d="M267.1,244.4c5.8,0,10.4-4.7,10.4-10.4c0-5.8-4.7-10.4-10.4-10.4c-5.8,0-10.4,4.7-10.4,10.4
		S261.4,244.4,267.1,244.4z"/>
	<path className="st5" d="M170.4,187.9L157.2,222l13.3-7.6l9.9,13.8l2.1-34.8L170.4,187.9z"/>
	<path className="st5" d="M179.7,195l6.2,33.3l8.8-12l13.6,3.2L193,189.3L179.7,195z"/>
	<path className="st5" d="M181,205c9.4,0,17-7.6,17-17s-7.6-17-17-17s-17,7.6-17,17S171.6,205,181,205z"/>
	<path className="st6" d="M181,200.8c7.1,0,12.8-5.7,12.8-12.8s-5.7-12.8-12.8-12.8s-12.8,5.7-12.8,12.8
		C168.2,195,173.9,200.8,181,200.8z"/>
	<path className="st4" d="M183,180.9V195h-3.4v-10.9h-0.1l-3.1,1.9v-2.9l3.5-2.2L183,180.9z"/>
	<path className="st4" d="M263.5,238.6v-1.8l3.7-3.2c0.3-0.2,0.5-0.5,0.7-0.7s0.3-0.4,0.4-0.6c0.1-0.2,0.2-0.5,0.2-0.7
		c0-0.3-0.1-0.5-0.2-0.7s-0.3-0.4-0.5-0.5s-0.5-0.2-0.7-0.2c-0.3,0-0.5,0.1-0.7,0.2c-0.2,0.1-0.4,0.3-0.5,0.5s-0.2,0.5-0.2,0.8h-2.3
		c0-0.6,0.1-1.2,0.5-1.8c0.3-0.5,0.8-0.9,1.3-1.2c0.6-0.3,1.3-0.4,1.9-0.4c0.7,0,1.4,0.1,2,0.4c0.5,0.2,1,0.6,1.3,1.1s0.5,1,0.5,1.6
		c0,0.4-0.1,0.8-0.2,1.1c-0.2,0.5-0.5,0.9-0.8,1.2c-0.5,0.6-1.1,1.1-1.7,1.6l-1.2,1.1v0.1h4.1v1.9L263.5,238.6z"/>
	<path className="st4" d="M223.4,247v20.2c0,0.2,0.1,0.5,0.2,0.7c0.1,0.2,0.3,0.4,0.5,0.5s0.4,0.1,0.7,0.1c0.2,0,0.4-0.1,0.6-0.2
		l16.2-11.7c0.2-0.1,0.3-0.3,0.4-0.5c0.1-0.2,0.1-0.4,0.1-0.6c0-0.2-0.1-0.4-0.2-0.6c-0.1-0.2-0.3-0.3-0.5-0.4l-16.2-8.6
		c-0.2-0.1-0.4-0.1-0.6-0.1c-0.2,0-0.4,0.1-0.6,0.2c-0.2,0.1-0.3,0.3-0.4,0.5C223.5,246.6,223.4,246.8,223.4,247z"/>
	<path d="M168.4,200.5c0,0,3.9,4.4,8.2,5.8c4.4,1.4,4.9,1.4,4.9,1.4v-2.8c0,0-4.3,0.1-6.5-1s-6.4-3.7-6.4-3.7"/>
	<path d="M182.4,207.7c0,0,4.8,0.6,10-2.8c5.2-3.5,5.8-5.2,5.8-5.2l-2.4-3.4c0,0-1.3,3.2-6.3,5.8s-7.9,2.9-7.9,2.9L182.4,207.7z"/>
	<path d="M258.1,245.3c0,0,3.8,3.7,8.6,3.9c5.3,0.2,7.1-0.9,9.8-2.4c3.3-1.8,4.4-4.3,4.4-4.3l-1.7-1.8c0,0-6.5,6.7-11.7,6.9
		C264.2,247.7,261,246.9,258.1,245.3L258.1,245.3z"/>
</g>
<path className="st7" d="M181.7,11.2l-63.1,66.5l-82.8,39.5c-0.4,0.2-0.8,0.5-1,0.8c-0.3,0.3-0.5,0.7-0.7,1.1c-0.1,0.4-0.2,0.9-0.1,1.3
	c0,0.4,0.2,0.9,0.4,1.3l43.8,80.6l12,90.9c0.1,0.4,0.2,0.9,0.4,1.2c0.2,0.4,0.5,0.7,0.9,1s0.8,0.4,1.2,0.5c0.4,0.1,0.9,0.1,1.3,0
	l90.2-16.7l90.2,16.7c0.4,0.1,0.9,0.1,1.3,0s0.8-0.3,1.2-0.5c0.4-0.3,0.7-0.6,0.9-1c0.2-0.4,0.4-0.8,0.4-1.2l12-90.9l43.8-80.6
	c0.2-0.4,0.3-0.8,0.4-1.3c0-0.4,0-0.9-0.1-1.3s-0.4-0.8-0.6-1.1c-0.3-0.3-0.6-0.6-1-0.8l-82.8-39.5l-63.1-66.5
	c-0.3-0.3-0.7-0.6-1.1-0.8c-0.4-0.2-0.8-0.3-1.3-0.3c-0.4,0-0.9,0.1-1.3,0.3C182.4,10.6,182.1,10.8,181.7,11.2"/>
<path className="st1" d="M170.6,151.2c0,0-0.1,9.8-0.4,15.3c-0.4,7.7-1.5,9.3-1.5,9.3l-50.8-1l4.4-24.9L170.6,151.2z"/>
<path className="st0" d="M224.8,141.5c0,0-7.5,5.5-8.6,6.6s3,5,10.2,4.9c7.5-0.1,10.3-2.9,10.4-3.6c0.1-0.7-7.6-7.6-7.6-7.6
	C227.4,141.4,224.8,141.5,224.8,141.5z"/>
<path className="st4" d="M225.6,143.2l-7.2,8l-2.3-3.1l8.6-6.6L225.6,143.2z"/>
<path className="st8" d="M224.8,141.5c0,0-7.5,5.5-8.6,6.6s3,5,10.2,4.9c7.5-0.1,10.3-2.9,10.4-3.6c0.1-0.7-7.6-7.6-7.6-7.6
	C227.4,141.4,224.8,141.5,224.8,141.5z"/>
<path className="st9" d="M223.5,113.7c-1,1.2-0.5,5,0.9,6.5c1.5,1.5,0,22.7,0,22.7c0.2,0.4,0.6,0.6,1,0.8s0.8,0.3,1.2,0.3
	c1.9,0.1,2.4-1,2.4-1l1-22.6c0,0,0.5-0.7,1.6-2.8c0.7-1.5,0.3-4.3,0.3-4.3L223.5,113.7z"/>
<path className="st1" d="M103.4,97.6c0,0-1.8-1.4-1.3-4.7c0.8-5.5,10.3-20.3,10.3-20.3l4.3-2c0,0-5,18.8-8.2,22.3
	C105.2,96.4,103.4,97.6,103.4,97.6z"/>
<path className="st0" d="M188.5,122.9c0,0,3.9,5.7,8.8,7.9c9.4,4.2,19.3-3.3,24.1-7.2c4.8-3.8,10.4-7.6,10.9-6.1s-6,8.2-6.8,10.1
	c-0.7,1.8-0.5,2.1-0.5,3.9s-0.3,7.5-0.3,7.5s-9.8,6.5-18.7,9.6c-9,3.1-22,2.8-33.9-12.9"/>
<path className="st4" d="M195.7,129.9c0,0,4.7,6.5,17.2,1.1c12.5-5.4,18.6-13.4,18.6-13.4s-3.5,0.3-5.8,2.5c-3,3.8-13.2,10.4-16.6,10.9
	C203,133,197.1,131,195.7,129.9z"/>
<path className="st8" d="M188.5,122.9c0,0,3.9,5.7,8.8,7.9c9.4,4.2,19.3-3.3,24.1-7.2c4.8-3.8,10.4-7.6,10.9-6.1s-6,8.2-6.8,10.1
	c-0.7,1.8-0.5,2.1-0.5,3.9s-0.3,7.5-0.3,7.5s-9.8,6.5-18.7,9.6c-9,3.1-22,2.8-33.9-12.9"/>
<path className="st4" d="M130.6,111.8c-2.3,2.8-11.1,5.4,6.4,12.5c17.5,7.1,33.5,12.1,33.9,12.2c0.4,0.1,2.6-13.4,2.6-13.4l-8.9-11.3
	C164.6,111.8,130.6,111.8,130.6,111.8z"/>
<path d="M128.8,56.1c0,0-2.7,5,2.1,8.5s9.3,0,9.3,0s12.3,23.1,19,30.3s5.9,32.4,30.3,25.3c12.8-3.8,13.2-19.8,13.2-19.8
	s-5.5,6.4-13,4.6c-7.4-1.7-12.1-6.8-14.1-20.2c-2-13.3-1.7-25.2-13.4-32.2c-8.4-5-16-5.3-22.1,1c-2.6,2.7-3.9,5-7.6,4.7
	C129.4,58.2,128.8,56.1,128.8,56.1z"/>
<path className="st0" d="M116.6,70.6c-0.1,0.4-9-15.2,0-30.1s21.9-21,24.9-23.3c2.9-2.3,2.8-4.8-1.1-3.4c-3.8,1.4-7.5,3.4-8.2,4
	s-3.1-6.6-3.1-6.6s6-6.7,6.3-8.1s-0.9-1.9-5.8,1.2c-2,1.3-18.1,10.4-26.8,23.7C95.2,39.3,90.6,51.1,94,69.9
	c3.3,18.8,13.2,26.2,13.2,26.2s3.3-0.4,6.7-6.6C117.2,83.3,116.6,70.6,116.6,70.6z"/>
<path className="st4" d="M128.7,4.9c0,0-20.7,15.1-26.7,30c-4.1,10.2-8.7,21.9-1.3,43.3c5.6,16.4,14.4,19,14.4,19l-6.5,0.2
	c0,0-13.9-12.1-15.5-32.5s5.5-30.5,8.2-33.9c3.3-7.6,8.7-12,15.7-18S128.7,4.9,128.7,4.9z"/>
<path className="st8" d="M116.6,70.6c-0.1,0.4-9-15.2,0-30.1s21.9-21,24.9-23.3c2.9-2.3,2.8-4.8-1.1-3.4c-3.8,1.4-7.5,3.4-8.2,4
	s-3.1-6.6-3.1-6.6s6-6.7,6.3-8.1s-0.9-1.9-5.8,1.2c-2,1.3-18.1,10.4-26.8,23.7C95.2,39.3,90.6,51.1,94,69.9
	c3.3,18.8,13.2,26.2,13.2,26.2s3.3-0.4,6.7-6.6C117.2,83.3,116.6,70.6,116.6,70.6z"/>
<path className="st9" d="M130.6,11.7c-0.3-2.5-6.5-0.2-8.7,2.6s0.4,4.3,3.6,2.4C128.7,14.8,130.8,13.6,130.6,11.7z"/>
<path className="st9" d="M132.8,15.3c-0.3-2.5-5.2-1-7.3,1.8c-2.2,2.8,0,5.5,3.2,3.5C131.9,18.8,133,17.3,132.8,15.3z"/>
<path className="st0" d="M129.7,21.9c-0.4-3,0.6-8-1.7-8.4c-2.4-0.4-4.5,8-4.8,8.9"/>
<path className="st8" d="M129.7,21.9c-0.4-3,0.6-8-1.7-8.4c-2.4-0.4-4.5,8-4.8,8.9"/>
<path className="st4" d="M118.2,111.7c-4.2-3.5-14.9-14-14.9-14s3.8-1.6,7.4-8.6c3.6-7.1,5.8-18.4,5.8-18.4s7.6,11.9,19.9,15.3
	c12.2,3.4,17.2,0.7,28.8,8.7c13.8,9.5,20.6,24.8,23.2,28.4c0,0-3.3,0.4-9.7,5.4S172,136,172,136l-6.2-8.4"/>
<path className="st8" d="M118.2,111.7c-4.2-3.5-14.9-14-14.9-14s3.8-1.6,7.4-8.6c3.6-7.1,5.8-18.4,5.8-18.4s7.6,11.9,19.9,15.3
	c12.2,3.4,17.2,0.7,28.8,8.7c13.8,9.5,20.6,24.8,23.2,28.4c0,0-3.3,0.4-9.7,5.4S172,136,172,136l-6.2-8.4"/>
<path className="st4" d="M117.9,106.4c0,0,2,24,4.8,41.9c0.7,4.7,6.9,8.2,23.1,8.2c14.9,0,24.6-3.8,24.6-3.8l1.2-16.9"/>
<path className="st8" d="M117.9,106.4c0,0,2,24,4.8,41.9c0.7,4.7,6.9,8.2,23.1,8.2c14.9,0,24.6-3.8,24.6-3.8l1.2-16.9"/>
<path className="st0" d="M141,78.8v9.7c0,0,0.7,7,7.6,6.8c7-0.2,9.2-5.4,9.2-5.4s-0.9-12.2,0-16.3"/>
<path className="st8" d="M141,78.8v9.7c0,0,0.7,7,7.6,6.8c7-0.2,9.2-5.4,9.2-5.4s-0.9-12.2,0-16.3"/>
<path className="st0" d="M155.4,77.5c0,0,3.8-1.8,4.4-5.7c0.6-3.9-4.1-1.9-4.1-1.9s-3.9-2.3-5.2-8.9c-0.8-3.9-1.2-5.7-1.2-5.7
	c-2.2,0.2-4.3,0.9-6.1,2c-1.8,1.2-3.3,2.8-4.4,4.7c-3,5.4-5.4,16-0.6,21c6.1,6.4,13.4-1.7,13.4-1.7"/>
<path className="st4" d="M147.6,55.6c0,0-5.2,2.4-7.9,11.7c-3.7,12.8-0.9,17.1-0.9,17.1s-5.3-3.5-3-13.9c2.4-10.4,5.5-12.4,8.2-13.4
	S147.6,55.6,147.6,55.6z"/>
<path className="st8" d="M155.4,77.5c0,0,3.8-1.8,4.4-5.7c0.6-3.9-4.1-1.9-4.1-1.9s-3.9-2.3-5.2-8.9c-0.8-3.9-1.2-5.7-1.2-5.7
	c-2.2,0.2-4.3,0.9-6.1,2c-1.8,1.2-3.3,2.8-4.4,4.7c-3,5.4-5.4,16-0.6,21c6.1,6.4,13.4-1.7,13.4-1.7"/>
<path className="st0" d="M146.5,66.2c0,0-3.3-2.7-4.4-0.5c-1.1,2.1,1.8,4.2,1.8,4.2"/>
<path className="st8" d="M146.5,66.2c0,0-3.3-2.7-4.4-0.5c-1.1,2.1,1.8,4.2,1.8,4.2"/>
<path className="st8" d="M151.6,72.3c0.9,1,0.8,3.4-1,4.4s-5-0.2-4.2-2.3C146.9,72.8,150,70.5,151.6,72.3z"/>
<path className="st9" d="M106.6,231c0,0-1.1,17.2,2.1,21.4c2.8,3.6,9.2,3.8,11.1-5.5c1.8-9.3,1.3-19.4,1.3-19.4L106.6,231z"/>
<path d="M129.6,157.6c0,0-16.7-21.8-31.1-16.8c-16,5.6-11.7,23.6-9.5,37.2c2.2,13.7,17.5,53,17.5,53s2.5,3.3,8.4,2.3
	c1.5-0.2,2.9-0.9,4-1.9s1.8-2.4,2.2-3.8c0,0-4.1-48.2-3.2-59.2"/>
<path className="st10" d="M129.6,157.6c0,0-16.7-21.8-31.1-16.8c-16,5.6-11.7,23.6-9.5,37.2c2.2,13.7,17.5,53,17.5,53s2.5,3.3,8.4,2.3
	c1.5-0.2,2.9-0.9,4-1.9s1.8-2.4,2.2-3.8c0,0-4.1-48.2-3.2-59.2"/>
<path className="st9" d="M135.4,241.1c0,0,1,10.9,2.8,17.2c2.1,7.3,10.1,6.5,11.9,0.9c2.3-7.1,1.2-18.8,1.2-18.8L135.4,241.1z"/>
<path d="M143.7,159c0,0-13.4,3.2-15.7,17.8c-2.8,17.5,7.4,64.4,7.4,64.4s2.4,3.7,8,3.7c5.7,0,7.8-4.3,7.8-4.3s-1-31.4,2.6-53
	c1-5.8,4.9-12.1,10.2-11.7"/>
<path className="st11" d="M143.7,159c0,0-13.4,3.2-15.7,17.8c-2.8,17.5,7.4,64.4,7.4,64.4s2.4,3.7,8,3.7c5.7,0,7.8-4.3,7.8-4.3
	s-1-31.4,2.6-53c1-5.8,4.9-12.1,10.2-11.7"/>
<path className="st8" d="M108.7,236c0,0,2.7,3.2,7.3,0.5"/>
<path className="st8" d="M108.6,240.4c0,0,3.4,2.9,6.8,0.4"/>
<path className="st8" d="M139.8,247c0,0,4,3,8.5,0"/>
<path className="st8" d="M139.8,251c0,0,3.7,3.3,8.5,0.1"/>
<path className="st0" d="M209.2,87.4c0,0,2.6,13.5,4.9,19c2.3,5.5,6.5,8.8,13.9,8.5c7.4-0.2,10-4.3,12.9-9.7c3.2-6.1,5.5-17.9,5.5-17.9
	L209.2,87.4z"/>
<path className="st4" d="M216,90.1c0,0,0.2,12.8,2.5,17.7s4.2,6.5,4.2,6.5s-4-0.3-7-5c-2.9-4.7-6.5-22-6.5-22L216,90.1z"/>
<path className="st8" d="M209.2,87.4c0,0,2.6,13.5,4.9,19c2.3,5.5,6.5,8.8,13.9,8.5c7.4-0.2,10-4.3,12.9-9.7c3.2-6.1,5.5-17.9,5.5-17.9
	L209.2,87.4z"/>
<path className="st1" d="M227.7,90.9c10.3,0,18.6-1.6,18.6-3.6s-8.3-3.6-18.6-3.6s-18.6,1.6-18.6,3.6C209.2,89.3,217.5,90.9,227.7,90.9z
	"/>
<path className="st2" d="M235.8,90.6c0,0,0.7,17.3,3.9,31.9c3.2,14.5,4.4,16,4.4,16l2.7-11.3l8.9,2.7c0,0-7.8-15.6-10.6-25.5
	S241.4,90,241.4,90s-2.1,0.4-3.4,0.5S235.8,90.6,235.8,90.6z"/>
<path className="st2" d="M245,88.7c0,0,2.5,8,7.6,14.7c4.9,6.4,9.4,11.5,9.4,11.5l-10.2-1.7l-2.5,8.2c-2.9-5.9-5.4-12-7.4-18.2
	c-3.1-9.6-3.2-12.9-3.2-12.9s2.1-0.4,3.5-0.7C243.5,89.2,245,88.7,245,88.7z"/>
<path className="st8" d="M213.5,105.1c0,0,3.3,4.9,15.5,4"/>
<path className="st8" d="M221.4,144c0,0-0.1,2.4,4.2,3.3"/>
<path className="st9" d="M231.7,132.1c1.2-1.6,2.4-1.4,2.9,0.8s-3.2,6.5-5,6.1C227.9,138.7,229.6,134.9,231.7,132.1z"/>
<path className="st9" d="M231.1,129.1c1.2-1.6,3.5-2.7,4.1-0.4c0.6,2.2-4.1,8.3-5.8,7.9C227.6,136.2,229.1,131.9,231.1,129.1z"/>
<path className="st9" d="M230.7,125.4c1.2-1.6,3.5-2.7,4.1-0.4c0.6,2.2-3.3,8.7-5.8,7.9C227.2,132.4,228.7,128.2,230.7,125.4z"/>
<path className="st9" d="M230,121.9c1.2-1.6,3.5-2.7,4.1-0.4c0.6,2.2-4.1,8.3-5.8,7.9S228,124.7,230,121.9z"/>
<path d="M234.6,90.9c0,0,0.9,11.1,0.2,16.5c-0.8,5.5-3.3,6.9-3.3,6.9s4.6-1.2,5.3-3c0.8-1.8,0.7-2.3,0.7-2.3l-1.7-18.5L234.6,90.9z"
	/>
<path d="M226.4,114.9c0,0,1.7,0.7,1.8,1.9c0.1,0.7,0.1,1.3,0,2l3.9-1.8l0.3-2.6L226.4,114.9z"/>
<path d="M227.5,129.4l-0.1,13.8c0,0,1.5,1,1.6-0.2s-0.2-4.6-0.2-4.6v-5.5l-0.7-3.5H227.5z"/>
<path d="M227.7,144l3.7,8.3c1.3-0.4,2.5-1,3.7-1.8l1.6-1.1l-6.7-6.8L227.7,144z"/>
</svg>
