<?xml version="1.0" encoding="utf-8"?>
<!-- Generator: Adobe Illustrator 26.0.0, SVG Export Plug-In . SVG Version: 6.00 Build 0)  -->
<svg version="1.1" id="Layer_1" xmlns="http://www.w3.org/2000/svg" xmlns:xlink="http://www.w3.org/1999/xlink" x="0px" y="0px"
	 viewBox="0 0 800 800" style="enable-background:new 0 0 800 800;" xml:space="preserve">
<style type="text/css">
	.st0{fill:#001B47;}
	.st1{fill:#ECECEC;}
	.st2{fill:#FFFFFF;}
	.st3{fill:#353535;}
	.st4{fill:#FF0000;}
	.st5{fill:#1F1F1F;}
	.st6{fill:#DCDCDC;}
	.st7{fill:#9A9A9A;}
	.st8{fill:#F6F6F6;}
	.st9{opacity:0.8;}
	.st10{fill:#981625;}
	.st11{fill:#891D32;}
	.st12{fill:#7C253E;}
	.st13{fill:#6D2D4B;}
	.st14{fill:#623255;}
	.st15{fill:#553960;}
	.st16{fill:#861F35;}
	.st17{fill:#7A2640;}
	.st18{fill:#7E7E7E;}
</style>
<g>
	<path className="st0" d="M427.3,189.6c33.5-19.4,71.9-30.1,110.6-31.6c40.8-1.6,82,7.2,118.5,25.6c34.4,17.2,64.5,42.8,87.2,73.9
		c24.7,33.7,40.5,74,45.2,115.5c0.8,5,0.6,10,1.4,14.9c0.4,8.7,0.2,17.5,0.1,26.2l-0.5,0.7c-1.8,41.3-15.3,81.9-37.5,116.7
		c-20.3,31.8-48.2,58.8-80.7,78.2c-37.7,22.5-81.7,34.5-125.6,34c-41.9-0.1-83.8-11.5-120.1-32.5c42.1,0,84.1,0,126.2,0
		c10.6,0,19.9-9.6,19.8-20.1c0-31.3,0.1-62.6,0-93.9c0.8-0.3,1.5-0.6,2.3-0.8c3.3,2,5.3,5.7,8.8,7.6c1.9,1.1,4,2,5.2,4
		c7,10.2,14.2,20.4,21.3,30.6c3.9,5.8,10.7,9.5,17.7,9.2c9.6,0.3,18.6-7,20.6-16.3c2-8.1-1.3-17.1-8.1-21.9
		c-11.2-8-22.7-15.6-33.8-23.7c-1.3-5.1-6.1-8-9.5-11.8c6-11.6,8-25.3,4.9-38c-3.6-15.8-14.8-29.4-29.4-36.3
		c0.1-63.2,0-126.5,0-189.8c0.2-10.6-9.1-20.2-19.7-20.3C510.5,189.5,468.9,189.7,427.3,189.6z"/>
</g>
<g>
	<g>
		<path className="st1" d="M85.1,190.5c3.5-1.2,7.3-0.8,10.9-0.9c110.5,0,220.9,0,331.4,0c41.6,0.1,83.1-0.1,124.7,0.1
			c10.6,0.2,19.9,9.7,19.7,20.3c0,63.2,0.1,126.5,0,189.8c-6.3-3-13.2-4.6-20.1-5.1c-1.1-6.7-6.5-12.9-13.5-13.1
			c-21.7-0.2-43.5,0-65.2-0.1c-6.2-0.4-12.2,3.8-14.2,9.6c-1.5,5.2-0.8,10.6-0.9,15.9c0.1,5-0.4,10.1,0.4,15.1
			c0.9,6.6,7.1,11.9,13.8,11.7c8.3,0.1,16.5,0,24.8,0c-1,3.8-1.5,7.6-1.7,11.5c-7.7,0.1-15.4-0.1-23.1,0.1
			c-6.3,0-12.3,4.7-13.6,10.9c-1,5.2-0.4,10.5-0.6,15.7c0.1,4.7-0.3,9.4,0.4,14c0.9,6.6,7.2,11.9,13.8,11.8
			c18.4,0.2,36.7-0.2,55.1,0.1c14.1,6.2,30.8,6,44.7-0.7c0.1,31.3,0.1,62.6,0,93.9c0.1,10.5-9.2,20.2-19.8,20.1
			c-42.1,0-84.1,0-126.2,0c-109.9,0-219.9,0-329.9,0c-4.3,0-8.8,0.4-12.8-1.4c-7.2-2.8-12.6-10-12.8-17.7c0-127.7,0-255.4,0-383.1
			C70.5,200.5,77,192.7,85.1,190.5z M151.3,204.2c-0.2,0.3-0.8,0.8-1,1c-1.1,4.8-0.8,9.9-0.3,14.7c0.4,2.4,3.1,2.4,5,2.4
			c130.3,0,260.7,0,391,0c1.8-0.1,4.7-0.1,5-2.4c0.5-4.6,0.5-9.3,0-13.9c-0.5-2.3-3.1-2.4-5-2.5c-127.7,0.1-255.3,0-383,0
			C159.1,203.8,155.1,203.1,151.3,204.2z M92.4,208.4c-2.2,1.2-2.7,4.5-1.4,6.5c1.9,2.9,7,2.4,8.1-1
			C100.9,210.1,95.8,205.9,92.4,208.4z M105.7,208.6c-1.8,2.7-1.5,7.5,2.4,8.1c4.1,1.3,7.4-4.2,4.5-7.3
			C110.9,207.1,108,207.8,105.7,208.6z M118.3,212c1,2.4,2.5,5.5,5.7,4.8c4.2-0.1,5.4-6.7,1.7-8.4
			C122.6,206.3,119.4,209.2,118.3,212z M115.2,254.2c-6.1,1.5-10.8,7.4-10.7,13.7c0,55,0,110,0,165c-0.2,7.7,6.8,14.5,14.5,14.4
			c105.3,0,210.6,0,316,0c5.5,0.2,11.1-2.9,13.5-8c2-3.9,1.2-8.3,1.4-12.5c0.5-7.7,0.1-15.3,0-23c0.9-7.7-0.6-15.3,0.1-23
			c0.6-5.7-0.6-11.4,0-17.1c0.6-5.7-0.3-11.3,0.2-17c-1.1-12.6,0.9-25.3-0.2-37.9c-0.3-3.7,0.5-7.3,0.2-11
			c-0.6-10.3,0.6-20.7-0.4-31c0-7.6-7.4-13.6-14.8-13.3c-103,0-205.9,0-308.9,0C122.4,253.8,118.8,253.4,115.2,254.2z M468.3,254.3
			c-4.3,1.2-8,4.5-9.5,8.8c-1.8,5.4-0.8,11.2-1,16.9c0.3,5.9-0.9,12.2,1.4,17.8c2.2,5.4,8.1,8.6,13.8,8.5c19.3,0,38.6,0,58,0
			c3.6,0,7.2,0.2,10.7-0.8c5.6-1.8,9.8-7.5,9.7-13.4c0-8.3,0.1-16.6,0-25c-0.3-7.3-7.1-13.5-14.4-13.3c-20-0.1-40,0-59.9,0
			C474.1,253.7,471.1,253.5,468.3,254.3z M468.2,318.2c-4.3,1.2-7.9,4.6-9.4,8.8c-1.8,5.5-0.8,11.4-1,17c0.3,6.5-1.3,13.8,2.5,19.7
			c2.8,4.6,8.4,6.5,13.7,6.5c18.3,0,36.7,0,55,0c4.3,0,8.8,0.3,13-1.1c5.5-1.8,9.5-7.4,9.5-13.2c0.1-8,0-16,0-24
			c0.1-5.9-3.9-11.6-9.5-13.5c-3.2-1.1-6.6-0.8-9.9-0.8c-18.4,0-36.7,0-55,0C474.1,317.7,471.1,317.4,468.2,318.2z M111.3,469.5
			c-3.8,0.2-7,3.8-6.9,7.6c-0.2,4.1,3.4,7.9,7.6,7.7c79.7,0,159.3,0,239,0c4.1,0.3,7.9-3.6,7.6-7.7c0.3-4.5-4.2-8.2-8.5-7.6
			C270.5,469.4,190.9,469.3,111.3,469.5z M115.6,501c-8.6,2.4-13.6,13-9.9,21.2c3.3,8.8,15.1,12.5,22.9,7.3
			c7.6-4.4,9.9-15.5,4.6-22.5C129.4,501.4,122,499,115.6,501z M149.5,517.2c1.3,3.1,3.6,6.6,7.4,6.5c42,0.1,84,0,126,0
			c3.1,0.2,5.9-1.9,7.1-4.8c2.1-4.7-1.8-10.7-7-10.6c-42-0.1-84-0.1-125.9,0C152.5,508.4,149.6,513,149.5,517.2z M467.6,509.9
			c-4.3,1.6-8,5.2-9.1,9.7c-1.2,5-0.5,10.3-0.7,15.4c0.2,5.7-0.7,11.5,0.9,17c1.9,5.5,7.4,9.8,13.3,9.6c21.7,0,43.4,0,65,0
			c7.4,0.3,14.2-6.2,14.4-13.6c0.1-8.3,0.1-16.6,0-24.9c0-7.2-6.2-13.7-13.4-13.7c-21-0.1-42,0-63-0.1
			C472.5,509.2,470,509.2,467.6,509.9z M110.3,547.6c-4.4,0.9-7.1,6.1-5.4,10.2c1.2,3.2,4.6,5.2,8,4.9c79,0,158,0,237,0
			c4.1,0.5,8.3-2.5,8.6-6.7c0.8-4.4-3-8.8-7.5-8.6c-67-0.1-134.1,0-201.1,0C136.8,547.5,123.5,547.1,110.3,547.6z"/>
	</g>
</g>
<g>
	<path className="st2" d="M151.3,204.2c3.8-1.1,7.8-0.4,11.7-0.6c127.7,0,255.3,0,383,0c1.9,0,4.5,0.1,5,2.5c0.5,4.6,0.5,9.3,0,13.9
		c-0.3,2.3-3.2,2.3-5,2.4c-130.4,0-260.7,0-391,0c-1.9-0.1-4.6,0-5-2.4c-0.6-4.8-0.8-9.9,0.3-14.7
		C150.6,205,151.1,204.5,151.3,204.2z"/>
	<path className="st2" d="M271.3,341.7c5.2,2.9,10.5,5.6,15.4,9.1c-5.1,3-10.3,5.9-15.4,8.9C271.2,353.7,271.2,347.7,271.3,341.7z"/>
</g>
<g>
	<g>
		<path className="st3" d="M115.2,254.2c3.5-0.9,7.2-0.4,10.8-0.5c103,0,205.9,0,308.9,0c7.4-0.4,14.8,5.6,14.8,13.3
			c1,10.3-0.2,20.7,0.4,31c0.3,3.7-0.5,7.4-0.2,11c1.1,12.6-0.9,25.3,0.2,37.9c-0.5,5.7,0.4,11.3-0.2,17c-0.5,5.7,0.7,11.4,0,17.1
			c-0.7,7.7,0.8,15.3-0.1,23c0.1,7.7,0.5,15.3,0,23c-0.2,4.1,0.6,8.6-1.4,12.5c-2.4,5-8,8.1-13.5,8c-105.3,0-210.6,0-316,0
			c-7.7,0.2-14.7-6.6-14.5-14.4c0-55,0-110,0-165C104.4,261.7,109.1,255.7,115.2,254.2z M263,329.9c-2.7,0.3-5.4,0.4-8,0.6
			c-3.1,0.2-5.9,2.5-6.6,5.5c-1.4,5.2-1.1,10.6-1.2,15.9c0.1,4.7-0.1,9.6,1.5,14.2c1.2,3.3,4.8,4.8,8.2,5c13.7,0.8,27.4,0.8,41.1,0
			c3.6-0.2,7.6-2.2,8.2-6.1c1.8-9,1.7-18.5,0.2-27.6c-0.4-3.4-3-6.4-6.5-6.8C287.7,329.3,275.4,329.4,263,329.9z"/>
	</g>
	<path className="st3" d="M468.3,254.3c2.8-0.8,5.8-0.6,8.7-0.6c20,0,40,0,59.9,0c7.3-0.2,14.1,6,14.4,13.3c0.2,8.3,0.1,16.6,0,25
		c0,5.9-4.1,11.6-9.7,13.4c-3.5,1.1-7.1,0.8-10.7,0.8c-19.3,0-38.6,0-58,0c-5.7,0.1-11.6-3.1-13.8-8.5c-2.3-5.6-1.1-11.9-1.4-17.8
		c0.2-5.6-0.8-11.4,1-16.9C460.3,258.9,464,255.5,468.3,254.3z"/>
	<path className="st3" d="M468.2,318.2c2.8-0.8,5.8-0.5,8.8-0.6c18.4,0,36.7,0,55,0c3.3,0.1,6.7-0.3,9.9,0.8c5.6,1.9,9.6,7.6,9.5,13.5
		c0,8,0,16,0,24c0,5.8-3.9,11.4-9.5,13.2c-4.2,1.3-8.7,1-13,1.1c-18.3,0-36.7,0-55,0c-5.2,0-10.8-1.9-13.7-6.5
		c-3.8-5.9-2.2-13.1-2.5-19.7c0.2-5.7-0.8-11.5,1-17C460.3,322.8,463.9,319.4,468.2,318.2z"/>
	<path className="st3" d="M458.7,391.1c2-5.9,8-10,14.2-9.6c21.7,0.1,43.5-0.1,65.2,0.1c7.1,0.2,12.5,6.4,13.5,13.1
		c-12.3-0.7-24.8,3-34.8,10.3c-9.7,6.9-16.9,17.4-20.1,28.9c-8.3,0-16.5,0.1-24.8,0c-6.7,0.2-12.9-5.2-13.8-11.7
		c-0.8-5-0.3-10-0.4-15.1C457.9,401.7,457.2,396.3,458.7,391.1z"/>
	<path className="st3" d="M458.4,456.2c1.3-6.2,7.3-10.9,13.6-10.9c7.7-0.1,15.4,0.1,23.1-0.1c-1.9,21.9,11.7,44.2,32,52.5
		c-18.4-0.3-36.7,0-55.1-0.1c-6.6,0.1-12.9-5.2-13.8-11.8c-0.7-4.6-0.3-9.3-0.4-14C457.9,466.7,457.3,461.4,458.4,456.2z"/>
	<path className="st3" d="M467.6,509.9c2.4-0.7,4.9-0.6,7.4-0.7c21,0.1,42-0.1,63,0.1c7.2,0.1,13.4,6.6,13.4,13.7
		c0.1,8.3,0.1,16.6,0,24.9c-0.1,7.4-6.9,13.9-14.4,13.6c-21.7,0-43.4,0-65,0c-5.9,0.2-11.4-4.1-13.3-9.6c-1.5-5.6-0.7-11.4-0.9-17
		c0.2-5.1-0.5-10.4,0.7-15.4C459.6,515.1,463.3,511.5,467.6,509.9z"/>
</g>
<g>
	<g>
		<path className="st4" d="M263,329.9c12.3-0.5,24.7-0.6,37,0.7c3.5,0.4,6.1,3.4,6.5,6.8c1.5,9.1,1.5,18.5-0.2,27.6
			c-0.7,3.9-4.6,5.9-8.2,6.1c-13.7,0.9-27.4,0.8-41.1,0c-3.3-0.1-6.9-1.6-8.2-5c-1.6-4.5-1.4-9.4-1.5-14.2
			c0.1-5.3-0.2-10.8,1.2-15.9c0.7-3,3.5-5.3,6.6-5.5C257.7,330.2,260.4,330.1,263,329.9z M271.3,341.7c-0.1,6-0.1,12,0,18
			c5.1-3.1,10.3-5.9,15.4-8.9C281.8,347.3,276.5,344.6,271.3,341.7z"/>
	</g>
</g>
<g>
	<g>
		<path className="st5" d="M516.9,404.9c9.9-7.4,22.5-11,34.8-10.3c7,0.5,13.8,2.1,20.1,5.1c14.6,6.9,25.8,20.6,29.4,36.3
			c3.1,12.8,1.1,26.4-4.9,38c3.3,3.7,8.1,6.6,9.5,11.8c11.1,8.1,22.6,15.7,33.8,23.7c6.8,4.8,10.1,13.8,8.1,21.9
			c-2,9.3-11,16.6-20.6,16.3c-7,0.3-13.8-3.4-17.7-9.2c-7.1-10.2-14.2-20.4-21.3-30.6c-1.2-2-3.3-2.9-5.2-4
			c-3.5-1.9-5.4-5.6-8.8-7.6c-0.8,0.2-1.6,0.5-2.3,0.8c-13.9,6.7-30.6,6.9-44.7,0.7c-20.3-8.4-33.9-30.6-32-52.5
			c0.2-3.9,0.7-7.7,1.7-11.5C500,422.3,507.1,411.9,516.9,404.9z M513.5,414.5c-10.8,11.1-15.9,27.5-12.9,42.7
			c2.3,13.2,10.4,25.4,21.8,32.6c13.7,8.9,32,10.3,46.8,3.2c2-0.9,3.8-2.1,6-2.6c3.4,2.3,5.8,5.8,9,8.4c5.2-4.4,9.8-9.5,14.6-14.3
			c0-0.2,0-0.8,0-1c-2.7-3.2-6.3-5.5-8.2-9.3c4.5-7.6,7.2-16.3,7.3-25.2c0.3-13.3-5.3-26.6-15-35.8c-9.1-8.9-21.9-14-34.7-13.8
			C535.1,399.6,522.4,405.1,513.5,414.5z M588,501.2c4.8,7.4,9.9,14.7,15.3,21.6c2.3,4.7,5.9,8.7,8.9,12.9l-0.1,0.5
			c2,2.5,4.4,4.5,7,6.3c5.6,2.3,11.9,2.2,17.1-1c3.6-2.6,6.7-6.2,7.7-10.6c2-7.3-1.5-15.3-7.8-19.3c-2.7-1.9-5.4-3.8-8.1-5.6
			c-2.5-1.8-5-3.6-7.6-5.3c-3.4-2.4-6.8-4.8-10.3-7.1c-2.3-1.8-4.8-3.5-7.4-5l0-1C596.9,491,593,496.9,588,501.2z"/>
	</g>
	<g>
		<path className="st5" d="M544.1,409.1c8.7-1.1,17.8,0.9,25.3,5.5c11.2,6.8,18.6,19.2,19,32.3c0.8,15.6-8.7,31-22.9,37.5
			c-11.9,5.6-26.5,4.7-37.6-2.3c-6.7-4.1-12.1-10.3-15.3-17.5c-5.3-11.9-4.3-26.4,2.7-37.3C521.5,417.3,532.4,410.4,544.1,409.1z
			 M517.4,433.8h-0.3c-0.9,2.7-1.9,5.3-2.5,8.1c-2.3,12,2.1,25.1,11.5,33c6.9,6,16.2,8.9,25.3,8.3c7.4-0.9,14.9-3.6,20.3-8.9
			c3.7-3.2,6.7-7.2,8.7-11.7c6.2-13.3,2.6-30.4-8.7-39.9c-4-4-9.2-6.5-14.6-7.9C541.7,410.5,523.8,419,517.4,433.8z"/>
	</g>
	<path className="st5" d="M596.8,500.6c2.2,1.2,4.1,2.9,5.4,5.1c2.2,3.5,4.6,6.8,7,10.2c3.6,5.3,7.2,10.6,11,15.8
		c1.7,2.2,4.4,3.3,7.2,3.6c2.5-0.9,5-2,7.4-3.1c0,0.7,0,2,0,2.7c-4.2,3-9.7,3.7-14.3,1c-2.4-3-4.7-6-6.9-9.1c-3-4.4-6-8.8-9.1-13.1
		C601.7,509.4,598,505.6,596.8,500.6z"/>
</g>
<g>
	<g>
		<path className="st6" d="M513.5,414.5c8.9-9.4,21.6-14.8,34.6-15c12.8-0.2,25.5,4.8,34.7,13.8c9.7,9.2,15.2,22.5,15,35.8
			c0,8.9-2.7,17.6-7.3,25.2c1.9,3.8,5.5,6.1,8.2,9.3c0,0.3,0,0.8,0,1c-4.8,4.8-9.4,9.9-14.6,14.3c-3.2-2.6-5.6-6.1-9-8.4
			c-2.2,0.4-4,1.7-6,2.6c-14.8,7.1-33.1,5.7-46.8-3.2c-11.4-7.2-19.5-19.3-21.8-32.6C497.6,442,502.7,425.5,513.5,414.5z
			 M544.1,409.1c-11.7,1.3-22.6,8.1-28.8,18.1c-7.1,10.9-8,25.5-2.7,37.3c3.2,7.2,8.6,13.4,15.3,17.5c11.1,7,25.7,7.9,37.6,2.3
			c14.2-6.4,23.7-21.8,22.9-37.5c-0.4-13.1-7.8-25.6-19-32.3C561.8,410.1,552.8,408,544.1,409.1z"/>
	</g>
</g>
<g>
	<path className="st7" d="M517.4,433.8c6.4-14.8,24.3-23.3,39.8-19c-1.9-0.3-3.8-0.4-5.6-0.6c-0.2,3.7,0.2,7.6-1.3,11.2
		c-2,4.8-6.9,8.3-12.2,8.4C531.2,434,524.3,433.7,517.4,433.8z"/>
	<path className="st7" d="M526.2,474.9c-9.4-7.9-13.9-20.9-11.5-33c0,0.9-0.2,2.6-0.2,3.4c7.8,0.1,15.7-0.2,23.5,0.1
		c7.1,0.1,13.3,6.5,13.4,13.6c0.3,8,0,16.1,0.1,24.1C542.4,483.7,533.1,480.8,526.2,474.9z"/>
</g>
<g>
	<path className="st8" d="M551.6,414.1c1.9,0.2,3.7,0.4,5.6,0.6c5.4,1.4,10.7,3.9,14.6,7.9c0,17.2,0,34.4,0,51.6
		c-5.4,5.3-12.9,8-20.3,8.9c-0.1-8,0.2-16.1-0.1-24.1c-0.1-7.1-6.3-13.4-13.4-13.6c-7.8-0.3-15.7,0-23.5-0.1c0-0.9,0.2-2.6,0.2-3.4
		c0.5-2.8,1.5-5.4,2.5-8.1h0.3c6.9,0,13.8,0.2,20.7,0c5.2-0.1,10.1-3.6,12.2-8.4C551.8,421.8,551.4,417.9,551.6,414.1z"/>
</g>
<g className="st9">
	<path className="st0" d="M571.8,422.7c11.3,9.5,14.9,26.6,8.7,39.9c-2,4.5-4.9,8.5-8.7,11.7C571.8,457.1,571.8,439.9,571.8,422.7z"/>
</g>
<g>
	<path d="M111.3,469.5c79.6-0.2,159.2,0,238.8-0.1c4.4-0.5,8.8,3.2,8.5,7.6c0.3,4.1-3.4,8-7.6,7.7c-79.7,0-159.3,0-239,0
		c-4.1,0.2-7.8-3.6-7.6-7.7C104.4,473.3,107.6,469.7,111.3,469.5z"/>
	<path className="st0" d="M115.6,501c6.4-2,13.8,0.4,17.6,6c5.3,7,3,18.1-4.6,22.5c-7.8,5.2-19.6,1.4-22.9-7.3
		C101.9,514,106.9,503.4,115.6,501z"/>
	<path className="st0" d="M149.5,517.2c0.1-4.2,2.9-8.9,7.6-8.8c42-0.1,83.9-0.1,125.9,0c5.2-0.1,9.1,5.8,7,10.6c-1.1,2.8-4,4.9-7.1,4.8
		c-42,0-84,0-126,0C153.1,523.8,150.9,520.3,149.5,517.2z"/>
</g>
<g>
	<path className="st10" d="M588,501.2c5.1-4.4,9-10.2,14.9-13.5l0,1c0.2,5.7,0.2,11.4-0.7,17c-1.3-2.2-3.1-3.9-5.4-5.1
		c1.2,5,4.9,8.8,7.7,13c-0.5,3.1-0.9,6.2-1.2,9.3C597.8,515.9,592.8,508.6,588,501.2z"/>
</g>
<g>
	<path className="st11" d="M602.8,488.7c2.6,1.5,5,3.2,7.4,5c-0.4,7.4,0.7,14.9-1,22.2c-2.4-3.3-4.8-6.7-7-10.2
		C603.1,500.1,603,494.4,602.8,488.7z"/>
</g>
<g>
	<path className="st12" d="M610.2,493.7c3.5,2.2,6.9,4.7,10.3,7.1c0.4,10.3,0.9,20.6-0.3,30.9c-3.8-5.2-7.4-10.5-11-15.8
		C610.9,508.6,609.8,501.1,610.2,493.7z"/>
</g>
<g>
	<path className="st13" d="M620.5,500.8c2.5,1.7,5.1,3.5,7.6,5.3c-0.3,9.7,0.4,19.5-0.7,29.1c-2.7-0.3-5.4-1.3-7.2-3.6
		C621.4,521.4,620.9,511.1,620.5,500.8z"/>
</g>
<g>
	<path className="st14" d="M628.1,506.1c2.7,1.8,5.4,3.7,8.1,5.6c-0.4,10-0.4,19.9,0.1,29.9c-5.2,3.2-11.6,3.3-17.1,1
		c0.6-0.4,1.9-1.3,2.5-1.8c-0.4-1.7-0.8-3.4-1.2-5c4.6,2.6,10.1,2,14.3-1c0-0.7,0-2,0-2.7c-2.4,1.1-4.9,2.2-7.4,3.1
		C628.5,525.6,627.7,515.8,628.1,506.1z"/>
</g>
<g>
	<path className="st15" d="M636.2,511.7c6.3,3.9,9.8,12,7.8,19.3c-1,4.4-4.1,8-7.7,10.6C635.8,531.6,635.8,521.6,636.2,511.7z"/>
</g>
<g>
	<path className="st16" d="M604.5,513.6c3.1,4.3,6.1,8.7,9.1,13.1c-0.4,3-0.8,6.1-1.4,9.1c-3.1-4.2-6.6-8.2-8.9-12.9
		C603.5,519.8,604,516.7,604.5,513.6z"/>
</g>
<g>
	<path className="st17" d="M613.5,526.7c2.1,3.2,4.4,6.2,6.9,9.1c0.5,1.6,0.8,3.3,1.2,5c-0.6,0.4-1.9,1.3-2.5,1.8
		c-2.6-1.7-5.1-3.8-7-6.3l0.1-0.5C612.7,532.8,613.1,529.7,613.5,526.7z"/>
</g>
<g>
	<path className="st18" d="M110.3,547.6c13.2-0.5,26.4-0.1,39.7-0.2c67,0,134.1,0,201.1,0c4.5-0.2,8.3,4.2,7.5,8.6
		c-0.3,4.2-4.5,7.2-8.6,6.7c-79,0-158,0-237,0c-3.4,0.3-6.8-1.7-8-4.9C103.3,553.7,105.9,548.5,110.3,547.6z"/>
</g>
<circle className="st0" cx="95.2" cy="211.9" r="5"/>
<circle className="st0" cx="109.4" cy="211.9" r="5"/>
<circle className="st0" cx="123.7" cy="211.9" r="5"/>
</svg>
