<svg id="Layer_1" data-name="Layer 1" xmlns="http://www.w3.org/2000/svg" viewBox="0 0 137.62 92.87"><defs><style>.cls-1{fill:#001b47;}.cls-2{fill:#ececec;}.cls-3{fill:#fff;}.cls-4{fill:#353535;}.cls-5{fill:red;}.cls-6{fill:#1f1f1f;}.cls-7{fill:#dcdcdc;}.cls-8{fill:#9a9a9a;}.cls-9{fill:#f6f6f6;}.cls-10{opacity:0.8;}.cls-11{fill:#981625;}.cls-12{fill:#891d32;}.cls-13{fill:#7c253e;}.cls-14{fill:#6d2d4b;}.cls-15{fill:#623255;}.cls-16{fill:#553960;}.cls-17{fill:#861f35;}.cls-18{fill:#7a2640;}.cls-19{fill:#7e7e7e;}</style></defs><path class="cls-1" d="M75.1,34.3a46.42,46.42,0,0,1,43.79-1.14,46.45,46.45,0,0,1,25.3,36.2c.15.94.12,1.9.26,2.85.08,1.67,0,3.34,0,5l-.08.13a45.47,45.47,0,0,1-7.18,22.3,46.49,46.49,0,0,1-62.38,15.23H98.94a3.9,3.9,0,0,0,3.77-3.85q0-9,0-18a2.15,2.15,0,0,1,.45-.14c.64.39,1,1.09,1.67,1.46a2.4,2.4,0,0,1,1,.76c1.35,2,2.71,3.9,4.07,5.85a4,4,0,0,0,3.38,1.76,4,4,0,0,0,2.39-7.31c-2.14-1.53-4.33-3-6.46-4.53-.25-1-1.17-1.54-1.81-2.25a10.61,10.61,0,0,0,.94-7.27,10.35,10.35,0,0,0-5.62-6.94q0-18.13,0-36.27a4,4,0,0,0-3.77-3.89C91,34.29,83.05,34.32,75.1,34.3Z" transform="translate(-6.88 -28.22)"/><path class="cls-2" d="M9.69,34.47a6.59,6.59,0,0,1,2.08-.16H75.1c8,0,15.89,0,23.84,0a4,4,0,0,1,3.77,3.89q0,18.13,0,36.27a10.47,10.47,0,0,0-3.84-1A2.88,2.88,0,0,0,96.28,71c-4.16,0-8.31,0-12.47,0a2.75,2.75,0,0,0-2.71,1.84,11.8,11.8,0,0,0-.17,3A21.27,21.27,0,0,0,81,78.73,2.66,2.66,0,0,0,83.63,81c1.58,0,3.16,0,4.74,0a11.57,11.57,0,0,0-.33,2.2c-1.47,0-2.94,0-4.41,0A2.72,2.72,0,0,0,81,85.27a17.64,17.64,0,0,0-.1,3A18.32,18.32,0,0,0,81,90.94a2.7,2.7,0,0,0,2.64,2.25c3.51,0,7,0,10.53,0a10.31,10.31,0,0,0,8.54-.14q0,9,0,18a3.9,3.9,0,0,1-3.77,3.85H11.77a6.08,6.08,0,0,1-2.44-.26,3.83,3.83,0,0,1-2.45-3.39V38A3.85,3.85,0,0,1,9.69,34.47ZM22.35,37.1l-.2.19a8.09,8.09,0,0,0,0,2.82c.07.46.58.45.95.46H97.79c.34,0,.9,0,1-.46a12.45,12.45,0,0,0,0-2.66c-.09-.44-.59-.46-1-.46H24.59A8.8,8.8,0,0,0,22.35,37.1Zm-11.27.8a.91.91,0,0,0-.26,1.25.89.89,0,0,0,1.54-.2A.88.88,0,0,0,11.08,37.9Zm2.55,0c-.35.52-.29,1.44.45,1.55a.87.87,0,0,0,.87-1.4C14.63,37.64,14.06,37.79,13.63,37.94Zm2.41.65c.18.46.48,1,1.09.91a.87.87,0,0,0,.31-1.61C16.86,37.49,16.24,38.05,16,38.59Zm-.59,8.07a2.74,2.74,0,0,0-2,2.63q0,15.76,0,31.54a2.76,2.76,0,0,0,2.77,2.74H76.56a2.77,2.77,0,0,0,2.58-1.52,5.66,5.66,0,0,0,.27-2.39c.08-1.46,0-2.92,0-4.39.17-1.46-.12-2.93,0-4.39.12-1.09-.11-2.18,0-3.27s-.06-2.16,0-3.25c-.21-2.41.18-4.83,0-7.24,0-.7.1-1.4,0-2.11-.12-2,.11-4-.07-5.92a2.71,2.71,0,0,0-2.83-2.54h-59A10.19,10.19,0,0,0,15.45,46.66Zm67.48,0a2.66,2.66,0,0,0-1.81,1.67,11.57,11.57,0,0,0-.19,3.22A9.74,9.74,0,0,0,81.19,55a2.8,2.8,0,0,0,2.64,1.62H94.91a7.39,7.39,0,0,0,2-.16,2.75,2.75,0,0,0,1.86-2.57c0-1.59,0-3.18,0-4.77a2.76,2.76,0,0,0-2.75-2.55H84.6A5.89,5.89,0,0,0,82.93,46.68Zm0,12.2a2.74,2.74,0,0,0-1.8,1.68,11.78,11.78,0,0,0-.19,3.25c.06,1.25-.25,2.65.47,3.76A3,3,0,0,0,84,68.83c3.51,0,7,0,10.52,0a8.25,8.25,0,0,0,2.48-.2,2.72,2.72,0,0,0,1.81-2.53c0-1.53,0-3,0-4.58A2.75,2.75,0,0,0,97,58.93a5.7,5.7,0,0,0-1.89-.16H84.59A6.68,6.68,0,0,0,82.92,58.88ZM14.71,87.79a1.46,1.46,0,0,0-1.31,1.45,1.42,1.42,0,0,0,1.44,1.47q22.85,0,45.68,0A1.42,1.42,0,0,0,62,89.24a1.47,1.47,0,0,0-1.63-1.46C45.13,87.79,29.92,87.76,14.71,87.79Zm.81,6A3,3,0,1,0,18.88,95,3,3,0,0,0,15.52,93.82ZM22,96.93c.25.59.69,1.26,1.42,1.23q12,0,24.08,0a1.4,1.4,0,0,0,1.35-.91,1.48,1.48,0,0,0-1.33-2q-12,0-24.07,0A1.6,1.6,0,0,0,22,96.93ZM82.8,95.52a2.77,2.77,0,0,0-1.74,1.85,13.74,13.74,0,0,0-.13,2.94,14.13,14.13,0,0,0,.16,3.25,2.72,2.72,0,0,0,2.55,1.83H96.07a2.73,2.73,0,0,0,2.75-2.6q0-2.39,0-4.77a2.7,2.7,0,0,0-2.57-2.62c-4,0-8,0-12,0A5.15,5.15,0,0,0,82.8,95.52Zm-68.29,7.21a1.47,1.47,0,0,0,.5,2.89h45.3A1.46,1.46,0,0,0,62,104.34a1.44,1.44,0,0,0-1.43-1.65H22.09C19.57,102.72,17,102.63,14.51,102.73Z" transform="translate(-6.88 -28.22)"/><path class="cls-3" d="M22.35,37.1A8.8,8.8,0,0,1,24.59,37H97.8c.36,0,.86,0,1,.46a12.45,12.45,0,0,1,0,2.66c-.06.44-.62.45-1,.46H23.05c-.37,0-.88,0-.95-.46a8.09,8.09,0,0,1,0-2.82Z" transform="translate(-6.88 -28.22)"/><path class="cls-3" d="M45.28,63.38a33.28,33.28,0,0,1,2.94,1.73c-1,.58-2,1.12-2.94,1.71C45.26,65.67,45.26,64.53,45.28,63.38Z" transform="translate(-6.88 -28.22)"/><path class="cls-4" d="M15.45,46.66a10.19,10.19,0,0,1,2.07-.1h59a2.71,2.71,0,0,1,2.83,2.54c.18,2,0,3.95.07,5.92.05.71-.1,1.41,0,2.11.22,2.41-.17,4.83,0,7.24-.09,1.09.09,2.17,0,3.25s.13,2.18,0,3.27c-.14,1.46.15,2.93,0,4.39,0,1.47.08,2.93,0,4.39a5.66,5.66,0,0,1-.27,2.39,2.77,2.77,0,0,1-2.58,1.52H16.17a2.76,2.76,0,0,1-2.77-2.74q0-15.76,0-31.54A2.74,2.74,0,0,1,15.45,46.66ZM43.7,61.12c-.51.05-1,.06-1.53.12a1.41,1.41,0,0,0-1.26,1,12,12,0,0,0-.22,3.05A8.45,8.45,0,0,0,41,68a1.64,1.64,0,0,0,1.56.95,64.41,64.41,0,0,0,7.86,0A1.57,1.57,0,0,0,52,67.82a15.29,15.29,0,0,0,0-5.27,1.47,1.47,0,0,0-1.23-1.3A47.69,47.69,0,0,0,43.7,61.12Z" transform="translate(-6.88 -28.22)"/><path class="cls-4" d="M82.93,46.68a5.89,5.89,0,0,1,1.67-.12H96.06a2.76,2.76,0,0,1,2.75,2.55c0,1.59,0,3.18,0,4.77A2.75,2.75,0,0,1,97,56.45a7.39,7.39,0,0,1-2,.16H83.83A2.8,2.8,0,0,1,81.19,55a9.74,9.74,0,0,1-.26-3.41,11.57,11.57,0,0,1,.19-3.22A2.66,2.66,0,0,1,82.93,46.68Z" transform="translate(-6.88 -28.22)"/><path class="cls-4" d="M82.92,58.88a6.68,6.68,0,0,1,1.67-.11H95.11a5.7,5.7,0,0,1,1.89.16,2.75,2.75,0,0,1,1.82,2.59c0,1.53,0,3,0,4.58A2.72,2.72,0,0,1,97,68.63a8.25,8.25,0,0,1-2.48.2c-3.51,0-7,0-10.52,0a3,3,0,0,1-2.61-1.26c-.72-1.11-.41-2.51-.47-3.76a11.78,11.78,0,0,1,.19-3.25A2.74,2.74,0,0,1,82.92,58.88Z" transform="translate(-6.88 -28.22)"/><path class="cls-4" d="M81.1,72.82A2.75,2.75,0,0,1,83.81,71c4.16,0,8.31,0,12.47,0a2.88,2.88,0,0,1,2.59,2.5A10.34,10.34,0,0,0,88.37,81c-1.58,0-3.16,0-4.74,0A2.66,2.66,0,0,1,81,78.73a21.27,21.27,0,0,1-.07-2.88A11.8,11.8,0,0,1,81.1,72.82Z" transform="translate(-6.88 -28.22)"/><path class="cls-4" d="M81,85.27a2.72,2.72,0,0,1,2.6-2.08c1.47,0,2.94,0,4.41,0a10.22,10.22,0,0,0,6.13,10c-3.51-.06-7,0-10.53,0A2.7,2.7,0,0,1,81,90.94a18.32,18.32,0,0,1-.07-2.67A17.64,17.64,0,0,1,81,85.27Z" transform="translate(-6.88 -28.22)"/><path class="cls-4" d="M82.8,95.52a5.15,5.15,0,0,1,1.41-.13c4,0,8,0,12,0A2.7,2.7,0,0,1,98.82,98q0,2.39,0,4.77a2.73,2.73,0,0,1-2.75,2.6H83.64a2.72,2.72,0,0,1-2.55-1.83,14.13,14.13,0,0,1-.16-3.25,13.74,13.74,0,0,1,.13-2.94A2.77,2.77,0,0,1,82.8,95.52Z" transform="translate(-6.88 -28.22)"/><path class="cls-5" d="M43.7,61.12a47.69,47.69,0,0,1,7.07.13A1.47,1.47,0,0,1,52,62.55a15.29,15.29,0,0,1,0,5.27A1.57,1.57,0,0,1,50.39,69a64.41,64.41,0,0,1-7.86,0A1.64,1.64,0,0,1,41,68a8.45,8.45,0,0,1-.28-2.7,12,12,0,0,1,.22-3.05,1.41,1.41,0,0,1,1.26-1C42.68,61.18,43.19,61.17,43.7,61.12Zm1.58,2.26c0,1.15,0,2.29,0,3.44,1-.59,2-1.13,2.94-1.71A33.28,33.28,0,0,0,45.28,63.38Z" transform="translate(-6.88 -28.22)"/><path class="cls-6" d="M92.22,75.46a10.28,10.28,0,0,1,6.65-2,10.47,10.47,0,0,1,3.84,1,10.35,10.35,0,0,1,5.62,6.94,10.61,10.61,0,0,1-.94,7.27c.64.71,1.56,1.27,1.81,2.25,2.13,1.54,4.32,3,6.46,4.53a4,4,0,0,1-2.39,7.31,4,4,0,0,1-3.38-1.76c-1.36-2-2.72-3.89-4.07-5.85a2.4,2.4,0,0,0-1-.76c-.66-.37-1-1.07-1.67-1.46a2.15,2.15,0,0,0-.45.14A10.27,10.27,0,0,1,88,83.18a11.57,11.57,0,0,1,.33-2.2A10.34,10.34,0,0,1,92.22,75.46Zm-.66,1.83a9.35,9.35,0,0,0,10.65,15,5.45,5.45,0,0,1,1.14-.49c.65.44,1.11,1.11,1.72,1.61,1-.84,1.86-1.81,2.78-2.73a1.15,1.15,0,0,0,0-.19,10.54,10.54,0,0,1-1.56-1.78,9.53,9.53,0,0,0,1.39-4.81,9.36,9.36,0,0,0-16.11-6.6ZM105.8,93.87c.93,1.41,1.89,2.8,2.93,4.14a17.11,17.11,0,0,0,1.7,2.46v.1a5.49,5.49,0,0,0,1.34,1.2,3.57,3.57,0,0,0,3.27-.19,3.61,3.61,0,0,0,1.48-2,3.38,3.38,0,0,0-1.5-3.68c-.51-.37-1-.73-1.54-1.07s-1-.69-1.45-1c-.65-.46-1.29-.92-2-1.35a11.11,11.11,0,0,0-1.4-1v-.19A19.76,19.76,0,0,0,105.8,93.87Z" transform="translate(-6.88 -28.22)"/><path class="cls-6" d="M97.42,76.26a7.58,7.58,0,0,1,8.46,7.23,7.58,7.58,0,1,1-8.46-7.23ZM92.32,81h-.06a10.63,10.63,0,0,0-.47,1.55A6.67,6.67,0,0,0,94,88.83a6.78,6.78,0,0,0,4.83,1.58,6.57,6.57,0,0,0,3.88-1.7,6.21,6.21,0,0,0,1.66-2.23,6.59,6.59,0,0,0-1.66-7.63,6.29,6.29,0,0,0-2.79-1.51A6.61,6.61,0,0,0,92.32,81Z" transform="translate(-6.88 -28.22)"/><path class="cls-6" d="M107.49,93.75a2.6,2.6,0,0,1,1,1c.42.67.88,1.31,1.34,2,.69,1,1.38,2,2.11,3a1.93,1.93,0,0,0,1.37.68c.48-.17.94-.38,1.41-.59,0,.13,0,.38,0,.51a2.53,2.53,0,0,1-2.74.19c-.46-.56-.9-1.14-1.31-1.75-.57-.84-1.15-1.67-1.73-2.5A8.22,8.22,0,0,1,107.49,93.75Z" transform="translate(-6.88 -28.22)"/><path class="cls-7" d="M91.56,77.29a9.37,9.37,0,0,1,16.11,6.6,9.53,9.53,0,0,1-1.39,4.81,10.54,10.54,0,0,0,1.56,1.78,1.15,1.15,0,0,1,0,.19c-.92.92-1.79,1.89-2.78,2.73-.61-.5-1.07-1.17-1.72-1.61a5.45,5.45,0,0,0-1.14.49,9.36,9.36,0,0,1-10.65-15Zm5.86-1a7.58,7.58,0,1,0,4.82,1A7.56,7.56,0,0,0,97.42,76.26Z" transform="translate(-6.88 -28.22)"/><path class="cls-8" d="M92.32,81a6.61,6.61,0,0,1,7.6-3.63l-1.07-.12a5.91,5.91,0,0,1-.26,2.14A2.65,2.65,0,0,1,96.27,81C95,81,93.63,81,92.32,81Z" transform="translate(-6.88 -28.22)"/><path class="cls-8" d="M94,88.83a6.67,6.67,0,0,1-2.21-6.31l0,.66c1.5,0,3,0,4.5,0a2.7,2.7,0,0,1,2.56,2.6c0,1.53,0,3.07,0,4.61A6.78,6.78,0,0,1,94,88.83Z" transform="translate(-6.88 -28.22)"/><path class="cls-9" d="M98.85,77.22l1.07.12a6.29,6.29,0,0,1,2.79,1.51q0,4.94,0,9.86a6.57,6.57,0,0,1-3.88,1.7c0-1.54,0-3.08,0-4.61a2.7,2.7,0,0,0-2.56-2.6c-1.5,0-3,0-4.5,0l0-.66A10.63,10.63,0,0,1,92.26,81h.06c1.31,0,2.63,0,4,0a2.65,2.65,0,0,0,2.32-1.61A5.91,5.91,0,0,0,98.85,77.22Z" transform="translate(-6.88 -28.22)"/><g class="cls-10"><path class="cls-1" d="M102.71,78.85a6.59,6.59,0,0,1,1.66,7.63,6.21,6.21,0,0,1-1.66,2.23Q102.73,83.79,102.71,78.85Z" transform="translate(-6.88 -28.22)"/></g><path d="M14.71,87.79c15.21,0,30.42,0,45.63,0A1.47,1.47,0,0,1,62,89.24a1.42,1.42,0,0,1-1.45,1.47q-22.85,0-45.68,0a1.42,1.42,0,0,1-1.44-1.47A1.46,1.46,0,0,1,14.71,87.79Z" transform="translate(-6.88 -28.22)"/><path class="cls-1" d="M15.52,93.82a3,3,0,1,1-1.89,4.05A3,3,0,0,1,15.52,93.82Z" transform="translate(-6.88 -28.22)"/><path class="cls-1" d="M22,96.93a1.6,1.6,0,0,1,1.45-1.69q12,0,24.07,0a1.48,1.48,0,0,1,1.33,2,1.4,1.4,0,0,1-1.35.91q-12,0-24.08,0C22.7,98.19,22.26,97.52,22,96.93Z" transform="translate(-6.88 -28.22)"/><path class="cls-11" d="M105.8,93.87a19.76,19.76,0,0,1,2.84-2.58v.19a16.71,16.71,0,0,1-.13,3.24,2.6,2.6,0,0,0-1-1A8.22,8.22,0,0,0,109,96.23c-.09.59-.18,1.18-.23,1.78C107.69,96.67,106.73,95.28,105.8,93.87Z" transform="translate(-6.88 -28.22)"/><path class="cls-12" d="M108.65,91.48a11.11,11.11,0,0,1,1.4,1,23.09,23.09,0,0,1-.19,4.24c-.46-.64-.92-1.28-1.34-2A16.71,16.71,0,0,0,108.65,91.48Z" transform="translate(-6.88 -28.22)"/><path class="cls-13" d="M110.05,92.43c.68.43,1.32.89,2,1.35a38.86,38.86,0,0,1,0,5.91c-.73-1-1.42-2-2.11-3A23.09,23.09,0,0,0,110.05,92.43Z" transform="translate(-6.88 -28.22)"/><path class="cls-14" d="M112,93.78c.49.33,1,.67,1.45,1-.06,1.85.08,3.72-.13,5.57a1.93,1.93,0,0,1-1.37-.68A38.86,38.86,0,0,0,112,93.78Z" transform="translate(-6.88 -28.22)"/><path class="cls-15" d="M113.47,94.8c.52.34,1,.7,1.54,1.07-.06,1.9-.07,3.81,0,5.71a3.57,3.57,0,0,1-3.27.19l.48-.33c-.08-.32-.15-.65-.24-1a2.53,2.53,0,0,0,2.74-.19c0-.13,0-.38,0-.51-.47.21-.93.42-1.41.59C113.55,98.52,113.41,96.65,113.47,94.8Z" transform="translate(-6.88 -28.22)"/><path class="cls-16" d="M115,95.87a3.38,3.38,0,0,1,1.5,3.68,3.61,3.61,0,0,1-1.48,2C114.94,99.68,115,97.77,115,95.87Z" transform="translate(-6.88 -28.22)"/><path class="cls-17" d="M109,96.23c.58.83,1.16,1.66,1.73,2.5-.07.58-.15,1.16-.26,1.74a17.11,17.11,0,0,1-1.7-2.46C108.78,97.41,108.87,96.82,109,96.23Z" transform="translate(-6.88 -28.22)"/><path class="cls-18" d="M110.69,98.73c.41.61.85,1.19,1.31,1.75.09.31.16.64.24,1l-.48.33a5.49,5.49,0,0,1-1.34-1.2v-.1C110.54,99.89,110.62,99.31,110.69,98.73Z" transform="translate(-6.88 -28.22)"/><path class="cls-19" d="M14.51,102.73c2.53-.1,5.06,0,7.58,0H60.53A1.44,1.44,0,0,1,62,104.34a1.46,1.46,0,0,1-1.65,1.28H15a1.47,1.47,0,0,1-.5-2.89Z" transform="translate(-6.88 -28.22)"/><circle class="cls-1" cx="4.75" cy="10.34" r="0.95"/><circle class="cls-1" cx="7.46" cy="10.34" r="0.95"/><circle class="cls-1" cx="10.18" cy="10.34" r="0.95"/></svg>