<?xml version="1.0" encoding="utf-8"?>
<!-- Generator: Adobe Illustrator 26.0.0, SVG Export Plug-In . SVG Version: 6.00 Build 0)  -->
<svg version="1.1" id="Layer_1" xmlns="http://www.w3.org/2000/svg" xmlns:xlink="http://www.w3.org/1999/xlink" x="0px" y="0px"
	 viewBox="0 0 673 723" style="enable-background:new 0 0 673 723;" xml:space="preserve">
<style type="text/css">
	.st0{fill:#139DFF;}
	.st1{fill:#FAFEFD;}
	.st2{fill:#FBFEFD;}
	.st3{fill:#FFFFFF;}
	.st4{fill:#FBFEFE;}
	.st5{fill:#030305;}
	.st6{fill:#020205;}
	.st7{fill:#F9FEFE;}
	.st8{fill:#F5FFFE;}
	.st9{fill:#030309;}
	.st10{fill:#020305;}
	.st11{fill:#FEFEFE;}
	.st12{fill:#020202;}
	.st13{fill:#FDFDFD;}
</style>
<g>
	<g>
		<path d="M297.1,30.4c3.8-5.2,8.9-9.4,14.5-12.6c0.6,0,1.7,0.2,2.3,0.2c0.2,9.1,2.8,18.2,8.4,25.4c0.2-4.3-0.4-8.9,1.3-13l1.2-0.4
			c3.4,2.4,6.2,5.7,10,7.6c13.1,7,29.2,5.1,42.1,12.9c10.4,6.4,19.5,17.3,19.2,30.2c1,12.8-2.3,25.2-3.2,37.9
			c-0.4,5.7,1.1,11.3,2.3,16.9c1.4,6.2,2.9,12.3,4.9,18.4c7.8,0.7,15,4.3,21.1,9c7.1,2,14.7,1.8,21.8,4.1
			c1.6,21.4,1.6,43.1-1.8,64.3c-4.5,3.4-9.9,5.4-14.4,8.8c-0.3,0.5-0.8,1.5-1.1,2c4.8,1.9,10.1,2.5,15,4.1
			c-3.2,14.7-9.5,28.4-15.7,42c-8.3,17.6-17.4,34.8-27.8,51.2c-2.3,3.6-4.6,7.1-7.3,10.3c-15.2-16.7-28.5-35-40.1-54.2
			c-5.9-10.4-11.8-20.9-16.1-32c3.7-2.8,7.6-5.5,10.9-8.8c0-0.6,0.1-1.8,0.2-2.4c-4.3-0.3-8.5-0.8-12.8-1
			c-4.5-16.8-6.5-34.2-6.9-51.5c3.7-3.8,7.7-7.3,11.8-10.7c1.7-3.5,2.4-7.4,4.4-10.7c1.2-2.3,3.1-4.2,4-6.7c0.3-4.7-0.1-9.4-0.2-14
			c-8.3,4.7-17.7,9-27.5,7.5c-7.1-1.1-12.5-6.8-15.4-13c-6.1-12.1-6.5-26.2-6-39.5c-2.8-0.8-5.7-1.8-7.9-3.9c-1.5-2-2.5-4.9-0.9-7.1
			c2.5-3.3,6.8-4.3,10.7-4.7c1.8-6.9,3.2-13.9,5.4-20.8c-6.2-3.3-10.5-9.5-12.1-16.3C288.7,49.7,291,38.7,297.1,30.4z M306.7,77
			c-0.5,1.3-1.2,2.6-1.3,4c-1.5,4.9-2.5,9.9-3.7,14.9c1.1-0.1,2.1-0.3,3.2-0.4c2.1,0,4.2,0.1,6.3,0.2c-0.1,1-0.1,2-0.2,3
			c-7.2,0.3-15.2,0.1-21.4,4.5c0.7,5.8,7.9,5.7,12.3,6.8c0.4,0.4,1.1,1.1,1.4,1.5c-1.2,0.9-2.5,1.4-3.9,1.5
			c-0.2,7.8-0.5,15.7,1.2,23.4c1.7,9.2,5.3,19.3,13.8,24.3c4.6,1.6,9.6,1.5,14.3,0.3c11.4-2.9,20.7-10.5,30-17.2
			c0.4,0.9,0.9,1.8,1.4,2.7c-0.9,0.7-1.8,1.3-2.7,2c-0.7,9.4-3.7,18.5-8.2,26.7c0.2,5.7-0.5,11.9,2.5,17c3,5.6,9.4,9.5,15.8,8.7
			c8.8-0.5,16.2-6.4,21.5-13.1c6.9-9.4,9.6-21.8,7.9-33.2c-3-9.6-5.3-19.5-7.1-29.4c-8.9-4.2-16.1-11-23.2-17.7
			c0.9-3.3,2.3-6.7,1.8-10.2c-0.3-3.7-2.5-7.9-6.7-8.2c-3.5,0.4-5.8,3.2-8.2,5.4c-3.8-6.6-2.5-14.9-6.8-21.2c-2.1-3.3-6-5.6-10-5.3
			C325.8,68.2,317.4,77.1,306.7,77z M400.4,156.9c0.7,9.8-1,19.9-5.9,28.5c-4.5,7.7-11.3,14.4-19.8,17.3c8.5,3.2,15.6,9.3,21.2,16.4
			c1.3,0.6,1.8-1.1,2.6-1.8c11.7-14.8,19.5-33.1,20.6-52.1C413.6,161,407.2,158,400.4,156.9z M345.5,177.4c-2.3,4-4.5,8.3-5.1,13
			c1.4,11.4,5.3,22.8,12.1,32.1c0.4-7.1,4.3-13.6,9.8-18c-6.1-0.7-11.9-4.7-14.2-10.5C345.6,188.9,346.4,183,345.5,177.4z M398,223
			c-0.6,1.1-1.7,1.2-2.8,1.3c-4.2-7.3-10.7-13-18.1-16.9c-0.3,5.4-1.8,10.8-1.1,16.1c6.8,23.3,15.3,46.2,23.8,68.9
			c9.9-22.8,15.6-47.3,18.8-71.8c1-13.1,2.4-26.3,1.3-39.4C416.4,196.8,408.3,211,398,223z M355.8,228.8c-0.6,0.1-1.7,0.3-2.3,0.4
			c-3-3.5-5.6-7.4-7.9-11.4c5.1,23.5,15.6,45.2,25.7,66.8c-1-20.4-3.2-40.8-3.1-61.3c-1.8-4.8-4.4-9.4-6.5-14.1
			C356.9,214.6,355.1,221.9,355.8,228.8z"/>
	</g>
	<g>
		<path d="M446.1,167.5c20.9,4.5,41.5,13.6,56.7,29c8.2-0.2,16.4-0.6,24.6-0.9c-0.2,0.8-0.7,2.5-0.9,3.3c-6.8,0.3-13.7,0.4-20.5,1
			c1.8,2,3.5,4.1,5.3,6c0.4,0,1.3,0,1.7,0c0.2,1.1,0.4,2.2,0.6,3.3c11.1,16.5,17.1,35.9,20.9,55.2c1.9,9.6,3.7,19.3,3.6,29.2
			c0.4,19.6-4.3,39-11.3,57.2c-3.3,1-4,4.7-5.5,7.4c-6.8,13.6-15.8,26-25.2,37.9c-12,14.5-25,28.8-41.1,38.9
			c-8.5,5.5-17.5,10.3-26.7,14.5c14.8,1.6,29.5,3.6,44.3,5.1c0,0.9,0.1,2.6,0.1,3.5c-0.5,0-1.5,0-2,0c1,1.8,1.9,3.5,2.8,5.3
			c-0.9,0.1-2.6,0.3-3.5,0.4c-16.6,4.8-33,10.2-49.5,15.3c-0.7-1.1-1.4-2.2-2.1-3.2c-0.9-0.1-2.7-0.2-3.6-0.2
			c-2.8-5.9-5.9-11.8-9-17.6c-10.9,3.6-22.1,6.2-33.4,8c-1.9,0.1-4,0.7-5.6-0.5c-3.6-2.7-5.6-6.8-8-10.5c-1,1-2.3,2-2,3.6
			c0.1,4.3-0.8,8.8-4,11.9c-0.4-0.8-1.3-2.3-1.7-3.1c3.2-4.1,2.6-10,0.7-14.6c0.7-0.4,2.1-1.2,2.8-1.5c0.2,0.5,0.7,1.6,0.9,2.2
			c4.9-4.3,9.5-9,13.9-13.8c-2.2-12.2-5.7-24.1-10-35.8c-3.4-8.7-6.9-17.4-12.6-24.8c-1.6-2.5-4.9-2.6-7.6-2.1
			c-4.9,0.8-9.8,1.8-14.3,3.6c-3.8,0.9-7.8,1.1-11.6,1.8c-0.2-0.5-0.8-1.6-1-2.2c-0.7,0.3-1.3,0.7-2,1c-0.6-0.5-1.3-1-1.9-1.4
			c-5.6-35.7-8.2-72-6.6-108.2c0.7-9.7,1-19.4,1.9-29c0.7-9,4.5-17.4,8.6-25.3c-3,0.1-6,0.2-9,0.3c2.3-0.5,4.5-1.5,5.9-3.4
			c1.7-0.1,3.4-0.2,5.1-0.3c1-1.7,2.1-3.4,3.2-5.2c-6.7,0.2-13.4,0.4-20,0.7c-0.4-1-0.7-2-1-3c7-0.7,14-0.9,21-1.1
			c1.7,0.1,3.2-0.6,4.5-1.6c-0.1,17,3.1,33.8,7,50.3c3.4,0.4,6.8,0.8,10.3,1.2c-3.4,2.2-6.4,4.8-9.6,7.3
			c3.8,10.3,9.1,19.9,14.4,29.5c11.5,20.2,25.1,39.1,40.5,56.6c1.7,2.1,3.7,4,5.8,5.8c10.2-12.3,17.6-26.6,25.4-40.5
			c9.9-18.8,19.3-38,25.8-58.3c1.1-3.8,2.7-7.7,2.6-11.8c-3.7-1.9-8-2.1-11.9-3.3c3.8-2.6,8.2-4.4,11.7-7.2
			c1.7-6.2,1.7-12.7,2.2-19.1C447.7,198.6,447.6,182.9,446.1,167.5z M467.2,249.2c2.4,16.9,2,34.6-4,50.8c-6.3,17.6-19.6,32-35,42.2
			c-17.3,11.6-36.8,19.7-56.6,26c0.8,0.9,1.7,1.9,2.5,2.8c19.5-6.5,38.8-14.4,55.9-26c15.2-10,28.3-23.9,35.2-41
			c7-16.9,7.7-35.7,5.4-53.6C469.9,248.9,468.8,248.6,467.2,249.2z M348.5,375.9c2.5,2.8,4.7,5.8,6.3,9.1c8.8,17,14.4,35.6,18,54.4
			c1.6,7.5,2,15.2,1.2,22.8c6.7-1.1,13.4-2.6,20-4.3c2.1-7.8,0.2-15.8-0.9-23.6c-2.6-14.5-6.8-28.7-12.2-42.3
			c-3.1-7.4-6.4-14.8-11.3-21.1C362.7,372.8,355.6,374.6,348.5,375.9z"/>
	</g>
	<path d="M39.1,231.3c13.8,6.5,27.3,14.5,37.5,26.2c6,6.7,9.9,14.8,13.1,23.1c6.4,17.9,9.4,36.7,12.5,55.4c4.8,31,9,62,15.7,92.7
		c9.6,45.8,24.4,90.7,46.5,132.1c2.5,0.7,5.1,1.4,7.7,1.9c46.8,10.8,93.4,22.2,140.2,32.8c-0.1,1.2-0.1,2.3-0.1,3.5
		c-48.5-11.4-96.9-23-145.4-34.1c2.7,5,5.4,10.1,8.7,14.8c12.6,2.8,25.1,6.2,37.6,9.2c18.8,4.8,37.8,9.1,56.6,14.2
		c-0.1,1-0.3,1.9-0.4,2.9c-30.6-7.1-60.9-15.3-91.5-22.3c8.6,14,18.1,27.3,28.1,40.3c-16.6,7.2-32.5,15.8-48.1,25.1
		c-2-0.9-4.8-1.9-4.8-4.6c-0.3-16.1,0.1-32.2-0.2-48.3c-0.2-0.2-0.5-0.7-0.7-0.9c-19.2-0.2-38.3,0.6-57.5-0.5
		c-16.2-1.6-34.2-4.8-45-18.2C41.3,566.5,39,553,39.1,540.5C39.1,437.4,39,334.3,39.1,231.3z"/>
	<path d="M527.2,353.5c4.3,23,10,45.7,16.9,68c0.1,0.8,0.4,2.5,0.5,3.4c-21.6-1.7-43.1-4.1-64.7-5.9c6.6-6.5,12.6-13.5,18.5-20.6
		C509.5,384.5,519.8,369.8,527.2,353.5z"/>
	<path d="M119.7,423.9c10.6-1.8,21.1-3.6,31.5-6.2c0.5,0.7,1.4,2.2,1.9,2.9c-5.3,1.3-10.7,2.7-16.1,3.4
		c8.5,11.4,10.9,25.8,13.3,39.5c1.6,13.2,2.2,26.5,0.4,39.7l1.5-0.5c-1.5,1.1-2.3,2.8-2.9,4.5c-1.8,0.6-3.5,1.3-5.3,1.9
		C133.6,481.4,125.8,452.8,119.7,423.9z"/>
</g>
<g>
	<g>
		<path className="st0" d="M446.2,54.2c2-1,3.9-2.7,6.3-2.3c2-0.1,3.2,1.7,4.6,2.9c0.1,18.4,0.2,36.8,0,55.2c20.5,0.3,41,5.1,59.1,14.9
			c24.9,13.2,44.8,35.2,56,61c1.2,2.4,1.9,4.9,2.4,7.5c-15.7,0.6-31.4,1.4-47.1,2.2c-8.2,0.3-16.4,0.7-24.6,0.9
			c-15.2-15.4-35.8-24.4-56.7-29c1.5,15.5,1.6,31.1,0.2,46.5c-0.5,6.4-0.6,12.9-2.2,19.1c-3.5,2.9-7.9,4.7-11.7,7.2
			c3.9,1.2,8.2,1.4,11.9,3.3c0.1,4.1-1.6,7.9-2.6,11.8c-6.6,20.3-16,39.5-25.8,58.3c-7.8,13.9-15.2,28.2-25.4,40.5
			c-2.1-1.7-4.1-3.6-5.8-5.8c-15.3-17.5-29-36.4-40.5-56.6c-5.3-9.6-10.5-19.3-14.4-29.5c3.2-2.5,6.2-5.1,9.6-7.3
			c-3.4-0.4-6.9-0.8-10.3-1.2c-3.9-16.5-7.1-33.3-7-50.3c-1.3,1-2.8,1.8-4.5,1.6c-7,0.2-14.1,0.4-21,1.1c-3.1,1.2-5.7,3.8-6,7.3
			c-8.7,57.3-18,114.5-26.6,171.8c-8.8,1.9-17.8,3.7-25.4,8.7c-17.1,1.3-33.9,5.7-50,11.5c-12.4,4-24.5,9.2-37.2,12.1
			c-10.4,2.6-21,4.5-31.5,6.2c6.1,28.9,13.9,57.5,24.3,85.2c1.8-0.6,3.5-1.3,5.3-1.9c15.8-5.3,31.4-11.2,47.2-16.5
			c2.6,3.8,7,5,11.4,5.3c3.5,5,9.3,7.6,15.4,7.8c3.2,3.5,7.4,6.2,12.2,6.8c4.6,1,9.2-0.3,13.8-0.4c6.7,3.2,14.3,3,21.4,1.5
			c8.3-1.9,16.1-5.4,23.8-9.1c5.8,2.3,12.7,2.4,18.1-1c2.2-1.3,3.2-3.7,4.2-5.9c3.2-0.4,6.8-0.2,9.3-2.5c3.6-3.2,9-3.1,12.5-6.6
			c3.6-2.9,4.6-7.6,5.3-12c3.2-0.9,6.5-2,9-4.3c3.1-3.1,4.1-7.6,4-11.9c-0.3-1.6,1-2.5,2-3.6c2.4,3.7,4.4,7.8,8,10.5
			c1.6,1.2,3.8,0.6,5.6,0.5c11.3-1.8,22.5-4.4,33.4-8c3.1,5.8,6.1,11.7,9,17.6c1.5,3.6,4.7,6.9,4.4,11c0,1.8-1.6,2.9-3.1,3.5
			c-8.8,3.9-17.7,7.6-26.5,11.5c-4.4,2.1-5.7,7.2-5.2,11.7c23.1,3.7,46.1,7.6,69.2,11.3c10.6-5.2,21.2-10.2,31.7-15.5
			c2.4-1.2,4.9-2.2,6.7-4.1c3.6-4,4.7-10.2,2.1-15.1c-5.2-10.3-10.6-20.6-15.7-31c30.7,3.5,61.4,7.3,92.1,11c3.8,0.7,7.7,0.4,11-1.9
			c0.5,2.8,0.5,5.6,0.4,8.4c0,16.6,0,33.2,0,49.9c-0.1,18.2-3.8,36.4-11.7,52.8c-19,41.8-62.8,71.1-108.7,72c-29.3,0.1-58.7,0-88,0
			c-67.4,0.3-134.7,18.5-193,52.4c-3.2,1.7-6.1,3.9-9.3,5.4c-2.5,1.5-5.8,0.1-7-2.4c-0.5-2.4-0.4-4.8-0.4-7.2
			c0.1-14.3,0-28.7,0.1-43c-0.1-1.7,0.4-3.5-0.4-5c-2.9-0.7-6-0.2-8.9-0.5c-29.6-2.2-58.3-15.2-79.1-36.5c-11-10.8-19.8-23.9-26-38
			c10.8,13.4,28.8,16.7,45,18.2c19.1,1.1,38.3,0.3,57.5,0.5c0.2,0.2,0.5,0.6,0.7,0.9c0.2,16.1-0.1,32.2,0.2,48.3
			c0,2.6,2.8,3.7,4.8,4.6c15.5-9.3,31.5-17.9,48.1-25.1c-10-13-19.5-26.4-28.1-40.3c30.6,7.1,60.9,15.3,91.5,22.3
			c0.1-1,0.3-1.9,0.4-2.9c-18.8-5.1-37.7-9.4-56.6-14.2c-12.6-3-25-6.4-37.6-9.2c-3.2-4.7-5.9-9.8-8.7-14.8
			c48.5,11.1,97,22.7,145.4,34.1c0-1.2,0-2.4,0.1-3.5c-46.8-10.6-93.4-22-140.2-32.8c-2.6-0.6-5.1-1.2-7.7-1.9
			c-22.1-41.4-36.8-86.3-46.5-132.1C111.2,398,107,367,102.2,336c-3.1-18.7-6.2-37.5-12.5-55.4c-3.2-8.3-7.1-16.5-13.1-23.1
			c-10.1-11.6-23.6-19.7-37.5-26.2c0.6-25.1,9-50,24.1-70.2c22.6-31.4,60.7-50.9,99.4-50.9c27.3,0,54.6,0,82,0
			c14.4,0.1,28.7-0.7,43-2.2l0.7,0.6c2.2,2,5.1,3,7.9,3.9c-0.5,13.3-0.1,27.3,6,39.5c2.9,6.2,8.3,11.9,15.4,13
			c9.8,1.5,19.2-2.8,27.5-7.5c0.2,4.7,0.5,9.4,0.2,14c-0.8,2.5-2.8,4.4-4,6.7c-2.1,3.3-2.8,7.2-4.4,10.7c-4.1,3.3-8.1,6.8-11.8,10.7
			c0.4,17.4,2.3,34.7,6.9,51.5c4.3,0.3,8.6,0.7,12.8,1c0,0.6-0.1,1.8-0.2,2.4c-3.3,3.3-7.2,5.9-10.9,8.8c4.3,11.2,10.3,21.6,16.1,32
			c11.6,19.3,24.9,37.6,40.1,54.2c2.8-3.2,5.1-6.8,7.3-10.3c10.3-16.5,19.5-33.6,27.8-51.2c6.1-13.6,12.5-27.4,15.7-42
			c-5-1.6-10.2-2.2-15-4.1c0.3-0.5,0.8-1.5,1.1-2c4.5-3.3,9.9-5.3,14.4-8.8c3.4-21.2,3.5-42.9,1.8-64.3c-7.1-2.3-14.7-2.1-21.8-4.1
			c-6.1-4.7-13.3-8.4-21.1-9c-2-6-3.5-12.2-4.9-18.4c-1.2-5.5-2.7-11.1-2.3-16.9c0.8-12.7,4.2-25.2,3.2-37.9l0.2-0.5
			C413.2,72.3,430.4,64.3,446.2,54.2z M216.1,181.4c-0.4,1.5,0.1,2.6,1.4,3.1c16.4,8.1,32.7,16.3,49.1,24.2c1.8,0.6,1.5-1.7,1.7-2.7
			c-16-7.8-31.9-15.8-47.9-23.6C219.2,181.6,217.6,181.6,216.1,181.4z M227.7,228.3c1.9,1.2,4.4,1,6.6,1.4
			c10.2,0.7,20.4,2.8,30.7,2.9c-0.1-1.6-0.5-3.3-2.5-3.1c-11.5-1.3-23.1-2.8-34.6-3.8C227.9,226.4,227.8,227.7,227.7,228.3z
			 M258.7,277.6c-12.9,5.2-25.8,10.4-38.8,15.7c0.1,1,0.1,2,0.2,3.1c5-1.3,9.7-3.7,14.5-5.5c10.7-4.5,21.7-8.5,32.2-13.2
			c0.1-0.7,0.2-2.1,0.2-2.8C264.1,275,261.4,276.5,258.7,277.6z M198.1,302.5c-0.1,0.7-0.2,2-0.3,2.7c3.6,0,6.8-2.1,10-3.4
			c2-0.9,4.2-1.5,5.5-3.3c-0.4-0.3-1.3-1-1.8-1.4C206.8,298.1,202.5,300.6,198.1,302.5z M293.6,505.5
			c-24.9,11.8-49.8,23.5-74.7,35.2c0,2.4,0,4.8,0,7.3c71.9,15.2,143.7,30.5,215.6,45.8c24-13.1,47.7-26.7,71.6-39.9
			c0.2-4.5,0.2-9,0.1-13.5c-67.8-11.3-135.5-23.3-203.2-34.7C300,505.3,296.6,503.8,293.6,505.5z"/>
	</g>
	<g>
		<path className="st0" d="M306.7,77c10.8,0.1,19.1-8.8,29.8-8.9c4-0.3,7.9,2,10,5.3c4.3,6.3,3.1,14.7,6.8,21.2c2.4-2.3,4.7-5.1,8.2-5.4
			c4.2,0.3,6.4,4.5,6.7,8.2c0.5,3.5-0.9,6.8-1.8,10.2c7.1,6.6,14.4,13.5,23.2,17.7c1.7,9.9,4.1,19.8,7.1,29.4
			c1.8,11.5-1,23.8-7.9,33.2c-5.3,6.7-12.6,12.6-21.5,13.1c-6.4,0.8-12.9-3.1-15.8-8.7c-3-5.2-2.3-11.3-2.5-17
			c4.6-8.2,7.5-17.3,8.2-26.7c0.9-0.7,1.8-1.4,2.7-2c-0.4-0.9-0.9-1.8-1.4-2.7c-9.3,6.7-18.6,14.3-30,17.2
			c-4.7,1.2-9.7,1.3-14.3-0.3c-6.5-9.4-8.4-21-9.3-32.2c-0.4-5.3-0.1-10.6-0.8-15.8c-0.2-0.3-0.7-0.9-1-1.2c-0.3-0.4-1-1.1-1.4-1.5
			c-4.4-1.1-11.6-1-12.3-6.8c6.2-4.4,14.2-4.2,21.4-4.5c0.1-1,0.2-2,0.2-3c-2.1-0.1-4.2-0.2-6.3-0.2c0.2-4.8,0.3-9.7,0.5-14.6
			C305.5,79.6,306.2,78.3,306.7,77z M311.7,127.4c2,4.8,7.8,9.5,13,6.4c5.2-3.3,7.2-9.9,6.7-15.8
			C324.6,120.4,318.3,124.2,311.7,127.4z"/>
	</g>
	<path className="st0" d="M521.3,358.2c1.5-2.7,2.1-6.4,5.5-7.4c0.1,0.7,0.4,2.1,0.5,2.8c-7.4,16.2-17.8,30.9-28.8,44.9
		c-5.9,7.1-11.9,14.1-18.5,20.6c21.6,1.8,43.1,4.2,64.7,5.9c13.8,0.9,27.6,2.3,41.3,3.9c-2.1,11.2-3.8,22.5-5.9,33.7
		c-0.4,3-3.6,5.1-6.5,4.2c-33.7-4-67.4-7.9-101.1-12.1c-14.8-1.5-29.5-3.6-44.3-5.1c9.2-4.2,18.2-9,26.7-14.5
		c16.1-10.1,29.1-24.3,41.1-38.9C505.5,384.2,514.4,371.8,521.3,358.2z"/>
	<g>
		<path className="st0" d="M339.3,376.8c2.7-0.4,6-0.4,7.6,2.1c5.8,7.4,9.3,16.2,12.6,24.8c4.3,11.6,7.8,23.6,10,35.8
			c-4.4,4.8-9,9.5-13.9,13.8c-0.2-0.5-0.7-1.6-0.9-2.2c-2-3.7-5.7-7.3-10.2-6.6c-6,0-8.5,6.7-9,11.7c-3.7-3.1-8.2-7.1-13.4-5.8
			c-4.4,1.1-6,5.8-6.9,9.8c-2.4,0.2-4.9,0.3-6.8,2c-3.1,2.6-3.2,6.9-3.4,10.6c-3.8-1.8-9.5-0.6-10.9,3.7c-1.2,7.1,0.4,14.3,2.9,21
			c-4.2,2.3-8.5,4.4-12.8,6.2c-9.4,3.8-19.7,7.4-29.9,4.8c7.8-3.3,16.1-6.3,22.5-12.1c-0.6-0.4-1.6-1.1-2.2-1.5
			c-10.5,5.9-21.5,12.3-34,12.7c-4.7,0.2-9.2-1.5-13-4.2c11.9-1.8,22.8-7,33.1-13c2.1-1.4,5.2-2.5,5.3-5.5c-1.6-0.2-3.2,0.3-4.6,1.2
			c-9.9,6-20.4,11.4-31.9,13.7c-6.2,1.2-13.2,0.6-17.7-4.2c12.6-2.2,24.7-8,34.6-16.1c0.1-2.5-2.4-2.2-3.8-1
			c-9.6,6.7-20.3,12.2-32,14c-3.9,0.5-8.9,0-11-3.8c14.8-12.9,28.5-27,41.4-41.8c6.8-7.3,13.4-14.9,19.1-23.1
			c10,2,20.3,2.6,30.6,2.4c9.5-0.4,19.6-1.6,27.5-7.2c4.4-2.9,3.1-10.3-1.7-11.9c-23.2-6.6-46.8-13.2-71.1-13.2
			c5.3-2,10.8-3.6,16.3-4.6c17.1-3.3,34.5-4.9,51.7-7c3.9-0.7,7.8-0.9,11.6-1.8C329.5,378.6,334.4,377.6,339.3,376.8z M250.9,464.1
			c0.9,2.6,3.1,4.2,5.1,5.9c9.3,7.6,20.7,12.7,32.6,14.4c1.3,0.2,2.6,0.2,3.9-0.1c-0.2-1-0.4-2-0.5-3c-13.9-1-27.2-7.4-37.3-16.9
			C253.6,463.1,252.1,464,250.9,464.1z"/>
	</g>
	<path className="st0" d="M228.9,408.2c9.7-2.1,19.7-2.5,29.5-2.2c19.9,0.5,39.3,5.8,59.1,7.8c-0.5,1.3-1.3,2.6-2.5,3.3
		c-3.9,2.5-8.5,3.9-13.1,4.7c-14.4,2.4-29.3,1.3-43.6-1.6c-6.2,9-13.3,17.4-20.8,25.3c-12.5,14.8-26.3,28.4-40.7,41.3
		c-6.1,2.6-12.6,4.6-18.9,6.8c2.2-10.9,1.9-22.1,0.4-33.1c-1.2-11.6-3.5-23.1-8.2-33.8C189.4,419.4,208.9,412.6,228.9,408.2z"/>
	<path className="st0" d="M339.6,452.5c0.7-2.6,3-5.1,5.9-4.7c3,0,4.8,2.8,6.4,4.9c1.9,4.5,2.5,10.5-0.7,14.6c-2.1,2.3-5,3.4-7.8,4.3
		c-0.9-3.5-2.3-6.8-4-9.9C337.6,458.9,338.8,455.4,339.6,452.5z"/>
	<path className="st0" d="M318.8,462.6c-0.6-3.3,0.4-7.4,3.7-8.7c1.8-0.3,3.9-0.1,5.4,1c5.9,3.7,10.3,9.8,11.8,16.6
		c0.5,3.4,0.6,7.1-1.2,10.1c-1.7,3.2-5.1,4.8-8.4,5.7C330.6,478,326.5,468.1,318.8,462.6z"/>
	<path className="st0" d="M420.4,479c16.5-5.1,32.9-10.5,49.5-15.3c4.9,9.9,10.2,19.6,15,29.6c0.9,1.4,0.2,3.1,0,4.6
		c-20.9-3.2-41.8-6.1-62.7-9.1C423.2,485.4,422.1,482,420.4,479z"/>
	<path className="st0" d="M309.1,466c0.7-0.7,1.4-1.4,2.1-2.1c4.8-0.9,8.4,3.1,10.8,6.7c3.1,5,5.7,11,4.5,16.9c-1.3,4-6.1,5.1-9.8,4.9
		c-1.4-5.9-3.6-11.9-7.8-16.4C308.3,472.7,308.4,469.3,309.1,466z"/>
	<path className="st0" d="M297.2,477.2c0.9-1.5,2.8-1.9,4.5-2c4.7,1.3,7.4,5.9,9.2,10.1c1.5,3.6,3.4,7.6,2,11.5
		c-3.2,4.6-9.5,4.2-14.4,3.9c0.9-0.7,1.7-1.3,2.6-1.9C298,492.1,296.2,484.6,297.2,477.2z"/>
</g>
<g>
	<path className="st1" d="M301.7,95.9c1.1-5,2.1-10,3.7-14.9c-0.1,4.8-0.3,9.7-0.5,14.6C303.8,95.7,302.8,95.8,301.7,95.9z"/>
</g>
<g>
	<path className="st0" d="M529,85.8c1,0.2,2.1,0.3,3.1,0.5c-4,8.1-9.8,15.3-14.4,23.1c-0.7-0.4-2.1-1.3-2.8-1.8
		C519.7,100.4,524.5,93.2,529,85.8z"/>
</g>
<g>
	<path className="st0" d="M566,92.1c2.6-1.9,5-4.2,7.9-5.5c0.4,0.8,0.8,1.7,1.3,2.6c-15.4,12-30.8,23.9-46.1,36
		c-0.6-0.9-1.2-1.8-1.9-2.7C540,112.2,553.3,102.5,566,92.1z"/>
</g>
<g>
	<path className="st2" d="M299.3,113.1c1.5-0.1,2.8-0.6,3.9-1.5c0.2,0.3,0.7,0.9,1,1.2c0.7,5.2,0.4,10.6,0.8,15.8
		c0.9,11.2,2.9,22.7,9.3,32.2c-8.6-5-12.2-15-13.8-24.3C298.9,128.8,299.1,120.9,299.3,113.1z"/>
</g>
<g>
	<path className="st3" d="M311.7,127.4c6.6-3.2,12.8-7,19.7-9.5c0.5,5.9-1.6,12.5-6.7,15.8C319.5,136.8,313.7,132.1,311.7,127.4z"/>
	<path className="st3" d="M400.4,156.9c6.9,1,13.2,4.1,18.7,8.4c-1.1,19-8.9,37.2-20.6,52.1c-0.7,0.7-1.3,2.4-2.6,1.8
		c-5.6-7.1-12.7-13.2-21.2-16.4c8.5-3,15.4-9.6,19.8-17.3C399.3,176.9,401.1,166.7,400.4,156.9z"/>
	<path className="st3" d="M345.5,177.4c0.8,5.6,0.1,11.5,2.7,16.7c2.3,5.8,8.1,9.8,14.2,10.5c-5.5,4.4-9.4,10.9-9.8,18
		c-6.9-9.3-10.7-20.7-12.1-32.1C341,185.7,343.2,181.4,345.5,177.4z"/>
	<path className="st3" d="M398,223c10.4-11.9,18.4-26.2,21.9-41.7c1.1,13.1-0.3,26.3-1.3,39.4c-3.2,24.6-8.9,49.1-18.8,71.8
		c-8.6-22.8-17-45.6-23.8-68.9c-0.6-5.4,0.9-10.8,1.1-16.1c7.4,3.9,13.9,9.6,18.1,16.9C396.2,224.2,397.4,224,398,223z"/>
	<path className="st3" d="M586.4,206.3c12.6-0.7,25.1-1.1,37.7-1.4c-12.5,73.5-25,146.9-37.6,220.4c-14.1-1-28.2-2.8-42.3-3.7
		c-6.9-22.3-12.7-45-16.9-68c-0.1-0.7-0.4-2.1-0.5-2.8c7-18.2,11.8-37.6,11.3-57.2c0.1-9.8-1.7-19.6-3.6-29.2
		c-3.8-19.4-9.8-38.7-20.9-55.2c9.3-0.3,18.6-0.5,27.9-1.1C556.4,207.1,571.4,207.2,586.4,206.3z"/>
	<path className="st3" d="M355.8,228.8c-0.7-7,1.1-14.2,5.9-19.4c2.1,4.7,4.7,9.2,6.5,14.1c-0.1,20.5,2.1,40.9,3.1,61.3
		c-10.1-21.6-20.6-43.4-25.7-66.8c2.3,4,4.9,7.8,7.9,11.4C354.1,229.1,355.2,228.9,355.8,228.8z"/>
	<path className="st3" d="M293.2,218c3.4-0.2,6.7-0.4,10.1-0.6c3-0.1,6-0.2,9-0.3c-4.1,7.9-7.9,16.3-8.6,25.3c-0.9,9.7-1.2,19.3-1.9,29
		c-1.6,36.2,1,72.5,6.6,108.2c-13.8,1.3-27.6,3-41.3,5.2C275.9,329.3,284.4,273.6,293.2,218z"/>
	<path className="st3" d="M348.5,375.9c7.2-1.4,14.3-3.2,21.3-5c4.9,6.4,8.2,13.8,11.3,21.1c5.4,13.7,9.5,27.9,12.2,42.3
		c1,7.8,2.9,15.9,0.9,23.6c-6.6,1.7-13.3,3.1-20,4.3c0.7-7.6,0.3-15.3-1.2-22.8c-3.6-18.8-9.2-37.4-18-54.4
		C353.1,381.7,350.9,378.7,348.5,375.9z"/>
	<path className="st3" d="M218.6,400.1c16.4-3.5,33.4-3.5,49.9-1.2c15.8,2.4,31.2,6.9,46.5,11.2c1.8,0.2,2,2.2,2.5,3.6
		c-19.8-2-39.2-7.2-59.1-7.8c-9.9-0.3-19.8,0.1-29.5,2.2c-20.1,4.5-39.5,11.2-58.7,18.5c-1.7-3.4-3.6-6.7-6.5-9.2
		C182.1,411.7,199.8,404,218.6,400.1z"/>
	<path className="st3" d="M153.1,420.5c2.4-0.6,4.9-1.5,7.4-1.5c3.3,2.3,5.4,6,7,9.6c5,11.3,6.8,23.7,8.2,35.9
		c0.4,10.1,1.3,20.6-1.6,30.4c-7.3,2.5-14.6,5.3-21.9,7.6l-1.5,0.5c1.8-13.2,1.2-26.6-0.4-39.7c-2.4-13.7-4.8-28.1-13.3-39.5
		C142.4,423.2,147.8,421.9,153.1,420.5z"/>
	<path className="st3" d="M418,492.9c1.9-0.7,3.1-2.5,4.1-4.1c20.9,3,41.8,5.9,62.7,9.1c-4.4,3.4-9.7,5-14.5,7.6
		c-5.2,2.3-10.1,5.4-15.6,7.1c-4.7,1.6-9.5-0.3-14.2-0.7c-16.1-2.6-32.2-4.9-48.2-7.9C400.9,500.3,409.5,496.6,418,492.9z"/>
	<path className="st3" d="M411,544.4c4.5-2.3,9-4.5,13.6-6.4c7.3,0.7,14.5,2.7,21.8,3.6c-3.9,2.2-8.1,3.9-12.1,6
		c-2.1,1.3-4.6,0.2-6.8-0.1C422,546.5,416.6,545,411,544.4z"/>
</g>
<g>
	<path className="st4" d="M216.1,181.4c1.5,0.1,3.1,0.2,4.4,0.9c16,7.8,31.9,15.8,47.9,23.6c-0.2,1,0.1,3.3-1.7,2.7
		c-16.5-7.9-32.8-16.1-49.1-24.2C216.2,184,215.7,183,216.1,181.4z"/>
	<path className="st4" d="M258.7,277.6c2.7-1.1,5.4-2.5,8.4-2.8c-0.1,0.7-0.2,2.1-0.2,2.8c-10.6,4.8-21.5,8.7-32.2,13.2
		c-4.9,1.8-9.5,4.2-14.5,5.5c0-1-0.1-2.1-0.2-3.1C232.8,288,245.7,282.8,258.7,277.6z"/>
</g>
<g>
	<g>
		<path className="st5" d="M574.5,193.4c12.3-0.5,24.7-1.4,37-1.6c3.7,0,7.5-0.9,11.1,0.1c3.3,1,4.7,4.5,6.8,6.9
			c2.2,3.1,5.2,5.8,6.3,9.5c0.5,2.8-0.4,5.4-0.8,8.1c-13.6,79.4-27.1,158.8-40.7,238.2c-0.3,3.4-1.4,7-4.3,9.2
			c-2.6,1.7-5.7,2.7-8.4,4.3c-3.2,2.2-7.2,2.6-11,1.9c-30.7-3.7-61.4-7.5-92.1-11c5.1,10.4,10.5,20.6,15.7,31
			c2.7,4.8,1.5,11-2.1,15.1c-1.8,2-4.3,3-6.7,4.1c-10.5,5.2-21.1,10.3-31.7,15.5c-23.1-3.7-46.1-7.6-69.2-11.3
			c-0.4-4.5,0.9-9.6,5.2-11.7c8.8-3.9,17.7-7.6,26.5-11.5c1.5-0.6,3.1-1.7,3.1-3.5c0.3-4.2-2.9-7.4-4.4-11c0.9,0.1,2.7,0.2,3.6,0.2
			c0.7,1.1,1.4,2.1,2.1,3.2c1.7,3,2.8,6.4,1.7,9.8c-1.1,1.6-2.2,3.4-4.1,4.1c-8.6,3.7-17.1,7.4-25.7,11.2c16,3,32.1,5.2,48.2,7.9
			c4.7,0.4,9.5,2.3,14.2,0.7c5.5-1.7,10.4-4.8,15.6-7.1c4.8-2.6,10.1-4.3,14.5-7.6c0.3-1.5,0.9-3.2,0-4.6c-4.8-10-10.1-19.7-15-29.6
			c0.9-0.1,2.6-0.3,3.5-0.4c3.5,7.2,7.3,14.2,10.8,21.4c1.8,3.7,4.8,7.3,4.2,11.7c-0.2,2.8-2.3,5-4.7,6.2c-8,4.1-16.3,7.5-24.1,12
			c-2,1.1-3.1,3.2-4,5.2c9.9-4.8,19.8-9.5,29.6-14.4c3.3-1.5,6.4-4.3,6.8-8.1c0.8-4.6-2.3-8.4-4.2-12.3c-4.2-8.4-8.4-16.9-12.8-25.2
			c-0.4-1.1-1.4-1.7-2.5-1.8c0-0.9-0.1-2.6-0.1-3.5c33.7,4.2,67.4,8.1,101.1,12.1c2.9,0.9,6.1-1.2,6.5-4.2
			c2.1-11.2,3.8-22.5,5.9-33.7c-13.8-1.5-27.5-2.9-41.3-3.9c-0.1-0.9-0.4-2.5-0.5-3.4c14.1,0.9,28.2,2.7,42.3,3.7
			c12.6-73.5,25.1-146.9,37.6-220.4c-12.6,0.3-25.2,0.7-37.7,1.4c-15,0.9-30,0.8-44.9,1.8c-9.3,0.6-18.6,0.8-27.9,1.1
			c-0.2-1.1-0.4-2.2-0.6-3.3c14.8-0.8,29.7-0.8,44.5-1.7c12.3-0.7,24.7-0.9,37.1-1.4c10.1-0.3,20.2-1.2,30.3-1.1
			c0.7-3.5-1.9-7.5-5.8-6.9c-30.9,1.4-61.7,2.7-92.6,4.2c0.2-0.8,0.7-2.5,0.9-3.3C543.1,194.7,558.8,194,574.5,193.4z M627.9,202.2
			c-12.3,72-24.5,144.1-36.9,216.1c-2.2,15.1-5.4,30-7.5,45.1c2.3-1.2,5.1-2.1,6.3-4.6c1-3.7,1.6-7.4,2.2-11.2
			c13.4-78.4,26.8-156.7,40.2-235.1C633.5,208.3,630.3,205.2,627.9,202.2z M388.3,506.8c-0.2,1.2-0.3,2.4-0.5,3.6
			c21.3,3.8,42.8,7.1,64.1,10.7c0.5-1.6,1-3.1,1.5-4.7c-7.8,0.5-15.4-1.8-23.1-2.6C416.4,511.1,402.2,509.5,388.3,506.8z"/>
	</g>
</g>
<g>
	<path className="st0" d="M619.1,194.6c3.9-0.6,6.5,3.4,5.8,6.9c-10.1-0.1-20.2,0.8-30.3,1.1c-12.3,0.6-24.7,0.7-37.1,1.4
		c-14.8,0.9-29.7,0.9-44.5,1.7c-0.4,0-1.2,0-1.7,0c-1.9-1.9-3.6-4-5.3-6c6.8-0.6,13.7-0.6,20.5-1C557.3,197.4,588.2,196,619.1,194.6
		z"/>
	<path className="st0" d="M627.9,202.2c2.4,3,5.6,6.1,4.3,10.3c-13.4,78.3-26.8,156.7-40.2,235.1c-0.6,3.8-1.2,7.5-2.2,11.2
		c-1.2,2.5-4,3.5-6.3,4.6c2.1-15.1,5.3-30,7.5-45.1C603.4,346.4,615.6,274.3,627.9,202.2z"/>
	<path className="st0" d="M297.5,209.2c6.7-0.2,13.3-0.5,20-0.7c-1.1,1.7-2.1,3.4-3.2,5.2c-1.7,0.1-3.4,0.2-5.1,0.3
		c-5.2,0.2-10.5,0.6-15.7,0.7C293.9,212.3,295.3,210.3,297.5,209.2z"/>
</g>
<g>
	<g>
		<path className="st6" d="M290.5,213.5c0.3-3.4,2.9-6.1,6-7.3c0.3,1,0.7,2,1,3c-2.2,1.1-3.6,3.1-4.1,5.5c5.2-0.1,10.5-0.4,15.7-0.7
			c-1.5,1.9-3.6,2.9-5.9,3.4c-3.4,0.2-6.7,0.3-10.1,0.6c-8.8,55.6-17.3,111.3-26.1,166.9c13.7-2.3,27.5-3.9,41.3-5.2
			c0.6,0.5,1.3,1,1.9,1.4c0.7-0.4,1.3-0.7,2-1c0.2,0.5,0.8,1.6,1,2.2c-17.3,2.1-34.6,3.7-51.7,7c-5.6,1-11,2.6-16.3,4.6
			c24.3-0.1,47.9,6.5,71.1,13.2c4.9,1.6,6.1,9,1.7,11.9c-7.9,5.6-18.1,6.8-27.5,7.2c-10.2,0.2-20.5-0.3-30.6-2.4
			c-5.7,8.2-12.3,15.8-19.1,23.1c-12.9,14.8-26.6,28.9-41.4,41.8c2.2,3.8,7.1,4.3,11,3.8c11.7-1.7,22.4-7.2,32-14
			c1.3-1.2,3.9-1.4,3.8,1c-9.9,8.1-21.9,13.9-34.6,16.1c4.5,4.8,11.5,5.4,17.7,4.2c11.4-2.3,22-7.6,31.9-13.7c1.3-1,2.9-1.4,4.6-1.2
			c-0.1,3.1-3.1,4.1-5.3,5.5c-10.3,5.9-21.2,11.2-33.1,13c3.8,2.7,8.3,4.5,13,4.2c12.4-0.4,23.4-6.8,34-12.7
			c0.6,0.4,1.6,1.1,2.2,1.5c-6.4,5.8-14.6,8.8-22.5,12.1c10.2,2.6,20.5-1,29.9-4.8c4.4-1.9,8.7-3.9,12.8-6.2
			c-2.5-6.7-4.1-13.9-2.9-21c1.4-4.3,7.1-5.6,10.9-3.7c0.2-3.7,0.3-8,3.4-10.6c1.9-1.7,4.4-1.8,6.8-2c0.9-4,2.5-8.6,6.9-9.8
			c5.2-1.3,9.7,2.7,13.4,5.8c0.5-5,3-11.7,9-11.7c4.6-0.7,8.2,2.9,10.2,6.6c-0.7,0.4-2.1,1.1-2.8,1.5c-1.6-2.2-3.4-4.9-6.4-4.9
			c-2.9-0.4-5.2,2.1-5.9,4.7c-0.8,2.9-2,6.4-0.2,9.2c1.8,3.1,3.1,6.5,4,9.9c2.9-0.9,5.7-2,7.8-4.3c0.4,0.8,1.3,2.3,1.7,3.1
			c-2.5,2.3-5.8,3.4-9,4.3c-0.6,4.4-1.6,9.1-5.3,12c-3.5,3.4-8.9,3.3-12.5,6.6c-2.6,2.3-6.1,2.1-9.3,2.5c-0.9,2.2-2,4.6-4.2,5.9
			c-5.4,3.4-12.3,3.3-18.1,1c-7.7,3.6-15.5,7.2-23.8,9.1c-7.1,1.4-14.7,1.6-21.4-1.5c-4.6,0.1-9.2,1.4-13.8,0.4
			c-4.8-0.6-9-3.3-12.2-6.8c-6-0.2-11.9-2.8-15.4-7.8c-4.3-0.3-8.8-1.5-11.4-5.3c-15.8,5.3-31.4,11.2-47.2,16.5
			c0.6-1.7,1.4-3.4,2.9-4.5c7.4-2.4,14.6-5.1,21.9-7.6c2.9-9.9,1.9-20.3,1.6-30.4c-1.4-12.2-3.2-24.6-8.2-35.9
			c-1.6-3.6-3.7-7.3-7-9.6c-2.5,0-5,0.9-7.4,1.5c-0.5-0.7-1.4-2.2-1.9-2.9c12.8-2.9,24.8-8.1,37.2-12.1c16.1-5.9,32.8-10.3,50-11.5
			c7.7-4.9,16.7-6.8,25.4-8.7C272.5,328,281.7,270.8,290.5,213.5z M218.6,400.1c-18.8,3.9-36.6,11.6-54.9,17.4
			c2.9,2.5,4.8,5.8,6.5,9.2c4.7,10.7,7,22.2,8.2,33.8c1.5,11,1.8,22.2-0.4,33.1c6.3-2.2,12.7-4.2,18.9-6.8
			c14.4-12.9,28.2-26.5,40.7-41.3c7.5-7.9,14.6-16.3,20.8-25.3c14.3,2.9,29.1,4,43.6,1.6c4.6-0.8,9.1-2.2,13.1-4.7
			c1.3-0.7,2-2,2.5-3.3c-0.5-1.4-0.8-3.3-2.5-3.6c-15.4-4.3-30.7-8.8-46.5-11.2C252,396.6,235,396.7,218.6,400.1z M318.8,462.6
			c7.7,5.5,11.8,15.4,11.3,24.7c3.3-1,6.7-2.6,8.4-5.7c1.9-3,1.8-6.7,1.2-10.1c-1.6-6.8-5.9-12.9-11.8-16.6c-1.6-1-3.6-1.3-5.4-1
			C319.2,455.2,318.2,459.3,318.8,462.6z M309.1,466c-0.8,3.3-0.9,6.7-0.2,10c4.2,4.5,6.4,10.5,7.8,16.4c3.7,0.3,8.5-0.9,9.8-4.9
			c1.2-6-1.3-12-4.5-16.9c-2.4-3.6-6-7.6-10.8-6.7C310.6,464.6,309.9,465.3,309.1,466z M297.2,477.2c-1,7.4,0.8,14.9,3.8,21.6
			c-0.9,0.6-1.8,1.3-2.6,1.9c5,0.3,11.3,0.8,14.4-3.9c1.5-3.9-0.5-7.9-2-11.5c-1.9-4.2-4.5-8.8-9.2-10.1
			C300,475.3,298.1,475.7,297.2,477.2z"/>
	</g>
</g>
<g>
	<path className="st7" d="M227.7,228.3c0.1-0.6,0.2-1.9,0.2-2.5c11.6,1,23.1,2.4,34.6,3.8c2-0.2,2.4,1.6,2.5,3.1
		c-10.3-0.2-20.4-2.2-30.7-2.9C232.2,229.3,229.7,229.6,227.7,228.3z"/>
</g>
<g>
	<path className="st0" d="M467.2,249.2c1.6-0.6,2.7-0.3,3.4,1.1c2.2,17.9,1.6,36.7-5.4,53.6c-6.9,17.1-20,31-35.2,41
		c-17.1,11.6-36.4,19.5-55.9,26c-0.8-0.9-1.7-1.9-2.5-2.8c19.8-6.3,39.3-14.4,56.6-26c15.4-10.2,28.7-24.6,35-42.2
		C469.1,283.8,469.5,266.1,467.2,249.2z"/>
</g>
<g>
	<path className="st8" d="M198.1,302.5c4.4-1.9,8.7-4.4,13.5-5.3c0.4,0.3,1.3,1,1.8,1.4c-1.4,1.8-3.6,2.4-5.5,3.3
		c-3.3,1.3-6.4,3.3-10,3.4C197.8,304.5,198,303.2,198.1,302.5z"/>
</g>
<g>
	<path className="st0" d="M470.6,458.1c0.5,0,1.5,0,2,0c1.1,0.1,2.1,0.7,2.5,1.8c4.4,8.3,8.6,16.8,12.8,25.2c1.9,3.9,5,7.7,4.2,12.3
		c-0.3,3.8-3.5,6.6-6.8,8.1c-9.9,4.8-19.8,9.6-29.6,14.4c1-2,2-4.1,4-5.2c7.8-4.5,16.1-7.9,24.1-12c2.4-1.2,4.5-3.5,4.7-6.2
		c0.6-4.4-2.5-8-4.2-11.7c-3.5-7.2-7.3-14.2-10.8-21.4C472.5,461.6,471.6,459.8,470.6,458.1z"/>
</g>
<g>
	<path className="st9" d="M250.9,464.1c1.2-0.1,2.8-1,3.7,0.3c10.1,9.5,23.4,15.9,37.3,16.9c0.1,1,0.3,2,0.5,3c-1.3,0.2-2.6,0.3-3.9,0.1
		c-11.9-1.7-23.3-6.8-32.6-14.4C254,468.3,251.7,466.7,250.9,464.1z"/>
</g>
<g>
	<g>
		<path className="st10" d="M293.6,505.5c3-1.7,6.4-0.2,9.5,0.2c67.8,11.5,135.4,23.4,203.2,34.7c0.1,4.5,0.1,9-0.1,13.5
			c-24,13.2-47.7,26.8-71.6,39.9C362.7,578.5,290.9,563.1,219,548c0-2.4,0-4.8,0-7.3C243.8,529,268.8,517.3,293.6,505.5z
			 M258.1,525.9c-10.8,4.9-21.3,10.5-32.3,14.9c0.8,0.2,2.4,0.8,3.2,1c66.5,13.7,133.1,27.2,199.6,41c2.1,0.2,4.4,1.6,6.5,0.5
			c21.7-13.3,43.1-27.1,64.9-40.1c-3.2-0.8-6.4-1.6-9.6-2c-64.7-11-129.3-22.3-193.9-33.1C283.5,513.5,270.9,520.1,258.1,525.9z
			 M222.1,543.8c0.1,0.3,0.3,0.9,0.4,1.2c2.6,0.9,5.2,1.4,7.9,1.9c64.1,13.6,128.2,27.3,192.4,40.9c3.9,0.8,7.8,2.1,11.9,2.2
			c22.9-12.6,45.6-25.6,68.5-38.3c0-2.3,0.1-4.7,0.1-7c-21.4,13.5-42.8,26.7-64.3,40c-1.7,0.9-3.3,2.9-5.5,2.2
			C363,572.7,292.5,558.1,222.1,543.8z"/>
	</g>
</g>
<g>
	<path className="st0" d="M388.3,506.8c13.9,2.8,28.1,4.4,42,7c7.7,0.8,15.3,3.1,23.1,2.6c-0.5,1.6-1,3.1-1.5,4.7
		c-21.4-3.6-42.8-6.9-64.1-10.7C388,509.2,388.1,508,388.3,506.8z"/>
</g>
<g>
	<g>
		<path className="st11" d="M258.1,525.9c12.9-5.8,25.4-12.4,38.4-17.9c64.7,10.8,129.3,22.2,193.9,33.1c3.2,0.4,6.4,1.2,9.6,2
			c-21.8,13.1-43.2,26.8-64.9,40.1c-2.1,1-4.4-0.3-6.5-0.5c-66.5-13.7-133.1-27.3-199.6-41c-0.8-0.2-2.4-0.8-3.2-1
			C236.8,536.4,247.3,530.8,258.1,525.9z M300.9,512c-0.1,1.2-0.2,2.4-0.3,3.6c6.1,0.4,12,2.4,18.1,2.9c-4.1,1.9-8.1,4-12.3,5.8
			c-7.6-0.6-15-3-22.6-3.8c-0.1,1-0.1,2.1-0.2,3.2c2.1,0.3,4.1,0.8,6.2,1.4c-4.4,1.3-8.2,3.8-12.4,5.6c-3.7-0.6-7.3-1.9-11-1.6
			c-0.1,0.7-0.3,2.1-0.4,2.8c5.8,1.2,11.7,2.2,17.5,3.6c-4.2,1.8-8.2,4-12.4,5.8c-7.3-1.1-14.4-3.1-21.7-4.2
			c-0.1,0.8-0.3,2.5-0.4,3.3c21.9,4,43.6,8.9,65.4,13.3c35.5,7.4,71,14.5,106.5,22c0.2-0.8,0.7-2.5,1-3.3
			c-7.5-1.6-15.1-2.9-22.5-4.8c4.8-2,9.3-4.4,14.1-6.4c9.2,1.4,18.3,3.6,27.5,5.2c0.1-1.1,0.3-2.2,0.5-3.3c-3.1-0.6-6.2-1.2-9.3-1.7
			c5-1.9,9.5-4.8,14.5-6.6c4.8-0.2,9.4,1.7,14.2,2.1c0.1-0.9,0.2-2.7,0.2-3.5c-7.7-0.8-15.2-2.7-22.8-4c4.7-2.2,9.4-5,14.4-6.5
			c9.4,1.1,18.6,3.9,28,4.5c0.1-0.7,0.2-2,0.3-2.6c-3-0.9-6.1-1.5-9.2-1.9C414.7,532.5,357.8,522.5,300.9,512z"/>
	</g>
	<path className="st11" d="M283.2,531.8c4-1.9,7.9-4.5,12.1-5.8c5.7,1,11.5,1.9,17.1,3.3c-4.3,1.9-8.4,4.6-12.9,5.9
		C294.1,533.9,288.6,533.2,283.2,531.8z"/>
	<path className="st11" d="M360.3,534.8c3.5-2.9,8-4.2,12-6.2c6.8,0.6,13.5,2.2,20.2,3.5c-4.4,1.8-8.4,4.4-12.9,6
		C373.1,537.5,366.8,535.7,360.3,534.8z"/>
	<path className="st11" d="M396.7,533.7c2.2-1.2,4.6-0.1,6.9,0.2c5.2,1.2,10.6,1.6,15.7,3.2c-4.9,1.4-9.2,4.4-14,6
		c-6.6-1.1-13.3-2.2-19.9-3.9C389.1,537.2,393,535.6,396.7,533.7z"/>
	<path className="st11" d="M277.4,542.7c3.2-2.6,7.2-4.1,11-5.8c6.2-0.1,12.2,2.3,18.4,3c-3.9,2.2-8.1,4.1-12.2,6
		C288.7,545.4,283.1,543.5,277.4,542.7z"/>
	<path className="st11" d="M299.6,546.8c4.6-1.3,8.4-4.3,12.8-5.7c6.2,1.2,12.4,2.2,18.5,3.8c-4.6,1.6-8.8,4.2-13.3,5.9
		C311.6,549.6,305.5,548.7,299.6,546.8z"/>
	<path className="st11" d="M379.1,550.7c4.4-2.2,8.9-4.3,13.3-6.4c7.2,1.1,14.2,2.5,21.3,3.9c-4.7,2.2-9.3,4.5-14,6.5
		C392.8,553.8,385.9,552.1,379.1,550.7z"/>
	<path className="st11" d="M373.3,561.8c4.7-1.6,9-4,13.6-6.1c7,1.3,14,2.6,20.9,4.1c-4,2.2-8.1,4-12.2,5.9c-2.3,1.2-4.8,0.2-7.2-0.2
		C383.5,564.2,378.2,563.8,373.3,561.8z"/>
</g>
<g>
	<g>
		<path className="st12" d="M300.9,512c56.8,10.5,113.8,20.5,170.7,30.8c3.1,0.4,6.2,1,9.2,1.9c-0.1,0.7-0.2,2-0.3,2.6
			c-9.5-0.5-18.6-3.4-28-4.5c-5,1.5-9.6,4.3-14.4,6.5c7.6,1.3,15.1,3.1,22.8,4c0,0.9-0.1,2.7-0.2,3.5c-4.8-0.4-9.4-2.4-14.2-2.1
			c-5,1.9-9.5,4.7-14.5,6.6c3.1,0.5,6.2,1.1,9.3,1.7c-0.2,1.1-0.3,2.2-0.5,3.3c-9.2-1.7-18.3-3.8-27.5-5.2c-4.8,2-9.3,4.4-14.1,6.4
			c7.4,2,15,3.2,22.5,4.8c-0.2,0.8-0.7,2.5-1,3.3c-35.5-7.5-71-14.6-106.5-22c-21.8-4.3-43.5-9.2-65.4-13.3c0.1-0.8,0.3-2.5,0.4-3.3
			c7.3,1.1,14.4,3.1,21.7,4.2c4.2-1.7,8.2-3.9,12.4-5.8c-5.8-1.4-11.7-2.4-17.5-3.6c0.1-0.7,0.3-2.1,0.4-2.8c3.7-0.2,7.4,1.1,11,1.6
			c4.1-1.8,8-4.3,12.4-5.6c-2-0.6-4.1-1.1-6.2-1.4c0.1-1.1,0.1-2.1,0.2-3.2c7.6,0.8,15,3.1,22.6,3.8c4.2-1.8,8.2-3.9,12.3-5.8
			c-6.1-0.5-12-2.5-18.1-2.9C300.8,514.4,300.8,513.2,300.9,512z M311.9,525.6c5.8,1.2,11.8,2.1,17.6,3.5c4.5-1.8,8.7-4.2,13.2-5.9
			c-6.1-1.2-12.2-2.5-18.3-3.3C320,521.1,316,523.7,311.9,525.6z M335.3,529.9c4.7,1.1,9.4,1.8,14.1,2.8c2.1,0.3,4.5,1.1,6.5,0
			c3.5-1.7,7.2-3.3,10.6-5.2c-5.9-1.6-12.1-2.3-18.1-3.5C343.9,525.6,339.8,528.2,335.3,529.9z M283.2,531.8
			c5.4,1.4,10.9,2.2,16.3,3.4c4.5-1.3,8.6-4,12.9-5.9c-5.6-1.4-11.4-2.3-17.1-3.3C291.1,527.3,287.3,529.8,283.2,531.8z
			 M360.3,534.8c6.5,0.9,12.8,2.7,19.3,3.3c4.4-1.6,8.5-4.2,12.9-6c-6.7-1.2-13.4-2.9-20.2-3.5C368.3,530.6,363.8,531.9,360.3,534.8
			z M305.4,536.4c6.2,0.9,12.2,2.5,18.4,3.3c4.3-2,8.6-3.8,12.7-6.2c-6.1-1-12.2-2.2-18.3-3.4C314,532.3,309.7,534.2,305.4,536.4z
			 M396.7,533.7c-3.7,1.9-7.6,3.5-11.3,5.5c6.5,1.7,13.2,2.7,19.9,3.9c4.8-1.6,9.1-4.6,14-6c-5.1-1.7-10.5-2-15.7-3.2
			C401.3,533.5,398.9,532.5,396.7,533.7z M329.4,540.9c6,1.3,12,2.4,18,3.7c4.9-1.4,9.4-4.2,14-6.4c-6.3-1.2-12.6-2.5-19-3.4
			C338,536.4,333.7,538.8,329.4,540.9z M277.4,542.7c5.8,0.8,11.4,2.8,17.2,3.2c4.1-1.9,8.2-3.8,12.2-6c-6.2-0.7-12.2-3.1-18.4-3
			C284.6,538.6,280.6,540.1,277.4,542.7z M411,544.4c5.6,0.7,11,2.1,16.5,3c2.2,0.3,4.6,1.4,6.8,0.1c4-2.1,8.2-3.8,12.1-6
			c-7.3-0.9-14.5-2.9-21.8-3.6C420,539.9,415.5,542.1,411,544.4z M353.5,545.8c6.6,1.2,13.2,3,19.9,3.7c4.6-1.6,8.9-4,13.3-6.1
			c-6.3-1.7-12.9-2.4-19.2-4C362.7,541.1,358.3,543.8,353.5,545.8z M299.6,546.8c5.9,1.9,12,2.8,18,4c4.6-1.7,8.7-4.3,13.3-5.9
			c-6.1-1.6-12.4-2.6-18.5-3.8C307.9,542.5,304.1,545.5,299.6,546.8z M379.1,550.7c6.8,1.4,13.7,3,20.6,4c4.7-2,9.4-4.3,14-6.5
			c-7.1-1.5-14.2-2.9-21.3-3.9C387.9,546.4,383.5,548.5,379.1,550.7z M335.4,546.3c-4.1,1.8-8.1,3.9-12.2,5.6
			c6.4,1.5,12.9,3.1,19.4,3.9c4.4-1.9,8.7-4.2,13-6.2c-5.4-1-10.7-2.2-16.1-3.2C338.2,546.2,336.7,545.5,335.4,546.3z M404.7,555.8
			c6.9,1.5,13.9,2.6,20.8,4.2c1.4,0.5,2.8-0.5,4.1-1c4-1.9,8-3.7,12-5.7c-7.4-1.3-14.8-2.9-22.2-4
			C414.5,551.4,409.7,553.9,404.7,555.8z M347.7,556.9c6.6,1.4,13.1,3,19.7,4c4.9-1.5,9.4-4.2,14.1-6.4c-6.8-1-13.4-2.8-20.1-3.8
			C356.6,552.5,352.2,554.9,347.7,556.9z M373.3,561.8c4.9,2,10.1,2.4,15.2,3.7c2.3,0.4,4.9,1.4,7.2,0.2c4.1-1.9,8.2-3.8,12.2-5.9
			c-7-1.5-14-2.8-20.9-4.1C382.4,557.8,378,560.2,373.3,561.8z"/>
	</g>
</g>
<g>
	<path className="st13" d="M311.9,525.6c4.1-1.9,8.1-4.4,12.5-5.8c6.1,0.8,12.2,2.1,18.3,3.3c-4.5,1.8-8.7,4.1-13.2,5.9
		C323.7,527.7,317.8,526.8,311.9,525.6z"/>
	<path className="st13" d="M335.3,529.9c4.5-1.7,8.6-4.3,13.1-5.9c6,1.2,12.1,1.9,18.1,3.5c-3.5,1.9-7.1,3.5-10.6,5.2
		c-2,1.2-4.4,0.3-6.5,0C344.7,531.7,340,531,335.3,529.9z"/>
	<path className="st13" d="M305.4,536.4c4.2-2.2,8.6-4.1,12.9-6.3c6.1,1.3,12.2,2.4,18.3,3.4c-4.1,2.3-8.5,4.2-12.7,6.2
		C317.6,538.9,311.6,537.3,305.4,536.4z"/>
	<path className="st13" d="M329.4,540.9c4.3-2.1,8.5-4.5,13.1-6c6.4,0.9,12.6,2.2,19,3.4c-4.6,2.1-9.1,5-14,6.4
		C341.5,543.3,335.4,542.2,329.4,540.9z"/>
	<path className="st13" d="M353.5,545.8c4.7-2,9.2-4.6,14-6.4c6.4,1.5,12.9,2.3,19.2,4c-4.4,2.1-8.7,4.6-13.3,6.1
		C366.7,548.7,360.2,547,353.5,545.8z"/>
	<path className="st13" d="M335.4,546.3c1.3-0.8,2.8-0.1,4.1,0.1c5.4,1,10.7,2.2,16.1,3.2c-4.4,2-8.6,4.3-13,6.2
		c-6.5-0.8-13-2.4-19.4-3.9C327.3,550.2,331.3,548.1,335.4,546.3z"/>
	<path className="st13" d="M404.7,555.8c5-1.9,9.7-4.5,14.7-6.5c7.4,1.2,14.8,2.8,22.2,4c-4,2-8,3.7-12,5.7c-1.3,0.5-2.6,1.5-4.1,1
		C418.6,558.5,411.6,557.3,404.7,555.8z"/>
	<path className="st13" d="M347.7,556.9c4.6-2,9-4.5,13.7-6.2c6.8,1,13.4,2.8,20.1,3.8c-4.7,2.2-9.2,4.9-14.1,6.4
		C360.8,560,354.2,558.3,347.7,556.9z"/>
</g>
<g>
	<path className="st0" d="M222.1,543.8c70.5,14.3,140.9,28.9,211.4,43.3c2.2,0.6,3.8-1.3,5.5-2.2c21.4-13.3,42.9-26.6,64.3-40
		c0,2.3-0.1,4.7-0.1,7c-22.9,12.7-45.6,25.6-68.5,38.3c-4-0.2-7.9-1.5-11.9-2.2c-64.1-13.6-128.2-27.3-192.4-40.9
		c-2.7-0.5-5.3-1-7.9-1.9C222.3,544.7,222.1,544.1,222.1,543.8z"/>
</g>
</svg>
