<svg id="Layer_1" data-name="Layer 1" xmlns="http://www.w3.org/2000/svg" xmlns:xlink="http://www.w3.org/1999/xlink" viewBox="0 0 142.7 139.94"><defs><style>.cls-1{fill:#c4c4c4;}.cls-2,.cls-9{fill:#139dff;}.cls-12,.cls-2{stroke:#fff;stroke-width:2px;}.cls-11,.cls-12,.cls-2,.cls-3,.cls-6,.cls-8{stroke-linejoin:round;}.cls-11,.cls-3,.cls-6{stroke:#000203;}.cls-11,.cls-3,.cls-6,.cls-8{stroke-linecap:round;}.cls-11,.cls-3,.cls-6,.cls-7,.cls-8{stroke-width:1.2px;}.cls-11,.cls-4{fill:#fff;}.cls-5{fill:#000203;}.cls-12,.cls-6,.cls-7,.cls-8{fill:none;}.cls-7,.cls-8{stroke:#139dff;}.cls-7{stroke-miterlimit:10;}.cls-10{mask:url(#mask);}</style><mask id="mask" x="0" y="1.4" width="142.7" height="138.54" maskUnits="userSpaceOnUse"><g transform="translate(-4.03 -5.27)"><g id="mask0"><path class="cls-1" d="M118,30.67a62,62,0,0,0-43.95-18.2V8.22a1.53,1.53,0,0,0-.12-.6,1.43,1.43,0,0,0-.34-.5,1.7,1.7,0,0,0-.5-.34,1.77,1.77,0,0,0-.6-.11A67.76,67.76,0,0,0,27.11,25.48a1.58,1.58,0,0,0-.34.5,1.49,1.49,0,0,0-.13.59,1.53,1.53,0,0,0,.12.6,1.57,1.57,0,0,0,.34.51l3,3a62,62,0,0,0-18.2,43.94H7.65a1.52,1.52,0,0,0-.59.12,1.43,1.43,0,0,0-.51.34,1.51,1.51,0,0,0-.44,1.1,67.75,67.75,0,0,0,18.8,45.39,1.61,1.61,0,0,0,.5.35,1.54,1.54,0,0,0,1.19,0,1.57,1.57,0,0,0,.51-.34l3-3a61.92,61.92,0,0,0,43.94,18.2V141a1.53,1.53,0,0,0,.12.6,1.43,1.43,0,0,0,.34.5,1.47,1.47,0,0,0,.51.34,1.73,1.73,0,0,0,.6.11A67.77,67.77,0,0,0,121,123.78a1.88,1.88,0,0,0,.35-.5,1.57,1.57,0,0,0,.12-.6,1.53,1.53,0,0,0-.12-.6,1.43,1.43,0,0,0-.34-.51l-3-3a61.92,61.92,0,0,0,18.2-43.94h4.26a1.57,1.57,0,0,0,.6-.12,1.7,1.7,0,0,0,.5-.34,1.54,1.54,0,0,0,.33-.51,1.36,1.36,0,0,0,.11-.6,67.71,67.71,0,0,0-18.8-45.38,1.46,1.46,0,0,0-.5-.35,1.53,1.53,0,0,0-.6-.12,1.71,1.71,0,0,0-.59.11,1.5,1.5,0,0,0-.51.35Z"/></g></g></mask></defs><path class="cls-2" d="M118,30.67a62,62,0,0,0-43.95-18.2V8.22a1.53,1.53,0,0,0-.12-.6,1.43,1.43,0,0,0-.34-.5,1.7,1.7,0,0,0-.5-.34,1.77,1.77,0,0,0-.6-.11A67.76,67.76,0,0,0,27.11,25.48a1.58,1.58,0,0,0-.34.5,1.49,1.49,0,0,0-.13.59,1.53,1.53,0,0,0,.12.6,1.57,1.57,0,0,0,.34.51l3,3a62,62,0,0,0-18.2,43.94H7.65a1.52,1.52,0,0,0-.59.12,1.43,1.43,0,0,0-.51.34,1.51,1.51,0,0,0-.44,1.1,67.75,67.75,0,0,0,18.8,45.39,1.61,1.61,0,0,0,.5.35,1.54,1.54,0,0,0,1.19,0,1.57,1.57,0,0,0,.51-.34l3-3a61.92,61.92,0,0,0,43.94,18.2V141a1.53,1.53,0,0,0,.12.6,1.43,1.43,0,0,0,.34.5,1.47,1.47,0,0,0,.51.34,1.73,1.73,0,0,0,.6.11A67.77,67.77,0,0,0,121,123.78a1.88,1.88,0,0,0,.35-.5,1.57,1.57,0,0,0,.12-.6,1.53,1.53,0,0,0-.12-.6,1.43,1.43,0,0,0-.34-.51l-3-3a61.92,61.92,0,0,0,18.2-43.94h4.26a1.57,1.57,0,0,0,.6-.12,1.7,1.7,0,0,0,.5-.34,1.54,1.54,0,0,0,.33-.51,1.36,1.36,0,0,0,.11-.6,67.71,67.71,0,0,0-18.8-45.38,1.46,1.46,0,0,0-.5-.35,1.53,1.53,0,0,0-.6-.12,1.71,1.71,0,0,0-.59.11,1.5,1.5,0,0,0-.51.35Z" transform="translate(-4.03 -5.27)"/><path class="cls-3" d="M121.59,84.62l2.33.45v1.29a3.39,3.39,0,0,1-.41,1.62,3.51,3.51,0,0,1-1.13,1.23L69.46,123.74a4.18,4.18,0,0,1-3,.63,4.26,4.26,0,0,1-2.63-1.6L28.27,75.89l8.3-3.33,54.89-9.71Z" transform="translate(-4.03 -5.27)"/><path class="cls-3" d="M88.69,24.18A3.18,3.18,0,0,0,88,22.34a3.13,3.13,0,0,0-1.69-1L31,8.31A1.73,1.73,0,0,0,31.14,8a29.75,29.75,0,0,0-2.93-1.38L26,7.72l-.15.07,0,0a2.73,2.73,0,0,0-1.42,2.56l3.91,65.52L91,63.75Z" transform="translate(-4.03 -5.27)"/><path class="cls-3" d="M94,63.17,30.72,75.43,26.77,9.33A2.87,2.87,0,0,1,27,8.07a2.82,2.82,0,0,1,.76-1,2.73,2.73,0,0,1,1.14-.57,2.87,2.87,0,0,1,1.27,0L89.23,20.35a3.2,3.2,0,0,1,1.7,1,3.15,3.15,0,0,1,.74,1.85Z" transform="translate(-4.03 -5.27)"/><path class="cls-4" d="M88.55,22.1,29.42,9.27,33.17,72,90.89,61.9Z" transform="translate(-4.03 -5.27)"/><path class="cls-5" d="M80,41.75a20.08,20.08,0,0,0-.23-2,.56.56,0,0,1,0-.34.53.53,0,0,1,.24-.25l1.6-.88a.53.53,0,0,0,.26-.29.55.55,0,0,0,0-.38l-1.73-5a.59.59,0,0,0-.12-.2.56.56,0,0,0-.2-.14.59.59,0,0,0-.23,0,.46.46,0,0,0-.23.06L78,32.93a.58.58,0,0,1-.41,0,.57.57,0,0,1-.33-.26,17.45,17.45,0,0,0-2.38-3.16.77.77,0,0,1-.14-.25.57.57,0,0,1,0-.29l.72-2.74a.54.54,0,0,0-.22-.61l-4-2.75a.69.69,0,0,0-.25-.1.58.58,0,0,0-.26,0,.54.54,0,0,0-.22.15.59.59,0,0,0-.13.23l-.62,2.22a.75.75,0,0,1-.1.2l-.17.14a.57.57,0,0,1-.22.07.82.82,0,0,1-.22,0,9.65,9.65,0,0,0-1.59-.37,10.65,10.65,0,0,0-1.78-.12.59.59,0,0,1-.34-.1.49.49,0,0,1-.21-.26L63.87,21.7a.57.57,0,0,0-.28-.31.61.61,0,0,0-.42,0l-4.61,1.52a.56.56,0,0,0-.34.29.59.59,0,0,0,0,.23.57.57,0,0,0,0,.22L59.54,27a.6.6,0,0,1,0,.35.6.6,0,0,1-.19.3,12.53,12.53,0,0,0-2.71,3,.6.6,0,0,1-.34.24.59.59,0,0,1-.41-.06l-2.8-1.56a.73.73,0,0,0-.24-.07.64.64,0,0,0-.24,0,.6.6,0,0,0-.21.14.57.57,0,0,0-.13.21l-2,6.11a.52.52,0,0,0,0,.39.63.63,0,0,0,.27.29L53.81,38a.49.49,0,0,1,.24.23.59.59,0,0,1,.08.32,19,19,0,0,0,0,2.61,20.27,20.27,0,0,0,.32,2.57.67.67,0,0,1,0,.37.57.57,0,0,1-.26.25l-2.91,1.39a.57.57,0,0,0-.28.31.58.58,0,0,0,0,.43l2.76,6.29a.62.62,0,0,0,.14.19.67.67,0,0,0,.2.12.58.58,0,0,0,.23,0,.55.55,0,0,0,.22-.06l2.66-1.45a.53.53,0,0,1,.39,0,.54.54,0,0,1,.33.22A16.39,16.39,0,0,0,61,55a.57.57,0,0,1,.2.6l-.95,3.37a.56.56,0,0,0,0,.4.53.53,0,0,0,.3.27l4.85,1.75a.45.45,0,0,0,.23,0,.46.46,0,0,0,.23-.06.65.65,0,0,0,.18-.15.68.68,0,0,0,.1-.21L67,58a.54.54,0,0,1,.21-.31.52.52,0,0,1,.36-.11,10,10,0,0,0,1.73,0,11,11,0,0,0,1.6-.3.51.51,0,0,1,.4,0,.55.55,0,0,1,.28.3l1,2.45a.62.62,0,0,0,.15.2.61.61,0,0,0,.22.13.69.69,0,0,0,.25,0,.67.67,0,0,0,.23-.1L77,57.69a.53.53,0,0,0,.22-.29.59.59,0,0,0,0-.37l-1-2.76a.61.61,0,0,1,0-.3.57.57,0,0,1,.13-.27,14.17,14.17,0,0,0,2-3,.59.59,0,0,1,.13-.18.72.72,0,0,1,.19-.11.55.55,0,0,1,.22,0,.37.37,0,0,1,.21.06l1.46.72a.54.54,0,0,0,.25.06.63.63,0,0,0,.44-.21.54.54,0,0,0,.11-.23L82.4,46a.56.56,0,0,0,0-.36.55.55,0,0,0-.24-.26l-1.86-1a.56.56,0,0,1-.29-.52,20.42,20.42,0,0,0,0-2.07Zm-11.1,7.77c-3.64.15-7-3.51-7.25-8.21s2.63-8.21,6.29-7.89c3.46.31,6.33,4,6.58,8.2s-2.19,7.75-5.62,7.9Z" transform="translate(-4.03 -5.27)"/><path class="cls-6" d="M45.09,45.81a35.43,35.43,0,0,1-.58-4.71,30.87,30.87,0,0,1,2.22-13.85M83.06,30a34.47,34.47,0,0,1,3,12.14,32.19,32.19,0,0,1-.24,6.36M48,24.71a21.67,21.67,0,0,1,2.32-3.37Zm37.58,25.2a27.71,27.71,0,0,1-.65,2.76Z" transform="translate(-4.03 -5.27)"/><path class="cls-7" d="M30.52,75.43,26.77,8.8A2.8,2.8,0,0,1,27,7.55a2.66,2.66,0,0,1,.76-1A2.73,2.73,0,0,1,30.16,6" transform="translate(-4.03 -5.27)"/><path class="cls-3" d="M93.82,63.17,30.52,75.43l33.41,42.65a4.45,4.45,0,0,0,5.84,1l53.47-32.89a1.41,1.41,0,0,0,.68-1.18,1.37,1.37,0,0,0-.15-.69,1.51,1.51,0,0,0-.46-.54Z" transform="translate(-4.03 -5.27)"/><path class="cls-8" d="M44.67,77.12,92.61,66.39" transform="translate(-4.03 -5.27)"/><path class="cls-8" d="M47.17,80,95,68.12" transform="translate(-4.03 -5.27)"/><path class="cls-8" d="M49.8,82.92l47.65-13" transform="translate(-4.03 -5.27)"/><path class="cls-8" d="M55.42,89.28l47.17-15.62" transform="translate(-4.03 -5.27)"/><path class="cls-8" d="M52.54,86,100,71.75" transform="translate(-4.03 -5.27)"/><path class="cls-8" d="M58.43,92.69l46.86-17.08" transform="translate(-4.03 -5.27)"/><path class="cls-8" d="M61.59,96.28l46.47-18.64" transform="translate(-4.03 -5.27)"/><path class="cls-8" d="M58.2,77.23l-2.54-2.57" transform="translate(-4.03 -5.27)"/><path class="cls-8" d="M67.66,74.89l-2.55-2.35" transform="translate(-4.03 -5.27)"/><path class="cls-8" d="M83,71.08l-2.48-2" transform="translate(-4.03 -5.27)"/><path class="cls-8" d="M75.85,72.86,73.33,70.7" transform="translate(-4.03 -5.27)"/><path class="cls-8" d="M89.36,69.52l-2.43-1.86" transform="translate(-4.03 -5.27)"/><path class="cls-8" d="M63.61,82.7l-2.76-2.79" transform="translate(-4.03 -5.27)"/><path class="cls-8" d="M73,79.86l-2.75-2.53" transform="translate(-4.03 -5.27)"/><path class="cls-8" d="M88.25,75.29l-2.66-2.14" transform="translate(-4.03 -5.27)"/><path class="cls-8" d="M81.17,77.42,78.46,75.1" transform="translate(-4.03 -5.27)"/><path class="cls-8" d="M94.47,73.41l-2.59-2" transform="translate(-4.03 -5.27)"/><path class="cls-8" d="M69.47,88.63l-3-3" transform="translate(-4.03 -5.27)"/><path class="cls-8" d="M78.84,85.22l-3-2.74" transform="translate(-4.03 -5.27)"/><path class="cls-8" d="M93.81,79.77,91,77.48" transform="translate(-4.03 -5.27)"/><path class="cls-8" d="M86.86,82.3,84,79.8" transform="translate(-4.03 -5.27)"/><path class="cls-8" d="M99.9,77.55l-2.77-2.11" transform="translate(-4.03 -5.27)"/><path class="cls-8" d="M67.37,94l-3.16-3.37" transform="translate(-4.03 -5.27)"/><path class="cls-8" d="M77.49,89.9l-3.12-3" transform="translate(-4.03 -5.27)"/><path class="cls-8" d="M86.09,86.45,83,83.73" transform="translate(-4.03 -5.27)"/><path class="cls-8" d="M99.88,80.92,97,78.64" transform="translate(-4.03 -5.27)"/><path class="cls-8" d="M93.47,83.49l-3-2.48" transform="translate(-4.03 -5.27)"/><path class="cls-8" d="M105.5,78.66l-2.82-2.1" transform="translate(-4.03 -5.27)"/><path class="cls-8" d="M61.19,87.37,58.3,84.29" transform="translate(-4.03 -5.27)"/><path class="cls-8" d="M71.38,84,68.5,81.23" transform="translate(-4.03 -5.27)"/><path class="cls-8" d="M80.08,81.11,77.25,78.6" transform="translate(-4.03 -5.27)"/><path class="cls-8" d="M94.17,76.44l-2.71-2.12" transform="translate(-4.03 -5.27)"/><path class="cls-8" d="M87.6,78.62l-2.77-2.3" transform="translate(-4.03 -5.27)"/><path class="cls-8" d="M100,74.53l-2.64-2" transform="translate(-4.03 -5.27)"/><path class="cls-8" d="M55.55,81.35l-2.64-2.81" transform="translate(-4.03 -5.27)"/><path class="cls-8" d="M65.75,78.57,63.1,76" transform="translate(-4.03 -5.27)"/><path class="cls-8" d="M74.52,76.17,71.9,73.84" transform="translate(-4.03 -5.27)"/><path class="cls-8" d="M88.83,72.26l-2.54-2" transform="translate(-4.03 -5.27)"/><path class="cls-8" d="M82.15,74.09l-2.59-2.15" transform="translate(-4.03 -5.27)"/><path class="cls-8" d="M94.75,70.65,92.26,68.8" transform="translate(-4.03 -5.27)"/><path class="cls-8" d="M105,90.44,93.18,96.79A2,2,0,0,1,92,97a2.12,2.12,0,0,1-1.11-.52l-5.08-4.7a1,1,0,0,1-.26-.4,1,1,0,0,1,0-.48,1,1,0,0,1,.19-.43.9.9,0,0,1,.38-.29l12.39-5.42a2,2,0,0,1,1.08-.15,1.94,1.94,0,0,1,1,.42l4.68,3.77a1.16,1.16,0,0,1,.29.37,1,1,0,0,1,.07.48.93.93,0,0,1-.15.45,1.11,1.11,0,0,1-.36.32Z" transform="translate(-4.03 -5.27)"/><path class="cls-8" d="M94.75,63,30.52,75.43l33.41,42.65a4.45,4.45,0,0,0,5.84,1l53.81-33.31a1.41,1.41,0,0,0,.49-.51,1.3,1.3,0,0,0,.19-.67,1.37,1.37,0,0,0-.15-.69,1.33,1.33,0,0,0-.46-.54" transform="translate(-4.03 -5.27)"/><path class="cls-9" d="M65.4,16.74a.84.84,0,0,1-.77-.87c0-.5.28-.88.68-.85a.85.85,0,0,1,.7.87A.74.74,0,0,1,65.4,16.74Z" transform="translate(-4.03 -5.27)"/><g class="cls-10"><path class="cls-9" d="M52.54,74.89C40.35,72,23.43,104.82,21.39,117.34Z" transform="translate(-4.03 -5.27)"/><path class="cls-9" d="M52.54,78.89a10.44,10.44,0,0,1,11.07-2.44c3.76,2.18,3.59,5.23,2.64,6.23-1.54,1.62-7.18-2.29-9.75-.84" transform="translate(-4.03 -5.27)"/><path class="cls-9" d="M59.23,75.82a6.73,6.73,0,0,0-2-1c-4.8-1.46-9.6,3.32-10,3.76L39.63,86,28.54,106.76l4.13,3.31L58.3,79.91" transform="translate(-4.03 -5.27)"/><path class="cls-9" d="M21.39,116.79,41.18,127C48.24,106.78,71.09,95.13,68,88.63c-2.18-1.52-8,5.87-10.28,2.19-1-1.54.74-7.68,7-9.35,1-.26,2.64.66,4.3,1.14,1.84.53,3.37,0,2.71-1.69a9.43,9.43,0,0,0-6.52-4.25A9.71,9.71,0,0,0,56.93,80" transform="translate(-4.03 -5.27)"/><path class="cls-6" d="M66.7,81.86a2.07,2.07,0,0,1-.45.82c-.71.75-2.31.31-4.06-.23" transform="translate(-4.03 -5.27)"/><path class="cls-6" d="M55.22,85.22c-2.31-2.14-11.84-2.92-14.57-2.3" transform="translate(-4.03 -5.27)"/><path class="cls-11" d="M21.39,117.34a62.16,62.16,0,0,1,4.73-13.84,22.21,22.21,0,0,1,22.75,9.79A48.83,48.83,0,0,0,41.18,127l-21.45-1.8Z" transform="translate(-4.03 -5.27)"/><path class="cls-6" d="M22.16,114.17c2.35-.66,19,1.63,21,8.12" transform="translate(-4.03 -5.27)"/><path class="cls-6" d="M44.18,114.15a1.43,1.43,0,0,1-.26.83,1.47,1.47,0,0,1-1.54.64,1.49,1.49,0,0,1-.76-.41,1.45,1.45,0,0,1-.41-.77,1.49,1.49,0,0,1,.08-.86,1.6,1.6,0,0,1,.55-.68,1.56,1.56,0,0,1,.84-.25,1.6,1.6,0,0,1,.57.11,1.63,1.63,0,0,1,.49.33,1.34,1.34,0,0,1,.32.49,1.39,1.39,0,0,1,.12.57Z" transform="translate(-4.03 -5.27)"/><path class="cls-6" d="M56.93,80a9.7,9.7,0,0,1,8.22-3.27,9.46,9.46,0,0,1,6.52,4.24c.65,1.69-.88,2.22-2.71,1.69-1.67-.47-3.34-1.4-4.31-1.14-6.22,1.67-7.92,7.81-7,9.36C60,94.5,65.79,87.11,68,88.64c3.12,6.49-19.73,18.14-26.79,38.4" transform="translate(-4.03 -5.27)"/><path class="cls-6" d="M52.54,78.89c5.89-5.55,10.4-2.83,11.26-2.29" transform="translate(-4.03 -5.27)"/><path class="cls-6" d="M52.54,74.89C40.46,72,23.75,104.19,21.45,117" transform="translate(-4.03 -5.27)"/><path class="cls-6" d="M47.17,78.54c.43-.44,6.53-6.29,11.64-3" transform="translate(-4.03 -5.27)"/><path class="cls-9" d="M34.59,52.64C41.18,56,44.67,55.22,44.79,54c.06-.53-.34-1.33-1.68-2.54L38.6,49.79,29,52.42l-4.59,4.12,4.18.61,5-1.13,5.64-1.52" transform="translate(-4.03 -5.27)"/><path class="cls-9" d="M29.42,54.89c6.58,3.37,11.17,2.93,11.3,1.75.05-.53-.34-1.33-1.69-2.54" transform="translate(-4.03 -5.27)"/><path class="cls-9" d="M23.3,56.25c6.58,3.37,11.16,2.92,11.29,1.74,0-.52-.34-1.32-1.68-2.54" transform="translate(-4.03 -5.27)"/><path class="cls-6" d="M34.59,52.64C41.18,56,44.67,55.22,44.79,54c.06-.53-.34-1.33-1.68-2.54" transform="translate(-4.03 -5.27)"/><path class="cls-6" d="M23.3,56.25c6.58,3.37,11.16,2.92,11.29,1.74a1.81,1.81,0,0,0-.42-1.17" transform="translate(-4.03 -5.27)"/><path class="cls-6" d="M29.42,54.89c6.58,3.37,11.17,2.93,11.3,1.75a2.58,2.58,0,0,0-1.14-2" transform="translate(-4.03 -5.27)"/><path class="cls-9" d="M11.65,55.88c4.85-2.75,21.47-10.39,33.57-6.1a1.28,1.28,0,0,1,.74.63C47.67,54,23.8,52.36,25.39,59c-.28,3,15.25-1.63,14.48,2.43-.09,2.67-25,16.24-35.24,20" transform="translate(-4.03 -5.27)"/><path class="cls-6" d="M22.39,53.28a3.38,3.38,0,0,0-.48-1.14,4.15,4.15,0,0,0-.52-.59" transform="translate(-4.03 -5.27)"/><path class="cls-6" d="M11.65,55.88c4.85-2.75,21.47-10.39,33.57-6.1a1.28,1.28,0,0,1,.74.63C47.67,54,23.8,52.36,25.39,59c.57,2.94,15.25-1.63,14.48,2.43-.09,2.67-25,16.24-35.24,20" transform="translate(-4.03 -5.27)"/><path class="cls-9" d="M88.21,115.65c-2.74-14.27-6.36-18.18-7.35-16.6-1.09,1.75,0,9.54,2.16,27.12-1.27,2.94-2.46-11.09-5-9.4-3.74,2.52.88,24,2.68,27.85L110,139.47l-1.35-6.8c.06-2.5-5.81-23.4-12.78-22.77" transform="translate(-4.03 -5.27)"/><path class="cls-9" d="M91.51,108.52a3.3,3.3,0,0,1,1.15-.25c2.51,0,5,3.18,6.58,7.85L86.92,117l-1.58-12.29a2.29,2.29,0,0,1,1.56-1.07c3.45-.43,6.56,9.61,7.48,12.44" transform="translate(-4.03 -5.27)"/><path class="cls-6" d="M87.69,122c2.18-1.16,13.18-2.92,16.93-.75" transform="translate(-4.03 -5.27)"/><path class="cls-6" d="M80.73,144.62c-1.8-3.82-6.42-25.33-2.68-27.85,2.51-1.69,3.7,12.35,5,9.4-2.12-17.57-3.25-25.37-2.16-27.12,1-1.58,4.61,2.33,7.35,16.6" transform="translate(-4.03 -5.27)"/><path class="cls-6" d="M85.34,104.75a2.29,2.29,0,0,1,1.56-1.07c3.45-.43,6.56,9.61,7.48,12.44" transform="translate(-4.03 -5.27)"/><path class="cls-6" d="M91.51,108.52a3.3,3.3,0,0,1,1.15-.25c2.51,0,5,3.18,6.58,7.85" transform="translate(-4.03 -5.27)"/><path class="cls-6" d="M95.84,109.89c7-.63,12.83,20.27,12.78,22.77" transform="translate(-4.03 -5.27)"/><path class="cls-9" d="M109.78,86.7c3.79-1.61,9.47,2.79,10.76,3.71l-6.85,3-3.72-1-6.27-6c3.74-3,12.19,4,12.53,4.66" transform="translate(-4.03 -5.27)"/><path class="cls-9" d="M112.14,92.7c-1-1.08-8.36-7.55-11.66-7.07a1.06,1.06,0,0,0-.48.22.92.92,0,0,0-.29.44,1,1,0,0,0,.23,1c2.71,2.81,11.48,9.75,10.12,13.14-.84,1.24-7-5.81-8.42-3.9a1,1,0,0,0-.17.4,1,1,0,0,0,0,.43c2.22,8.22,17.46,15.43,20.59,16.12l7.2-2.7L131.73,97c-1.28-.92-12.54-12-16.13-9.65" transform="translate(-4.03 -5.27)"/><path class="cls-6" d="M112.14,92.7c-1-1.08-8.36-7.55-11.66-7.07a1.06,1.06,0,0,0-.48.22.92.92,0,0,0-.29.44,1,1,0,0,0,.23,1c2.71,2.81,11.48,9.75,10.12,13.14-.84,1.24-7-5.81-8.42-3.9a1,1,0,0,0-.17.4,1,1,0,0,0,0,.43c2.22,8.22,17.46,15.43,20.59,16.12" transform="translate(-4.03 -5.27)"/><path class="cls-6" d="M103.7,86.45c3.74-3,12.2,4,12.54,4.66" transform="translate(-4.03 -5.27)"/><path class="cls-6" d="M109.78,86.7c3.79-1.61,9.47,2.79,10.76,3.71" transform="translate(-4.03 -5.27)"/><path class="cls-6" d="M115.61,87.38C119.2,85,130.45,96.11,131.74,97" transform="translate(-4.03 -5.27)"/><path class="cls-6" d="M115,96.28a31.21,31.21,0,0,1,2.85-1.55,32.41,32.41,0,0,1,6.33-2.31" transform="translate(-4.03 -5.27)"/><path class="cls-9" d="M117,24.71a79.78,79.78,0,0,0-24.2,20.8C83,58,78.46,70.28,80.63,71.68c.44.28,2.35-1.36,6.68-7.24,4.37-.65,8.3-.8,12.68-1.44a80.6,80.6,0,0,1,31.74-27.82" transform="translate(-4.03 -5.27)"/><path class="cls-9" d="M91.88,59.85c-1.6,4.23-.76,7.77,1.05,8.6.26.12,1.31.54,3.19-.44" transform="translate(-4.03 -5.27)"/><path class="cls-9" d="M96.12,60.39c-1.37,3.38-1.59,7.08.36,7.81,3.51,1.32,9-7.21,5.7-8.35" transform="translate(-4.03 -5.27)"/><path class="cls-9" d="M91.76,67.32a2.85,2.85,0,0,1-2.55.15c-1.81-.83-2.66-4.38-1.06-8.6l8.63,2.74-.94,5.24" transform="translate(-4.03 -5.27)"/><path class="cls-6" d="M91.88,59.85c-1.6,4.23-.76,7.77,1.05,8.6.26.12,1.31.54,3.19-.44" transform="translate(-4.03 -5.27)"/><path class="cls-6" d="M88.16,58.87c-1.61,4.22-.76,7.77,1,8.6a2.86,2.86,0,0,0,2.55-.15" transform="translate(-4.03 -5.27)"/><path class="cls-6" d="M117,24.71a79.78,79.78,0,0,0-24.2,20.8C83,58,78.46,70.28,80.63,71.68c.44.28,2.35-1.36,6.68-7.24" transform="translate(-4.03 -5.27)"/><path class="cls-6" d="M100,63a80.6,80.6,0,0,1,31.74-27.82" transform="translate(-4.03 -5.27)"/><path class="cls-6" d="M96.12,60.39c-1.37,3.38-1.59,7.08.36,7.81,3.51,1.32,9-7.21,5.7-8.35" transform="translate(-4.03 -5.27)"/><path class="cls-6" d="M89.53,54.67a24.34,24.34,0,0,0,9.6,2.23" transform="translate(-4.03 -5.27)"/><path class="cls-4" d="M120.75,22.6c-2.2,1.22-8.34,4.77-10.79,6.49a76.18,76.18,0,0,0-8.64,7.08,10.41,10.41,0,0,1,4.31.68c6.16,2.37,7.6,10,7.73,10.71a80.84,80.84,0,0,1,18.37-12.38" transform="translate(-4.03 -5.27)"/><path class="cls-6" d="M120.75,22.6c-2.2,1.22-8.34,4.77-10.79,6.49a76.18,76.18,0,0,0-8.64,7.08,10.41,10.41,0,0,1,4.31.68c6.16,2.37,7.6,10,7.73,10.71a80.84,80.84,0,0,1,18.37-12.38" transform="translate(-4.03 -5.27)"/><path class="cls-6" d="M107.06,31.43a8.93,8.93,0,0,1,2.72.27c6.51,1.63,9,10,9.28,11.14" transform="translate(-4.03 -5.27)"/><path class="cls-9" d="M122.09,76.42c-2.11,3.06-1.55,5.82,0,7.07,2.93,2.35,9-1.52,8.64-3-.19-.81-1.8-1.45-5.48-.09" transform="translate(-4.03 -5.27)"/><path class="cls-9" d="M118.33,73.77c-2.47,4-2.08,7.91-.2,9.21.23.16,1.39.91,3.67.25" transform="translate(-4.03 -5.27)"/><path class="cls-9" d="M114.29,72.77c-2.47,4-2.09,7.92-.21,9.22a4.07,4.07,0,0,0,1.65.54,4,4,0,0,0,1.72-.21" transform="translate(-4.03 -5.27)"/><path class="cls-9" d="M139.75,51.29c-6.57,3.86-13.81,7.77-21.72,11.57-7.19,3.46-14.11,6.44-20.65,9a1,1,0,0,0-.43.34.86.86,0,0,0-.15.52c.16,2.71,13,.32,14.08-.28,4.46,2.51,8.92,6.07,13.38,8.59,2.88-1.52,18.12-12.39,21.85-15.39" transform="translate(-4.03 -5.27)"/><path class="cls-9" d="M113.69,80.27a4,4,0,0,1-3.36-.33c-1.88-1.3-2.27-5.25.2-9.21,0,0,3.66-.13,4,0s4.12,2.23,4.67,2.68l5.07,4.25-2.18,3.27" transform="translate(-4.03 -5.27)"/><path class="cls-6" d="M122.09,76.42c-2.11,3.06-1.55,5.82,0,7.07,2.93,2.35,9-1.52,8.64-3-.19-.81-1.8-1.45-5.48-.09" transform="translate(-4.03 -5.27)"/><path class="cls-6" d="M118.33,73.77c-2.47,4-2.08,7.91-.2,9.21.23.16,1.39.91,3.67.25" transform="translate(-4.03 -5.27)"/><path class="cls-6" d="M114.29,72.77c-2.47,4-2.09,7.92-.21,9.22a4.07,4.07,0,0,0,1.65.54,4,4,0,0,0,1.72-.21" transform="translate(-4.03 -5.27)"/><path class="cls-6" d="M139.75,51.29c-6.57,3.86-13.81,7.77-21.72,11.57-7.2,3.47-14.12,6.44-20.67,9a.81.81,0,0,0-.37.27.82.82,0,0,0-.2.42c-.33,2.52,8.17,1.68,12.57.32" transform="translate(-4.03 -5.27)"/><path class="cls-6" d="M124.26,81c2.88-1.51,18.13-12.39,21.86-15.39" transform="translate(-4.03 -5.27)"/><path class="cls-6" d="M110.53,70.73c-2.47,4-2.08,7.91-.2,9.21a3.93,3.93,0,0,0,2.62.51" transform="translate(-4.03 -5.27)"/><path class="cls-6" d="M113.14,67.66a31.32,31.32,0,0,1,11.12,6.66" transform="translate(-4.03 -5.27)"/><path class="cls-11" d="M139.75,51.29l-10,5.61a14.88,14.88,0,0,1,5.29,3.52,16,16,0,0,1,4.23,10.31l6.85-5.11Z" transform="translate(-4.03 -5.27)"/></g><path class="cls-12" d="M72.5,6.67a1.77,1.77,0,0,1,.6.11,1.7,1.7,0,0,1,.5.34,1.43,1.43,0,0,1,.34.5,1.53,1.53,0,0,1,.12.6v4.25a62,62,0,0,1,44,18.2l3-3a1.5,1.5,0,0,1,.51-.35,1.71,1.71,0,0,1,.59-.11,1.53,1.53,0,0,1,.6.12,1.46,1.46,0,0,1,.5.35A67.71,67.71,0,0,1,142,73.06a1.36,1.36,0,0,1-.11.6,1.54,1.54,0,0,1-.33.51,1.7,1.7,0,0,1-.5.34,1.57,1.57,0,0,1-.6.12h-4.26A61.92,61.92,0,0,1,118,118.57l3,3a1.43,1.43,0,0,1,.34.51,1.53,1.53,0,0,1,.12.6,1.57,1.57,0,0,1-.12.6,1.88,1.88,0,0,1-.35.5,67.77,67.77,0,0,1-45.38,18.8,1.73,1.73,0,0,1-.6-.11,1.47,1.47,0,0,1-.51-.34,1.43,1.43,0,0,1-.34-.5,1.53,1.53,0,0,1-.12-.6v-4.25a61.92,61.92,0,0,1-43.94-18.2l-3,3a1.57,1.57,0,0,1-.51.34,1.54,1.54,0,0,1-1.19,0,1.61,1.61,0,0,1-.5-.35A67.75,67.75,0,0,1,6.11,76.19a1.51,1.51,0,0,1,.44-1.1,1.43,1.43,0,0,1,.51-.34,1.52,1.52,0,0,1,.59-.12h4.26a61.86,61.86,0,0,1,4.72-23.79" transform="translate(-4.03 -5.27)"/></svg>