<?xml version="1.0" encoding="utf-8"?>
<!-- Generator: Adobe Illustrator 26.0.0, SVG Export Plug-In . SVG Version: 6.00 Build 0)  -->
<svg version="1.1" id="Layer_1" xmlns="http://www.w3.org/2000/svg" xmlns:xlink="http://www.w3.org/1999/xlink" x="0px" y="0px"
	 viewBox="0 0 534 534" style="enable-background:new 0 0 534 534;" xml:space="preserve">
<style type="text/css">
	.st0{fill:#139DFF;}
	.st1{fill:#FFFFFF;}
	.st2{fill:#010000;}
</style>
<g id="_x23_ff788fff">
	<path class="st0" d="M181.4,55.4c1.9-2.2,4.6-3.6,7.6-3.4c99-0.1,198,0,297.1,0c3-0.5,6,1.8,5.5,5c0,95.7,0,191.4,0,287
		c0,4.9,0.1,9.8-0.5,14.7c-15.5,16.3-31.6,32-47.4,47.9c-0.5-0.3-1.5-0.9-2-1.1c3.6-19.9,6.9-39.8,10.3-59.8c0.4-3,2.7-5.1,4.2-7.6
		c1.8-2.5,2.4-5.5,4-8c2.6-2.3,5.9-3.7,8.9-5.5c2.1-6.7,4-13.5,6.1-20.1c-10-3.2-19.7-7.5-29.8-10.4c0.9,1.4,2.1,2.6,3.7,3
		c7.6,2.8,15.1,5.5,22.7,8.2c-15.7,8.6-31.1,17.7-46.8,26.3c-13.6-4.4-27.2-8.9-40.8-13.3c6.9-6.8,13.6-13.8,20.5-20.6
		c1.2-1.2,2.5-2.5,3.5-3.9c0.1-1.7-0.1-3.3-0.1-5c0-0.5-0.1-1.4-0.1-1.9c-7.6,4.5-15,9.2-22.6,13.7c2.9-2.5,5.8-5.2,7.6-8.8
		c1.4-3,5.5-4,6.2-7.4c1.6-6.1,2.7-12.2,4.2-18.3c0.5-2.5,1.4-5,1.3-7.6c-1.5-0.9-3.1-1.5-4.8-2.1c-12.3-4.1-24.6-8.5-36.9-12.7
		c6.2-4,12.4-8.1,18.6-12c9,6.5,21.4,8,31.5,3.1c11.3-5.4,18.3-18.4,16.5-30.8c-1.2-8-3.6-16.2-9.2-22.2c-5.3-6.1-13.3-9.4-21.2-9.8
		c-12.1-0.6-24.1,7.4-28.3,18.8c-2.5,5.8-2.4,12.3-1.2,18.4c-12.2,8-24.5,16-36.8,23.9c-3.9-1.3-7.8-3-11.9-3.8
		c-1.5-0.3-2.9,0.8-4.2,1.4c-14,8.1-27.8,16.7-42,24.4c2-2.8,4.7-5,6.7-7.7c1.9-2.5,2.5-5.9,5-8c1.9-1.6,3.2-3.7,3.7-6.1
		c2.4-10.1,4.8-20.1,7.2-30.2c0.4-2.2,1.3-4.6,0.1-6.7c-1.3-0.8-2.9-1.3-4.3-1.8c-15.6-4.6-31.2-9.4-46.9-14.1
		c7.4-14.6,8.9-32,3.9-47.6c7.4-4.7,14.9-9.4,22.4-14.1c2.8,4.6,5.7,9.2,8.7,13.8c10.5-6.4,21.1-12.7,31.4-19.6
		c-2.8-4.7-5.7-9.3-8.7-13.9c3.8-2.6,7.6-5,11.5-7.4c-5.2-8.7-10.6-17.3-16.1-25.8c-22,13.3-43.7,27.2-65.5,40.9
		c-13.1-12.6-32-18.7-50-16.8c-10.4,1.1-20.1,5.4-28.9,10.9c-12.4,6.8-23.1,17.2-28.8,30.2c-6.6,14.8-8,32.4-1.9,47.6
		c1.7,4.6,4.3,8.8,6.7,13c-11,6.4-21.9,12.9-32.8,19.3c-2.9,1.8-6,3.2-8.6,5.4c-1.2,1.7-0.3,3.8,0.1,5.6c2.9,10.2,5.5,20.5,8.4,30.7
		c0.8,3.8,4.9,5.2,6.7,8.3c2.3,3.6,5.4,7,9.5,8.5c2.9,1.4,6.6,1.7,8.4,4.6c2.7,3.9,6.3,7,9.4,10.6c1.4,2.8,1.6,6.1,2.3,9.1
		c8.7,40.8,17.3,81.6,26,122.4c-7.8,5.6-15.7,11.1-23.6,16.4c4,5.5,6.8,12,11.7,16.8c18.3,14.2,36.5,28.7,54.6,43.2
		c26.2-14.1,52.3-28.4,78.3-42.8c-6.8-4.5-13.7-8.8-20.6-13.1c1.2-2.2,2.5-4.4,3.8-6.6c-8-4.9-15.7-10.4-23.6-15.5l-0.3-0.7
		c5.8-38.6,11.5-77.2,17.4-115.8c2.6,1.6,4.4,4.1,6.2,6.5c1.9,2.5,5.1,3.2,7.4,5.3c2.2,3.6,3.5,7.7,6.4,10.8c2.1,2.5,5.3,4.5,5.5,8
		c5.4,28.5,11,57,16.4,85.6c-4.8,3.4-10,6.1-14.5,9.9c-1.7,1.6-0.1,3.8,0.8,5.4c2.4,3.8,4.1,8.3,7.9,11c5.3,4.1,10.5,8.2,15.7,12.3
		c7,5.6,14.4,10.7,20.2,17.5c16.7-9.8,33.3-19.8,50-29.6c2.1-1.3,4.2-2.6,6.2-4c-4.1-2.6-8.3-4.9-12.5-7.2c0.2-1.5,0.4-3,0.3-4.6
		c-4.6-4.3-10.2-7.2-15.2-11c4.7-27.2,9.4-54.4,14.1-81.6c3.7,1.5,8.5,2,10.7,5.8c2,3,5,5.6,5.6,9.3c3.6,19.4,7.4,38.9,11.1,58.3
		c-3.2,2.2-6.7,4.1-9.6,6.7c-1.4,0.9-0.6,2.5-0.1,3.7c1.2,2.9,2.4,6,5,7.9c5.6,4.5,11.2,9.2,16.8,13.7c-18.1,18.5-39.2,34.4-62.4,46
		c-15.7,7.2-32.1,13.4-49,17.1c-27.2,6-55.4,6.5-82.9,2.1c-33.9-6-66.6-19.6-94-40.5c-10.3-8.2-20.7-16.6-29.4-26.5
		c-20.2-21.8-35.9-47.7-45.4-75.8C37.6,327.8,35,292.3,39.5,258c4.5-29.6,14.9-58.3,30.8-83.6c10.9-17.2,24.4-32.7,39-47
		C133.4,103.4,157.5,79.5,181.4,55.4 M271.4,142.2c-1.5,6.3-2.3,13.4-7.6,17.8c2.2,2.7,4.5,5.4,5.4,8.9c0.9,3.1,1.2,6.5,2.7,9.4
		c1.1-3.2,1.7-6.5,2.6-9.7c0.9-3.3,3.4-5.7,5.3-8.5c-1.9-2.5-4.4-4.7-5.2-7.9C273.3,148.9,273.7,145,271.4,142.2 M448.1,240.8
		c-5.4,10.1-10.9,20.3-16.3,30.5c-5.8-2-12.9-1.5-17.2,3.3c-7.8,8.5-5.6,22.9,2.8,30.1c4.7,4.5,12.4,6.6,18.3,3.1
		c6.7-3.3,9.6-11.5,8.6-18.7c-0.5-4.5-2.6-8.5-5.1-12.1c3-5.8,6-11.5,9.1-17.2c2.1,1.5,4.1,3,6.2,4.5c1.5-3,3.1-6,4.6-8.9
		c-2-1.6-4-3.1-6-4.8c0.7-1.4,1.4-2.8,2.1-4.3C452.8,244.4,450.4,242.6,448.1,240.8 M397.6,309.6c-0.3,0.6-0.9,1.9-1.2,2.6
		c3.7,3.5,8.9,4.4,13.7,5.1c9.7,1.2,19.6,1,29.1-1.2c2.8-0.6,5.3-2.1,7.4-3.9c-0.3-0.6-0.9-1.9-1.2-2.6c-1.5-0.8-3-1.6-4.5-2.2
		c-1.9,0.3-3.3,1.6-5,2.4c-5.2,2.3-11.6,1.8-16.3-1.4c-2.1-1.1-3.8-3.6-6.5-3C407.7,306,402.3,307,397.6,309.6z"/>
	<path class="st0" d="M132.5,123.6c6.5-9.3,15.5-16.6,25.7-21.4c-18.6,19-28,46.4-25.3,72.8c0.5,7.4,2.7,14.6,4.1,21.9
		c-6.9-8.6-12.2-18.7-13.8-29.7C120.4,152.1,124.3,136.3,132.5,123.6z"/>
	<path class="st0" d="M170.4,129.2c8.1-4.3,18-3.2,26.1,0.4c7,3.7,12.7,10,15.3,17.5c2.8,7.3,1.9,15.6-0.9,22.7
		c-7.6-2.3-15.2-4.6-22.9-6.9c-2.3-0.7-5-1.5-7.2-0.2c-4.8,2.5-9.3,5.5-14.1,8.1C157,158.7,158.5,139.3,170.4,129.2z"/>
	<path class="st0" d="M184.2,163.7c8.5,2.8,17.2,5.2,25.7,7.9c-2.5,3.8-4.8,8.5-9.5,9.9c-9.9,3.4-21.4,0.6-29.4-6
		C175.4,171.5,180,167.8,184.2,163.7z"/>
	<path class="st0" d="M376.1,185c6.8-9.3,19.7-13.5,30.7-9.8c9.5,2.8,16.8,11.3,18.9,20.9c1.5,8-0.5,16.6-5.6,22.9
		c-6.1,7.1-15.6,11.4-25,10.2c-5.7-0.3-10.8-3.2-15.1-6.6c-10.7,7-21.4,14.2-32.2,21.2c-1.6,1.2-3.6,2.2-4.3,4.2
		c0.8,2.5,2.5,4.6,3.9,6.8c-4.2,2.8-8.4,5.5-12.7,8.2c-1.7-2.3-2.7-5.6-5.7-6.5c-3.6,1.4-6.6,4-9.9,6c-2.8-4.2-5.6-8.4-8.3-12.6
		c20.4-13.2,40.7-26.5,61-39.8C369.4,201.5,370.8,192.1,376.1,185 M396.2,189.2c-6,0.9-10.8,6.7-10.5,12.8
		c-0.1,6.3,5.2,12,11.4,12.4c7.2,1,14.2-5.2,14-12.4C411.5,194.2,403.7,187.6,396.2,189.2z"/>
	<path class="st0" d="M245.5,182.2c15.7,4.7,31.3,9.5,46.9,14.1c1.8,0.4,3.3,1.4,4.7,2.6c-3.7,2.8-7.8,5-11.8,7.4
		c-25,15-50.2,29.9-75.3,44.7c-2.2,1.1-4.5,3.6-7.2,2.3c-19-5.8-38-11.5-57-17.3c-6.3-4.9-10.4-12.2-16.1-17.8
		c17.1,5.6,35.4,6.4,53.2,6.7c15.7,0.1,31.4-0.6,46.9-3.4c5.1-1.1,10.4-2.1,14.8-5c2.1-1.2,1.6-4.5-0.6-5.4
		c-6.4-3.6-13.8-4.6-21-5.7C232.2,199.7,240.2,191.8,245.5,182.2z"/>
	<path class="st0" d="M395.4,198.6c5.1-1.5,11.1,1.3,13,6.3c-1.4,8.5-14.2,10.5-18.7,3.4C385.8,204.4,391.6,199.6,395.4,198.6z"/>
	<path class="st0" d="M132.8,208.7c2.6-1.8,4.9-4,7.3-6.1c1.3,1.2,2.5,2.3,3.8,3.5C140.2,206.9,136.5,207.8,132.8,208.7z"/>
	<path class="st0" d="M211.6,252.6c28.1-16.6,56.2-33.2,84.1-50.2c-2.7,10.5-5,21.2-7.6,31.7c-0.4,2-1.7,3.5-3.5,4.5
		c-26.5,16.5-53,33-79.5,49.5c0.5-10.6,0.5-21.3,1.1-31.9C207.7,254.6,209.8,253.7,211.6,252.6 M244.3,238.4
		c-6.1,3.5-7.3,15.7,0.9,17.3c5.2-0.7,7.8-6.9,7.1-11.6C252.1,240.4,248,236.4,244.3,238.4 M230.3,247.4c-6,2.8-7.9,13.6-1.3,16.6
		c4.8,1.5,7.9-4.1,8.4-8.1C238.3,251.9,235,245.9,230.3,247.4 M215.2,257.1c-4.2,2.3-5.9,7.9-4.8,12.4c0.8,3.1,4.2,6.3,7.5,4.5
		c4.7-2.5,6.2-8.8,4.5-13.5C221.2,257.9,218,255.5,215.2,257.1z"/>
	<path class="st0" d="M427.7,204.5c1.4,10.6-3.9,21.5-12.8,27.3c-10,6.6-24,5.1-33.1-2.5c-11.6,7.2-22.8,15.1-34.4,22.3
		c-0.7-1.2-1.4-2.5-2.1-3.7c11.4-7.9,23.1-15.3,34.7-23c5.8,4.1,12.9,6.8,20.1,6.4C414.2,231,426.8,218.6,427.7,204.5z"/>
	<path class="st0" d="M322.9,231.6c2.6,1.1,5.3,2,8,2.9c-7.5,4.8-14.9,9.7-22.3,14.5c0.7,4.1,1.5,8.4,4.2,11.8
		c-6,0.6-12,1.4-17.6,3.3c-2.2,0.8-4.5,1.8-5.9,3.8c-0.2,2.4,2.2,3.7,4.1,4.6c4.9,2.1,10.2,2.9,15.5,3.7c12.8,1.5,25.8,1.5,38.5,0
		c6.7-1,13.6-2,19.3-5.9c-0.2-1.3,0.1-2.9-1.2-3.7c-4.1-3-9.4-3.6-14.2-4.8c0.3-3.2-0.4-6.3-2.4-8.8c4-2.6,8.1-5.2,12.1-7.9
		c14.1,5,28.5,9.5,42.4,15c-22.8,12.5-45.4,25.3-67.9,38.2c-23.9-7.8-47.8-15.4-71.7-23.1c0.5-0.4,1.5-1.3,2.1-1.7
		C285,259.5,304,245.6,322.9,231.6z"/>
	<path class="st0" d="M145.2,238.1c19.7,5.9,39.4,11.7,59,17.7c0,10.8-0.9,21.6-1.1,32.5c-12.2-3.8-24.4-7.8-36.7-11.6l-0.1-0.1
		C159.2,263.8,152.2,251,145.2,238.1z"/>
	<path class="st0" d="M245.1,240.1c1.6-0.9,3.6-0.2,4.4,1.4c2.1,3.8,0.9,9-2.4,11.7c-1.9,1.4-4.6,0.2-5.2-2
		C240.5,247.4,241.6,242.3,245.1,240.1z"/>
	<path class="st0" d="M277.4,245.4c1.6-1,3.2-1.9,4.8-2.7c-2,4.2-5.3,7.7-9.3,10.1c-22.2,13.8-44.3,27.6-66.5,41.4
		c-1.9,1.4-4.4,1.7-6.6,0.8c-24.5-7.8-49-15.5-73.5-23.3c-5.1-1.7-10.6-2.9-15.1-6.1c-2.3-1.6-3.8-4.1-5.4-6.4
		c28.8,9.2,57.7,18.2,86.6,27.4c4,1.3,8.2,2.3,12,4.2C228.6,275.8,253,260.7,277.4,245.4z"/>
	<path class="st0" d="M230.4,249.4c3.9-1.7,5.8,3.7,5.1,6.6c-0.3,3.2-3.5,8.1-7.2,5.7C225.6,257.9,226.6,251.9,230.4,249.4z"/>
	<path class="st0" d="M206.9,296c22.4-13.9,44.7-27.8,67.1-41.6c-4.7,14.3-15.2,25.9-27.5,34.1c-25.1,17.3-58.7,20.8-87.2,10.4
		c-13.8-5.2-26.2-14-35.2-25.7c23.3,7.4,46.5,14.7,69.8,22.1C198,296.4,202.8,299,206.9,296z"/>
	<path class="st0" d="M311.8,255.2c2.5,3.1,4.4,6.6,6.9,9.7c3.4-2.2,6.8-4.5,10.3-6.6c1.3,1.7,2.6,3.4,3.9,5.1
		c-0.7-0.1-2.2-0.2-3-0.3c-3.2,1.9-6.3,4-9.4,6C317.8,264.4,314.2,260.1,311.8,255.2z"/>
	<path class="st0" d="M333.6,265.7c5.4-2.8,10.2-6.7,15.5-9.7c0.2,1.7,0.3,3.3,0.4,5c-4.4,2.9-8.8,5.7-13.1,8.6
		c-1.1-1.7-2.3-3.2-3.7-4.7c0.5-0.5,1-1,1.5-1.5L333.6,265.7z"/>
	<path class="st0" d="M215.4,259.2c1.4-1.3,3.7-0.8,4.7,0.7c2.5,3.9,1.1,9.9-2.9,12.3c-2,1.2-4.2-0.8-4.8-2.6
		C211.2,266,212.5,261.7,215.4,259.2z"/>
	<path class="st0" d="M343,296c19.7-11.1,39.5-22,59.1-33.1c-1.8,7.1-3.1,14.3-4.9,21.4c-0.4,2.1-2.5,2.9-4,4
		c-19.4,11.4-38.8,22.8-58.2,34.2c0.5-7.4,0.6-14.8,1.3-22.2C338.1,298.3,340.8,297.4,343,296 M353.3,294.3
		c-4.3,2.6-4.6,11.8,1.7,11.7c3.8-1.7,5.6-7.4,2.9-10.8C356.7,294,354.8,293.3,353.3,294.3 M343.3,300.3c-2.8,1.6-4.3,5.1-3.8,8.2
		c0.5,2.4,2.9,4.8,5.4,3.7c3.5-1.8,5.1-6.8,3-10.2C346.9,300.9,344.9,299.4,343.3,300.3z"/>
	<path class="st0" d="M262.4,277c3.3,0.3,6.4,1.9,9.7,2.8c20.6,7,41.4,13.2,62.1,20c-0.1,7.7-1.2,15.3-1.2,23
		c-22.9-7.8-45.7-15.6-68.6-23.3c-2.2-0.7-4.2-1.8-6.2-2.8c0.6-5,1.4-9.9,2.1-14.9C260.6,280.1,261.1,278.3,262.4,277z"/>
	<path class="st0" d="M423.4,278.5c10.6-2.6,17.9,12.4,11,19.9c-3.8,4-10.5,3-13.6-1.3C415.5,292,415.9,281.1,423.4,278.5
		 M420.4,282.9c4.9,3.8,9.6,7.8,14.6,11.4c1-5.3-0.9-11.7-6.4-13.7C425.6,279.1,422.7,281.1,420.4,282.9 M420.9,285.7
		c0.9,3.8,1.8,7.5,2.7,11.3c3-0.5,6.1-1.2,9-2C428.8,291.9,424.8,288.8,420.9,285.7z"/>
	<path class="st0" d="M241.7,293.8c6-3.9,12-7.7,17-12.7c-5.9,37.9-11.5,75.9-17.3,113.8c-1.6,9.6-2.6,19.3-4.8,28.9
		c-2.8,8.6-8.5,16-15.8,21.2C227.7,394.6,234.7,344.2,241.7,293.8z"/>
	<path class="st0" d="M334,325c19.3-10.7,38-22.5,57.4-33.3c-1.9,2.6-4.2,5-7,6.6c-16.1,9.5-32.2,19-48.3,28.6
		c-1.8,1.2-4.1,1.4-6.1,0.6c-19.2-6.6-38.5-13.1-57.8-19.7c-3.7-1.1-6.6-3.9-9-6.8C286.7,308.9,310.3,317.2,334,325z"/>
	<path class="st0" d="M214.3,304.1c9-1.8,17.6-5.1,25.6-9.6c-6.8,48.6-13.5,97.1-20.2,145.7c-0.4,2-0.3,4.3-1.3,6.2
		c-3.5,2.4-7.8,3.3-11.8,4.4C209.2,402,211.7,353,214.3,304.1z"/>
	<path class="st0" d="M354.1,296.1c1.8-1.3,3.7,1.1,3.2,2.9c-0.2,2.2-1.1,6-4.2,4.9C350.8,302,351.8,297.6,354.1,296.1z"/>
	<path class="st0" d="M154,298.6c7.6,3.6,15.8,5.6,24.1,6.8c1.1,14.3,2.1,28.5,3.1,42.8c-0.1,1.5,0.5,2.9,1.9,3.6
		c-0.5-15.4-2.1-30.7-3.1-46c10.7,0.9,21.6,1,32.2-1.2c-2.6,48.8-5.2,97.7-7.7,146.5c-4.4,0.7-8.9,0-13.2-1
		c-2.4-29.7-4.9-59.4-7.3-89c0-1.5-0.3-3-2-3.4c2.1,30.7,5,61.3,7.4,92c-4-1.4-7.7-3.3-11.1-5.8c-6.9-41-13.8-82-20.7-123
		c-0.2-1.3-0.8-2.5-1.7-3.5c0.1-0.4,0.2-1.2,0.2-1.6C156.8,310,154.7,304.3,154,298.6z"/>
	<path class="st0" d="M339.7,326.8c14.7-8.8,29.5-17.4,44.2-26.2c-0.9,12.8-10.1,23.3-20.7,29.6c-14.6,9.2-32.6,11-49.4,8.4
		c-16.5-2.8-33.1-12.4-40.1-28.2c16.6,5.5,33.2,11.2,49.8,16.8c3.1,1,6.1,2.4,9.4,2.7C335.5,329.5,337.6,328,339.7,326.8z"/>
	<path class="st0" d="M344.1,302.1c2.7-0.5,3.3,3.2,2.7,5.1c-0.2,2.4-3.5,5.1-5.3,2.5C340.7,307,341.5,303.3,344.1,302.1z"/>
	<path class="st0" d="M426,333.4c15.4-8.7,30.7-17.5,46.2-26c-1.6,5.3-3.2,10.7-4.8,16c-14.1,8.2-28.2,16.6-42.3,24.9
		C425.4,343.4,425.7,338.4,426,333.4 M429.2,334.2c-3,2.1-2.7,8.4,1.7,8.3c2.4-1.3,3.6-4.5,2.6-7.1
		C432.7,334.1,430.5,333.2,429.2,334.2z"/>
	<path class="st0" d="M374.4,324.5c1.3-2,2.9-3.8,4.5-5.7c15.1,4.7,30.1,9.8,45.2,14.6c-0.4,5.1-0.9,10.2-1,15.4
		c-16.6-6-33.3-12-49.9-18C373.5,328.6,373.8,326.5,374.4,324.5z"/>
	<path class="st0" d="M361.5,333.5c3.5-2.6,7.5-4.5,10.7-7.4c-4.5,25.3-8.8,50.6-13.2,75.9c-1.4,7.2-2.2,14.6-4.3,21.7
		c-1.6,5.3-5.8,9.2-9.9,12.7c4.1-25.8,8.2-51.7,12.4-77.5C358.7,350.5,359.5,341.8,361.5,333.5z"/>
	<path class="st0" d="M425.4,350.5c10.7-6.3,21.4-12.8,32.1-19.1c-4.3,11-14.9,18.6-26.3,20.8c-10.2,2-21.3,2.1-30.9-2.4
		c-6.5-2.7-12-7.4-16.1-13.1c12.5,4.5,25,9,37.5,13.6C422.9,350.6,424.3,351.4,425.4,350.5z"/>
	<path class="st0" d="M341.2,340.5c6.3-1.2,12.4-3,18.1-6c-5.6,34.4-10.9,68.9-16.6,103.3c-2.9,1.4-6,2.5-9.1,3.4
		C336.1,407.5,338.6,374,341.2,340.5z"/>
	<path class="st0" d="M297.5,335.5c5.4,2.5,11.1,4.2,17,5c1.9,33.1,3.8,66.2,5.8,99.4c-2.4-1.2-4.8-2.6-7-4.1
		C308,402.4,302.8,369,297.5,335.5z"/>
	<path class="st0" d="M429.8,341.1c-1.1-2.2-0.9-5.4,2.2-5.6C432.1,337.7,431.8,339.8,429.8,341.1z"/>
	<path class="st0" d="M316.3,340.9c7.7,0.8,15.4,0.9,23-0.1c-2.5,33.5-5,67-7.6,100.6c-3.2,0.1-6.4-0.2-9.6-0.8
		C320,407.4,318.3,374.1,316.3,340.9z"/>
	<path class="st0" d="M442.8,352.7c0.2-4,4.7-5.3,7.3-7.5c-3.9,22.2-7.5,44.5-11.6,66.6c-1.7,2.2-3.9,3.9-6,5.7
		C436,395.9,439.4,374.3,442.8,352.7z"/>
	<path class="st0" d="M390.9,346.6c2.1,1.6,5.2,2.5,6.5,4.8c3.9,23.9,7.4,47.8,11.2,71.7c-2.2-2.9-4.3-6-4.9-9.6
		C399.3,391.2,395.2,368.9,390.9,346.6z"/>
	<path class="st0" d="M429.4,354.8c4.1-1,8-2.3,11.8-4c-3.1,19.4-6.2,38.8-9.3,58.2c-0.6,3.7-1.4,7.4-1.4,11.2l-0.1,1.2l-0.4-1.6
		c-1.9,2.3-3.8,4.6-6.2,6.5C425.8,402.5,427.6,378.6,429.4,354.8z"/>
	<path class="st0" d="M399.3,351.5c3.5,1.6,7.2,2.8,11.1,3.4c1.4,23.9,2.8,47.8,4,71.7c-1.5-1-3.8-1.5-3.9-3.6
		C406.7,399.1,403.1,375.3,399.3,351.5z"/>
	<path class="st0" d="M412.3,355c5.1,0.5,10.2,0.5,15.2,0c-1.9,24.2-3.6,48.3-5.5,72.5c-1.9-0.1-3.8-0.3-5.6-0.5
		C415,403,413.7,379,412.3,355z"/>
	<path class="st0" d="M396.6,414.4c1.5-1.4,3-2.7,4.5-4.1c0.7,4,1.6,8.1,4.1,11.4c3.6,4.9,9.6,7.6,15.6,8c-1.3,1.3-2.5,2.5-3.8,3.8
		c-5.5-4.9-11-9.9-16.6-14.8C398.9,417.4,397.8,415.9,396.6,414.4z"/>
	<path class="st0" d="M358.3,416.4c4.8,3.5,9.9,6.6,14.4,10.4c-14.3,11.4-29.3,21.9-43.8,32.9c-2.5-1.8-5-3.5-7.2-5.6
		c-8.7-9.6-18.8-17.9-27.5-27.5c0.6-3.4,4.4-5.2,6.4-7.9c1.2,6.4,2.7,12.9,6.7,18.2c5.1,6.5,13.2,10.9,21.7,10.5
		c10,0.4,19.4-5.5,24.5-13.9C356.5,428.3,357.6,422.3,358.3,416.4z"/>
	<path class="st0" d="M240.2,416.6c7.1,4.8,14.3,9.5,21.5,14.1c-16.8,13.2-33.7,26.5-50.5,39.7c-4.4-3.1-8.7-6.4-13.2-9.4
		c17.8,0.9,35.3-11.7,39.4-29.1C238.3,426.8,239.8,421.8,240.2,416.6z"/>
	<path class="st0" d="M235.9,430.8c-3.8,17.9-22.8,30.6-40.7,27.8c-3.9-2.5-7.4-5.5-10.8-8.5c10,3.7,21.5,4.7,31.4-0.1
		C224.6,446.3,230.9,438.7,235.9,430.8z"/>
	<path class="st0" d="M289.4,431.5c12.7,9.9,25.5,19.8,38.3,29.7c0,1.2,0,2.5,0,3.7c-11-8.8-22.2-17.5-33.3-26.2
		C292,436.9,290.9,434,289.4,431.5z"/>
	<path class="st0" d="M305.9,431.6c4,3.9,8.1,7.9,13.4,9.9c6.7,2.2,14.2,2.5,20.7-0.4c4.9-1.7,8.4-5.5,12.1-8.9
		c-4.7,8.1-13.7,13.7-23.1,13.5c-3.9-0.2-7.9-1-11.5-2.5C312.5,440.8,308.7,436.3,305.9,431.6z"/>
	<path class="st0" d="M329.7,461.4c13.5-9.9,26.9-20,40.4-30c-1.2,2.2-1.9,5-4,6.5c-12.2,9-24.4,18.1-36.6,27.1
		C329.5,464.1,329.6,462.2,329.7,461.4z"/>
	<path class="st0" d="M201.9,480c19.4-15.1,38.7-30.4,58.1-45.5c-2.6,3.9-4.2,8.6-7.5,12c-16.8,13.1-33.7,26.1-50.5,39.2
		C202,483.8,201.9,481.9,201.9,480z"/>
	<path class="st0" d="M142,436.9c19.3,14.4,38.6,28.9,57.9,43.3c0.1,2,0.2,4,0.3,6c-16.4-12.4-32.8-24.9-49.2-37.2
		C146.9,445.9,144.9,441,142,436.9z"/>
</g>
<g id="_x23_ffffffff">
	<path class="st1" d="M184.4,49.6c1.8-0.6,3.7-0.8,5.6-0.9c97,0,194,0,291,0c3.9,0.1,8.8-0.7,11.8,2.6c1.6,1.4,2.1,3.6,2,5.7
		c0,97,0,194,0,291c-0.1,4,0.7,8.1-1,11.9c-1.3,2.8-3.6,5.1-5.7,7.2c-15.4,15.2-30.5,30.8-46,45.9c-8.9,8.4-17.2,17.5-26,26
		c-5.4,6.3-12,11.5-17.9,17.2c-17.3,14.8-36.9,27.1-57.8,36c-28.4,12-59.4,18-90.2,17.4c-37.6-0.7-75-11.1-107.5-30.2
		c-10.9-6.5-21.2-14.1-31.1-22c-21.7-19-39.9-42.1-53.2-67.7c-14.8-29.7-23.5-62.6-23.9-95.8c-0.9-33.7,6.5-67.5,20.7-98
		c7.2-15.9,16.9-30.6,27.7-44.3c4.6-6.3,10.3-11.7,15.5-17.5c25.4-25.6,50.8-51.1,76.3-76.5C177.6,54.7,180.4,51.2,184.4,49.6
		 M181.4,55.4c-23.9,24.1-48,48-72,72c-14.6,14.2-28.1,29.7-39,47c-15.9,25.3-26.3,54.1-30.8,83.6c-4.6,34.3-1.9,69.8,9.8,102.5
		c9.5,28.1,25.2,54.1,45.4,75.8c8.8,9.9,19.1,18.3,29.4,26.5c27.4,20.9,60.1,34.5,94,40.5c27.4,4.3,55.7,3.8,82.9-2.1
		c16.9-3.8,33.3-9.9,49-17.1c23.2-11.7,44.2-27.5,62.4-46l0.2,0.1c1.1-1.5,2.2-2.9,3.8-4c-8.2-6.7-16.7-13.1-24.9-19.7
		c2.9-2.4,6.2-4.4,9.3-6.5c0.1,0.6,0.3,1.7,0.4,2.3c-1.5,1.4-3,2.7-4.5,4.1c1.1,1.5,2.3,3.1,3.8,4.3c5.6,4.8,11.1,9.8,16.6,14.8
		c1.3-1.2,2.5-2.5,3.8-3.8c1.1-1.1,2.1-2.1,3.2-3.1l0-0.3c2.3-1.9,4.3-4.2,6.2-6.5l0.4,1.6l0.1-1.2c0.7-0.9,1.3-1.7,1.9-2.6
		c2.1-1.8,4.3-3.5,6-5.7c1.7-1.7,3.3-3.5,5-5.2c15.9-15.9,31.9-31.6,47.4-47.9c0.6-4.9,0.6-9.8,0.5-14.7c0-95.7,0-191.4,0-287
		c0.5-3.2-2.5-5.4-5.5-5c-99,0-198,0-297.1,0C186,51.8,183.3,53.2,181.4,55.4z"/>
	<path class="st1" d="M104,71.9c1.8-4,1-9,3.7-12.5c1.4,5.3,1.8,10.9,4.2,15.9c1.3,3,3.7,5.3,6,7.6c-2.6,2.5-5.1,5.2-6.3,8.6
		c-2.2,4.8-2.2,10.2-4.4,15c-1.8-5.2-2.1-10.9-4.7-15.9c-1.4-2.9-3.7-5.1-5.5-7.7C99.8,79.6,102.9,76.3,104,71.9z"/>
	<path class="st1" d="M225.3,114.6c21.8-13.5,43.4-27.3,65.1-40.8c4.7,7.6,9.5,15.1,14.2,22.7c-3.9,2.4-7.8,4.8-11.6,7.3
		c2.8,4.7,5.7,9.3,8.6,14c-6.5,4.2-13.1,8.3-19.7,12.5c-3-4.6-5.8-9.4-8.9-13.9c-11.1,7-22.3,14-33.4,21c3,10.2,4.4,21.1,2.1,31.7
		c-2.9,12.2-9,23.9-18.2,32.5c-10.9,9.5-24.9,16.2-39.6,16c-17.7,0.3-35.3-7.3-47-20.7c-1.4-7.3-3.6-14.4-4.1-21.9
		c-2.7-26.4,6.7-53.8,25.3-72.8c20.1-9.2,45.4-5.9,62.3,8.5C222.1,112,223.6,113.4,225.3,114.6 M173.5,125.8
		c-5.4,1.6-10.1,4.8-14.2,8.6c-6.1,5.8-8.9,14.3-9.5,22.6c0.1,7.6,2.7,15.1,7.3,21.1c5.6,6.7,14,11.3,22.8,11.8
		c11.6,1.4,23.2-4.8,29.8-14.1c5.7-8.9,7.6-20.6,3.2-30.5c-2.5-5.5-5.7-11-10.8-14.4C194.1,124.8,183.1,123.1,173.5,125.8z"/>
	<path class="st1" d="M91.6,98.4c1.2,2.8,2.7,5.4,4.5,7.9c-1.8,2.5-3.3,5.2-4.5,8c-1.1-2.8-2.7-5.4-4.2-8
		C88.9,103.7,90.6,101.2,91.6,98.4z"/>
	<path class="st1" d="M271.4,142.2c2.3,2.8,1.9,6.7,3.2,10c0.8,3.2,3.2,5.4,5.2,7.9c-1.9,2.8-4.4,5.2-5.3,8.5
		c-0.9,3.2-1.4,6.6-2.6,9.7c-1.5-2.9-1.9-6.2-2.7-9.4c-0.9-3.4-3.2-6.2-5.4-8.9C269.1,155.6,269.9,148.5,271.4,142.2z"/>
	<path class="st1" d="M167.7,172.3c5.5-2.8,10.3-7.4,16.6-8.6c-4.2,4.1-8.8,7.8-13.2,11.8C169.9,174.4,168.8,173.3,167.7,172.3z"/>
	<path class="st1" d="M93.4,216.4c13-7.7,25.9-15.4,38.8-23.1c2.3,3.4,4.9,6.5,7.9,9.4c-2.4,2.1-4.7,4.2-7.3,6.1
		c-2.8,1.3-5.8,2.5-7.4,5.3c1.2,1.6,2.8,2.8,4.3,4.1c5.7,5.6,9.7,12.9,16.1,17.8c-16.6-5-33.3-10.1-49.9-15c-1.7-0.5-3.4-1-5-1.9
		C90.8,217.6,92.3,217,93.4,216.4z"/>
	<path class="st1" d="M91.4,221.5c18,5.4,35.8,11.1,53.8,16.7c7,12.8,14.1,25.7,21.2,38.5c-20.8-6.5-41.5-13.1-62.2-19.7
		c-2.7-0.7-4.1-3.3-4.7-5.8C96.7,241.2,94,231.4,91.4,221.5z"/>
	<path class="st1" d="M312.4,235.3c3.3-1.7,6.5-5,10.5-3.7c-18.9,14-38,27.9-57,41.7c3.4-4.9,6.6-9.9,8.9-15.4
		C287.1,250,299.9,242.9,312.4,235.3z"/>
	<path class="st1" d="M134,286.5c0.2,0,0.5,0,0.6,0c4.9,4.6,11,7.9,16.9,11c2.5,5.7,1,13,4.6,18.3c0,0.4-0.1,1.2-0.2,1.6
		c-0.3,1.6-0.3,3.1,0.1,4.7c6.8,40.2,13.5,80.4,20.3,120.5c-4.6-4.4-9.1-9.5-11.3-15.6c-1.6-5.6-3.1-11.3-4.2-17.1
		c-8.2-38.6-16.4-77.1-24.6-115.7C135.6,291.6,135.4,288.8,134,286.5z"/>
	<path class="st1" d="M385.6,302.5c7.4-4.7,15-9,22.3-13.8c0.1,1.6,0.3,3.3,0.1,5c-1,1.5-2.2,2.7-3.5,3.9
		c-6.9,6.8-13.6,13.8-20.5,20.6c-1.3-0.5-2.6-0.9-3.9-1.3C383.1,312.6,384.8,307.6,385.6,302.5z"/>
	<path class="st1" d="M285.3,327.9c3.1,2.7,6.8,4.6,10.2,6.8c5.2,33.1,10.4,66.2,15.5,99.3c-2.6-2.7-5.2-5.5-6.5-9.1
		c-1.8-5.6-2.6-11.3-3.8-17C295.5,381.2,290.5,354.5,285.3,327.9z"/>
	<path class="st1" d="M286,426.1c4.7-3.2,9.3-7,14.6-9.1c0,0.4,0,1.3,0,1.7c-2,2.7-5.8,4.4-6.4,7.9c8.7,9.6,18.7,17.9,27.5,27.5
		c-8.7-6.5-17.2-13.3-25.8-19.9C292.6,431.5,289,429.2,286,426.1z"/>
	<path class="st1" d="M140.1,433c6.9-4.8,13.9-9.6,20.7-14.5c2.1,9.4,3.2,19.6,9.2,27.6c6.7,8.6,17.2,14,28,15
		c4.5,3,8.7,6.3,13.2,9.4c-3.5,2.7-7,5.4-10.4,8.2C180.5,463.4,160.4,448.2,140.1,433z"/>
	<path class="st1" d="M195.2,458.5c-13.7-1.5-26.2-12-29.3-25.6c4.3,7.4,11.2,12.8,18.5,17.1C187.8,453,191.3,456,195.2,458.5z"/>
</g>
<g id="_x23_010000ff">
	<path class="st2" d="M234,107c21.8-13.7,43.5-27.5,65.5-40.9c5.5,8.5,10.9,17.1,16.1,25.8c-3.9,2.4-7.8,4.8-11.5,7.4
		c3,4.6,5.9,9.2,8.7,13.9c-10.2,6.9-20.8,13.2-31.4,19.6c-3-4.5-5.9-9.1-8.7-13.8c-7.5,4.7-15,9.4-22.4,14.1c5,15.6,3.5,33-3.9,47.6
		c15.6,4.7,31.2,9.4,46.9,14.1c1.5,0.5,3,0.9,4.3,1.8c1.2,2.1,0.3,4.5-0.1,6.7c-2.5,10-4.8,20.1-7.2,30.2c-0.5,2.4-1.8,4.5-3.7,6.1
		c-2.4,2.1-3.1,5.5-5,8c-2,2.7-4.7,4.9-6.7,7.7c14.2-7.7,27.9-16.3,42-24.4c1.3-0.6,2.7-1.7,4.2-1.4c4.1,0.8,7.9,2.5,11.9,3.8
		c12.2-8,24.5-15.9,36.8-23.9c-1.2-6.1-1.3-12.6,1.2-18.4c4.2-11.4,16.1-19.4,28.3-18.8c8,0.4,15.9,3.7,21.2,9.8
		c5.7,6,8,14.2,9.2,22.2c1.8,12.4-5.2,25.4-16.5,30.8c-10.1,4.8-22.5,3.4-31.5-3.1c-6.2,3.9-12.4,8-18.6,12
		c12.3,4.2,24.5,8.6,36.9,12.7c1.6,0.6,3.3,1.2,4.8,2.1c0.1,2.6-0.8,5.1-1.3,7.6c-1.5,6.1-2.6,12.2-4.2,18.3
		c-0.7,3.5-4.8,4.4-6.2,7.4c-1.8,3.5-4.7,6.2-7.6,8.8c7.6-4.4,15.1-9.2,22.6-13.7c0,0.5,0.1,1.4,0.1,1.9c-7.3,4.8-15,9.1-22.3,13.8
		c-0.9,5.1-2.6,10.1-5.5,14.4c1.3,0.4,2.6,0.9,3.9,1.3c13.6,4.4,27.2,8.9,40.8,13.3c15.7-8.6,31.1-17.7,46.8-26.3
		c-7.6-2.7-15.1-5.4-22.7-8.2c-1.6-0.4-2.8-1.6-3.7-3c10.1,2.9,19.8,7.2,29.8,10.4c-2.1,6.7-4,13.5-6.1,20.1c-3,1.8-6.2,3.2-8.9,5.5
		c-1.6,2.5-2.3,5.6-4,8c-1.5,2.4-3.9,4.6-4.2,7.6c-3.4,19.9-6.7,39.9-10.3,59.8c0.5,0.3,1.5,0.8,2,1.1c-1.7,1.7-3.3,3.5-5,5.2
		c4.1-22.2,7.6-44.4,11.6-66.6c-2.6,2.2-7.1,3.5-7.3,7.5c-3.4,21.6-6.8,43.2-10.2,64.8c-0.6,0.9-1.2,1.8-1.9,2.6
		c0-3.8,0.8-7.5,1.4-11.2c3.1-19.4,6.1-38.8,9.3-58.2c-3.8,1.7-7.8,3-11.8,4c-1.8,23.8-3.6,47.6-5.4,71.5l0,0.3
		c-1.1,1-2.2,2.1-3.2,3.1c-6-0.3-12-3-15.6-8c-2.5-3.3-3.4-7.5-4.1-11.4c-0.1-0.6-0.3-1.7-0.4-2.3c-3.1,2.1-6.4,4.1-9.3,6.5
		c8.2,6.6,16.7,13,24.9,19.7c-1.5,1-2.7,2.5-3.8,4l-0.2-0.1c-5.6-4.5-11.2-9.2-16.8-13.7c-2.6-1.9-3.8-5-5-7.9
		c-0.4-1.2-1.3-2.8,0.1-3.7c3-2.6,6.4-4.5,9.6-6.7c-3.7-19.4-7.4-38.9-11.1-58.3c-0.6-3.7-3.6-6.3-5.6-9.3c-2.2-3.8-7-4.3-10.7-5.8
		c-4.7,27.2-9.4,54.4-14.1,81.6c5,3.8,10.6,6.7,15.2,11c0.1,1.5-0.1,3.1-0.3,4.6c4.2,2.3,8.5,4.6,12.5,7.2c-2,1.4-4,2.8-6.2,4
		c-16.7,9.8-33.3,19.8-50,29.6c-5.8-6.8-13.2-11.9-20.2-17.5c-5.2-4.1-10.5-8.2-15.7-12.3c-3.8-2.7-5.5-7.2-7.9-11
		c-0.9-1.6-2.5-3.8-0.8-5.4c4.5-3.8,9.7-6.5,14.5-9.9c-5.5-28.5-11-57-16.4-85.6c-0.2-3.6-3.5-5.5-5.5-8c-2.9-3.1-4.3-7.2-6.4-10.8
		c-2.2-2-5.5-2.8-7.4-5.3c-1.8-2.4-3.6-4.9-6.2-6.5c-6,38.6-11.6,77.2-17.4,115.8l0.3,0.7c7.9,5.1,15.6,10.5,23.6,15.5
		c-1.2,2.2-2.5,4.4-3.8,6.6c6.9,4.4,13.8,8.6,20.6,13.1c-26,14.4-52.1,28.6-78.3,42.8c-18.1-14.5-36.3-29-54.6-43.2
		c-4.9-4.8-7.6-11.3-11.7-16.8c8-5.4,15.8-10.8,23.6-16.4c-8.7-40.8-17.3-81.6-26-122.4c-0.8-3-0.9-6.3-2.3-9.1
		c-3.1-3.5-6.7-6.7-9.4-10.6c-1.8-3-5.5-3.3-8.4-4.6c-4.1-1.5-7.2-4.9-9.5-8.5c-1.8-3.2-5.9-4.5-6.7-8.3
		c-2.9-10.2-5.5-20.5-8.4-30.7c-0.4-1.8-1.2-3.9-0.1-5.6c2.6-2.2,5.7-3.6,8.6-5.4c11-6.4,21.9-12.9,32.8-19.3c-2.4-4.2-5-8.4-6.7-13
		c-6.1-15.2-4.7-32.8,1.9-47.6c5.7-13.1,16.4-23.4,28.8-30.2c8.8-5.5,18.5-9.8,28.9-10.9C202,88.3,220.9,94.3,234,107 M225.3,114.6
		c-1.7-1.3-3.3-2.6-4.9-4c-16.9-14.4-42.2-17.7-62.3-8.5c-10.2,4.8-19.2,12.1-25.7,21.4c-8.2,12.7-12.1,28.5-9.3,43.6
		c1.6,11,6.9,21.1,13.8,29.7c11.7,13.4,29.3,21,47,20.7c14.7,0.2,28.7-6.5,39.6-16c9.2-8.7,15.3-20.3,18.2-32.5
		c2.2-10.5,0.8-21.4-2.1-31.7c11.1-7,22.2-14,33.4-21c3.1,4.5,5.9,9.3,8.9,13.9c6.6-4.1,13.2-8.3,19.7-12.5c-2.9-4.6-5.8-9.3-8.6-14
		c3.8-2.6,7.7-4.9,11.6-7.3c-4.7-7.6-9.5-15.1-14.2-22.7C268.7,87.3,247.1,101.1,225.3,114.6 M376.1,185c-5.3,7.1-6.7,16.6-4.3,25
		c-20.3,13.3-40.7,26.6-61,39.8c2.8,4.2,5.5,8.4,8.3,12.6c3.3-2,6.3-4.6,9.9-6c3,0.9,4,4.3,5.7,6.5c4.3-2.7,8.5-5.5,12.7-8.2
		c-1.4-2.2-3.1-4.3-3.9-6.8c0.7-2,2.7-3.1,4.3-4.2c10.8-7,21.5-14.1,32.2-21.2c4.4,3.4,9.5,6.3,15.1,6.6c9.4,1.2,18.9-3.1,25-10.2
		c5.1-6.3,7-14.9,5.6-22.9c-2-9.6-9.4-18.1-18.9-20.9C395.8,171.4,382.8,175.6,376.1,185 M245.5,182.2c-5.2,9.6-13.2,17.4-22.4,23.2
		c7.2,1,14.6,2.1,21,5.7c2.1,0.9,2.6,4.1,0.6,5.4c-4.4,3-9.7,3.9-14.8,5c-15.4,2.8-31.2,3.5-46.9,3.4c-17.9-0.3-36.1-1.1-53.2-6.7
		c-1.5-1.3-3.1-2.6-4.3-4.1c1.6-2.8,4.6-4,7.4-5.3c3.7-0.9,7.4-1.9,11.1-2.5c-1.3-1.2-2.6-2.3-3.8-3.5c-3-2.8-5.6-6-7.9-9.4
		c-12.9,7.7-25.9,15.4-38.8,23.1c-1.1,0.7-2.6,1.2-2.5,2.7c1.6,0.9,3.3,1.4,5,1.9c16.7,4.9,33.3,10,49.9,15c19,5.8,38,11.5,57,17.3
		c2.7,1.3,4.9-1.2,7.2-2.3c25.2-14.8,50.3-29.7,75.3-44.7c4-2.4,8.1-4.6,11.8-7.4c-1.4-1.2-3-2.1-4.7-2.6
		C276.8,191.7,261.1,186.9,245.5,182.2 M211.6,252.6c-1.8,1.1-3.9,2-5.4,3.6c-0.6,10.6-0.7,21.3-1.1,31.9c26.5-16.5,53-33,79.5-49.5
		c1.8-0.9,3.1-2.5,3.5-4.5c2.7-10.5,5-21.1,7.6-31.7C267.8,219.4,239.7,236,211.6,252.6 M427.7,204.5c-0.9,14.1-13.5,26.5-27.7,26.7
		c-7.2,0.4-14.3-2.3-20.1-6.4c-11.5,7.7-23.3,15.1-34.7,23c0.7,1.2,1.4,2.5,2.1,3.7c11.6-7.2,22.8-15.1,34.4-22.3
		c9.1,7.6,23.1,9,33.1,2.5C423.8,226,429.1,215.1,427.7,204.5 M91.4,221.5c2.6,9.9,5.3,19.8,8,29.6c0.6,2.5,2,5.2,4.7,5.8
		c20.7,6.6,41.5,13.2,62.2,19.7l0.1,0.1c12.3,3.7,24.4,7.8,36.7,11.6c0.2-10.8,1.1-21.6,1.1-32.5c-19.6-6-39.3-11.8-59-17.7
		C127.2,232.6,109.4,226.8,91.4,221.5 M312.4,235.3c-12.5,7.6-25.3,14.7-37.6,22.5c-2.3,5.5-5.5,10.5-8.9,15.4
		c-0.5,0.4-1.6,1.3-2.1,1.7c23.9,7.8,47.8,15.3,71.7,23.1c22.6-12.8,45.2-25.6,67.9-38.2c-14-5.4-28.3-9.9-42.4-15
		c-4,2.6-8.1,5.3-12.1,7.9c2,2.5,2.7,5.7,2.4,8.8c4.8,1.2,10.1,1.8,14.2,4.8c1.3,0.8,1,2.4,1.2,3.7c-5.7,3.9-12.6,5-19.3,5.9
		c-12.8,1.5-25.8,1.5-38.5,0c-5.2-0.8-10.6-1.6-15.5-3.7c-1.9-0.9-4.2-2.1-4.1-4.6c1.4-2,3.7-3,5.9-3.8c5.7-2,11.7-2.7,17.6-3.3
		c-2.7-3.4-3.5-7.6-4.2-11.8c7.5-4.8,14.9-9.7,22.3-14.5c-2.7-0.9-5.4-1.8-8-2.9C318.9,230.3,315.7,233.6,312.4,235.3 M277.4,245.4
		c-24.3,15.2-48.8,30.3-73.1,45.6c-3.8-1.9-7.9-2.9-12-4.2c-28.9-9.1-57.7-18.2-86.6-27.4c1.6,2.2,3.1,4.8,5.4,6.4
		c4.5,3.2,9.9,4.4,15.1,6.1c24.5,7.8,49,15.5,73.5,23.3c2.2,0.9,4.7,0.6,6.6-0.8c22.1-13.8,44.3-27.6,66.5-41.4
		c4-2.4,7.3-5.9,9.3-10.1C280.5,243.6,278.9,244.5,277.4,245.4 M206.9,296c-4,3-8.9,0.4-13.1-0.8c-23.3-7.4-46.5-14.7-69.8-22.1
		c9,11.7,21.4,20.5,35.2,25.7c28.5,10.5,62.1,6.9,87.2-10.4c12.3-8.3,22.8-19.9,27.5-34.1C251.6,268.2,229.2,282.1,206.9,296
		 M311.8,255.2c2.4,4.9,6,9.2,8.8,13.9c3.1-2,6.2-4.1,9.4-6c0.7,0.1,2.2,0.2,3,0.3c-1.3-1.7-2.6-3.4-3.9-5.1
		c-3.5,2.1-6.9,4.4-10.3,6.6C316.2,261.8,314.3,258.2,311.8,255.2 M333.6,265.7l0.6-2.2c-0.5,0.5-1,1-1.5,1.5c1.3,1.5,2.6,3,3.7,4.7
		c4.3-2.9,8.7-5.8,13.1-8.6c-0.1-1.7-0.2-3.3-0.4-5C343.8,259,339,262.8,333.6,265.7 M343,296c-2.2,1.4-4.9,2.3-6.7,4.2
		c-0.7,7.4-0.8,14.8-1.3,22.2c19.4-11.4,38.8-22.8,58.2-34.2c1.5-1.1,3.7-1.9,4-4c1.8-7.1,3.1-14.3,4.9-21.4
		C382.5,274,362.7,284.9,343,296 M262.4,277c-1.4,1.2-1.9,3-2.1,4.8c-0.8,4.9-1.5,9.9-2.1,14.9c2,1.1,4.1,2.1,6.2,2.8
		c22.9,7.7,45.7,15.5,68.6,23.3c0-7.7,1-15.3,1.2-23c-20.7-6.8-41.5-12.9-62.1-20C268.9,278.9,265.8,277.4,262.4,277 M241.7,293.8
		c-7,50.4-13.9,100.8-20.9,151.2c7.3-5.2,13-12.6,15.8-21.2c2.2-9.5,3.2-19.2,4.8-28.9c5.8-37.9,11.4-75.9,17.3-113.8
		C253.6,286.1,247.6,290,241.7,293.8 M134,286.5c1.3,2.4,1.5,5.1,2.2,7.7c8.2,38.6,16.4,77.1,24.6,115.7c1.1,5.8,2.6,11.4,4.2,17.1
		c2.2,6.1,6.7,11.2,11.3,15.6c-6.8-40.2-13.5-80.4-20.3-120.5c-0.4-1.6-0.4-3.1-0.1-4.7c0.9,0.9,1.6,2.2,1.7,3.5
		c6.8,41,13.8,82,20.7,123c3.4,2.5,7.2,4.4,11.1,5.8c-2.3-30.7-5.3-61.3-7.4-92c1.7,0.4,2,1.8,2,3.4c2.4,29.7,4.9,59.4,7.3,89
		c4.3,1,8.8,1.7,13.2,1c2.5-48.9,5.1-97.7,7.7-146.5c-10.6,2.2-21.5,2.1-32.2,1.2c1,15.3,2.5,30.6,3.1,46c-1.4-0.7-2-2.1-1.9-3.6
		c-1-14.3-2-28.5-3.1-42.8c-8.3-1.1-16.5-3.2-24.1-6.8c0.7,5.7,2.8,11.4,2.1,17.2c-3.6-5.3-2-12.5-4.6-18.3c-5.9-3.1-12-6.4-16.9-11
		C134.5,286.5,134.2,286.5,134,286.5 M334,325c-23.7-7.8-47.3-16.1-70.9-24c2.5,2.9,5.3,5.6,9,6.8c19.2,6.6,38.5,13.1,57.8,19.7
		c2,0.8,4.3,0.7,6.1-0.6c16.1-9.6,32.2-19.1,48.3-28.6c2.8-1.6,5.1-4,7-6.6C372,302.5,353.3,314.4,334,325 M214.3,304.1
		c-2.6,48.9-5.1,97.8-7.7,146.7c4-1.2,8.3-2,11.8-4.4c1-1.9,0.9-4.2,1.3-6.2c6.7-48.6,13.4-97.1,20.2-145.7
		C231.9,299.1,223.3,302.4,214.3,304.1 M339.7,326.8c-2.1,1.2-4.2,2.8-6.7,3.2c-3.3-0.2-6.3-1.7-9.4-2.7
		c-16.6-5.6-33.2-11.3-49.8-16.8c7,15.8,23.5,25.5,40.1,28.2c16.7,2.6,34.8,0.8,49.4-8.4c10.6-6.3,19.8-16.8,20.7-29.6
		C369.2,309.4,354.4,318,339.7,326.8 M426,333.4c-0.3,5-0.6,10-0.9,15c14.1-8.3,28.2-16.6,42.3-24.9c1.6-5.3,3.2-10.7,4.8-16
		C456.7,315.9,441.4,324.7,426,333.4 M374.4,324.5c-0.6,2-0.9,4.2-1.2,6.3c16.6,6,33.2,12,49.9,18c0.2-5.1,0.6-10.2,1-15.4
		c-15.1-4.8-30.1-9.9-45.2-14.6C377.3,320.6,375.7,322.4,374.4,324.5 M361.5,333.5c-2.1,8.3-2.8,16.9-4.4,25.4
		c-4.1,25.8-8.2,51.7-12.4,77.5c4.1-3.6,8.2-7.4,9.9-12.7c2.1-7.1,3-14.4,4.3-21.7c4.4-25.3,8.8-50.6,13.2-75.9
		C369,329,365,330.9,361.5,333.5 M285.3,327.9c5.2,26.7,10.3,53.4,15.4,80c1.1,5.7,2,11.5,3.8,17c1.3,3.6,3.9,6.4,6.5,9.1
		c-5.1-33.1-10.3-66.2-15.5-99.3C292,332.4,288.4,330.6,285.3,327.9 M425.4,350.5c-1.1,0.9-2.5,0.2-3.6-0.2
		c-12.5-4.6-25-9-37.5-13.6c4.1,5.7,9.6,10.4,16.1,13.1c9.6,4.5,20.7,4.5,30.9,2.4c11.4-2.2,22-9.9,26.3-20.8
		C446.8,337.7,436.1,344.2,425.4,350.5 M341.2,340.5c-2.6,33.5-5.1,67.1-7.6,100.6c3.1-0.8,6.2-1.9,9.1-3.4
		c5.6-34.4,11-68.9,16.6-103.3C353.6,337.5,347.5,339.3,341.2,340.5 M297.5,335.5c5.3,33.4,10.5,66.9,15.7,100.3
		c2.2,1.5,4.6,2.8,7,4.1c-1.9-33.1-3.8-66.2-5.8-99.4C308.5,339.8,302.9,338,297.5,335.5 M316.3,340.9c2,33.2,3.7,66.5,5.8,99.7
		c3.2,0.6,6.4,0.9,9.6,0.8c2.5-33.5,5-67,7.6-100.6C331.7,341.9,324,341.8,316.3,340.9 M390.9,346.6c4.4,22.3,8.5,44.6,12.8,66.9
		c0.7,3.6,2.8,6.7,4.9,9.6c-3.8-23.9-7.4-47.8-11.2-71.7C396,349,393,348.2,390.9,346.6 M399.3,351.5c3.8,23.8,7.4,47.7,11.2,71.5
		c0.1,2.1,2.5,2.6,3.9,3.6c-1.2-23.9-2.7-47.8-4-71.7C406.5,354.3,402.8,353.1,399.3,351.5 M412.3,355c1.4,24,2.7,48,4.1,72
		c1.9,0.2,3.7,0.4,5.6,0.5c1.9-24.2,3.7-48.3,5.5-72.5C422.4,355.5,417.3,355.5,412.3,355 M358.3,416.4c-0.8,5.9-1.8,11.9-4.8,17.1
		c-5.1,8.4-14.5,14.3-24.5,13.9c-8.5,0.4-16.5-4-21.7-10.5c-4-5.3-5.5-11.8-6.7-18.2c0-0.4,0-1.3,0-1.7c-5.3,2.1-9.8,5.9-14.6,9.1
		c3,3,6.6,5.4,9.9,8c8.6,6.6,17.1,13.4,25.8,19.9c2.2,2.1,4.8,3.8,7.2,5.6c14.6-11,29.5-21.5,43.8-32.9
		C368.2,423,363.1,419.9,358.3,416.4 M240.2,416.6c-0.4,5.2-1.8,10.2-2.7,15.3c-4.1,17.4-21.7,30-39.4,29.1
		c-10.8-0.9-21.3-6.4-28-15c-6-7.9-7.1-18.1-9.2-27.6c-6.9,4.9-13.8,9.7-20.7,14.5c20.3,15.1,40.4,30.4,60.7,45.6
		c3.5-2.8,6.9-5.5,10.4-8.2c16.8-13.2,33.6-26.5,50.5-39.7C254.4,426.1,247.3,421.4,240.2,416.6 M235.9,430.8
		c-5,7.9-11.3,15.5-20.2,19.1c-9.8,4.9-21.3,3.9-31.4,0.1c-7.3-4.3-14.2-9.6-18.5-17.1c3.1,13.6,15.5,24,29.3,25.6
		C213.1,461.4,232.1,448.6,235.9,430.8 M289.4,431.5c1.4,2.5,2.6,5.4,5,7.2c11.1,8.7,22.2,17.4,33.3,26.2c0-1.2,0-2.5,0-3.7
		C314.9,451.3,302.2,441.5,289.4,431.5 M305.9,431.6c2.8,4.7,6.6,9.2,11.6,11.6c3.6,1.5,7.6,2.3,11.5,2.5
		c9.4,0.2,18.4-5.4,23.1-13.5c-3.7,3.4-7.3,7.2-12.1,8.9c-6.5,2.9-14,2.7-20.7,0.4C314,439.5,309.9,435.5,305.9,431.6 M329.7,461.4
		c-0.1,0.9-0.2,2.7-0.2,3.6c12.2-9,24.4-18.1,36.6-27.1c2.2-1.5,2.8-4.2,4-6.5C356.6,441.3,343.2,451.5,329.7,461.4 M201.9,480
		c0,1.9,0.1,3.8,0.1,5.7c16.8-13.1,33.7-26.1,50.5-39.2c3.3-3.4,4.9-8,7.5-12C240.6,449.6,221.3,464.9,201.9,480 M142,436.9
		c2.9,4,4.9,9,9,12c16.4,12.4,32.8,24.9,49.2,37.2c-0.1-2-0.2-4-0.3-6C180.6,465.8,161.3,451.3,142,436.9z"/>
	<path class="st2" d="M173.5,125.8c9.6-2.7,20.6-0.9,28.7,5.1c5.1,3.4,8.3,8.9,10.8,14.4c4.3,9.9,2.5,21.6-3.2,30.5
		c-6.6,9.3-18.2,15.5-29.8,14.1c-8.8-0.4-17.2-5.1-22.8-11.8c-4.6-6-7.2-13.6-7.3-21.1c0.6-8.2,3.3-16.8,9.5-22.6
		C163.4,130.5,168.1,127.3,173.5,125.8 M170.4,129.2c-11.8,10.1-13.3,29.6-3.7,41.7c4.7-2.7,9.2-5.7,14.1-8.1
		c2.3-1.2,4.9-0.4,7.2,0.2c7.6,2.3,15.2,4.6,22.9,6.9c2.9-7.1,3.8-15.4,0.9-22.7c-2.6-7.5-8.3-13.8-15.3-17.5
		C188.4,125.9,178.4,124.9,170.4,129.2 M167.7,172.3c1.1,1.1,2.2,2.2,3.3,3.2c8,6.5,19.5,9.4,29.4,6c4.7-1.4,7.1-6.1,9.5-9.9
		c-8.6-2.7-17.2-5.1-25.7-7.9C178,164.9,173.2,169.5,167.7,172.3z"/>
	<path class="st2" d="M396.2,189.2c7.5-1.6,15.3,5,14.9,12.7c0.2,7.2-6.8,13.4-14,12.4c-6.2-0.4-11.5-6.1-11.4-12.4
		C385.4,195.9,390.2,190.1,396.2,189.2 M395.4,198.6c-3.8,1-9.6,5.8-5.7,9.7c4.5,7,17.4,5.1,18.7-3.4
		C406.5,199.9,400.5,197.1,395.4,198.6z"/>
	<path class="st2" d="M244.3,238.4c3.7-2.1,7.8,2,8,5.7c0.6,4.7-1.9,10.9-7.1,11.6C237,254.1,238.2,241.9,244.3,238.4 M245.1,240.1
		c-3.5,2.2-4.6,7.3-3.2,11.1c0.6,2.2,3.3,3.4,5.2,2c3.3-2.7,4.6-7.9,2.4-11.7C248.7,239.9,246.7,239.2,245.1,240.1z"/>
	<path class="st2" d="M448.1,240.8c2.4,1.8,4.8,3.6,7.1,5.5c-0.7,1.4-1.4,2.8-2.1,4.3c2,1.6,4,3.2,6,4.8c-1.5,3-3.1,5.9-4.6,8.9
		c-2.1-1.5-4.1-3-6.2-4.5c-3.1,5.7-6.1,11.5-9.1,17.2c2.5,3.6,4.6,7.7,5.1,12.1c1,7.1-1.8,15.4-8.6,18.7c-5.9,3.5-13.6,1.4-18.3-3.1
		c-8.5-7.2-10.6-21.7-2.8-30.1c4.3-4.8,11.4-5.3,17.2-3.3C437.2,261,442.6,250.9,448.1,240.8 M423.4,278.5
		c-7.6,2.6-7.9,13.5-2.6,18.6c3.1,4.3,9.9,5.3,13.6,1.3C441.3,290.9,434,275.9,423.4,278.5z"/>
	<path class="st2" d="M230.3,247.4c4.7-1.4,8,4.5,7.1,8.6c-0.5,4-3.6,9.6-8.4,8.1C222.4,260.9,224.3,250.1,230.3,247.4 M230.4,249.4
		c-3.9,2.5-4.8,8.6-2.1,12.3c3.6,2.5,6.8-2.5,7.2-5.7C236.2,253,234.3,247.6,230.4,249.4z"/>
	<path class="st2" d="M215.2,257.1c2.8-1.6,6,0.8,7.2,3.3c1.7,4.7,0.2,11-4.5,13.5c-3.3,1.9-6.7-1.4-7.5-4.5
		C209.3,265,211,259.4,215.2,257.1 M215.4,259.2c-2.9,2.4-4.2,6.8-3,10.4c0.6,1.8,2.8,3.8,4.8,2.6c4-2.4,5.3-8.4,2.9-12.3
		C219.1,258.4,216.7,257.9,215.4,259.2z"/>
	<path class="st2" d="M420.4,282.9c2.3-1.8,5.2-3.8,8.2-2.4c5.5,2,7.4,8.4,6.4,13.7C430,290.7,425.3,286.7,420.4,282.9z"/>
	<path class="st2" d="M420.9,285.7c3.9,3.1,7.9,6.1,11.8,9.3c-3,0.8-6,1.5-9,2C422.7,293.3,421.7,289.5,420.9,285.7z"/>
	<path class="st2" d="M353.3,294.3c1.5-1,3.4-0.3,4.6,0.9c2.7,3.4,1,9.1-2.9,10.8C348.7,306.1,349,296.8,353.3,294.3 M354.1,296.1
		c-2.3,1.5-3.3,6-0.9,7.8c3.1,1.2,4-2.6,4.2-4.9C357.8,297.2,355.9,294.7,354.1,296.1z"/>
	<path class="st2" d="M343.3,300.3c1.6-1,3.6,0.5,4.7,1.8c2.1,3.4,0.5,8.4-3,10.2c-2.6,1.1-4.9-1.3-5.4-3.7
		C338.9,305.4,340.5,302,343.3,300.3 M344.1,302.1c-2.7,1.2-3.5,4.9-2.6,7.5c1.8,2.7,5.1-0.1,5.3-2.5
		C347.4,305.2,346.9,301.5,344.1,302.1z"/>
	<path class="st2" d="M397.6,309.6c4.7-2.7,10.1-3.7,15.5-4.2c2.7-0.7,4.4,1.9,6.5,3c4.7,3.2,11.1,3.8,16.3,1.4c1.7-0.7,3.2-2,5-2.4
		c1.6,0.6,3,1.4,4.5,2.2c0.3,0.6,0.9,1.9,1.2,2.6c-2.2,1.8-4.6,3.3-7.4,3.9c-9.5,2.2-19.4,2.5-29.1,1.2c-4.8-0.7-10-1.6-13.7-5.1
		C396.7,311.6,397.3,310.3,397.6,309.6z"/>
	<path class="st2" d="M429.2,334.2c1.3-1,3.5-0.1,4.3,1.2c1,2.6-0.2,5.8-2.6,7.1C426.5,342.6,426.3,336.3,429.2,334.2 M429.8,341.1
		c1.9-1.3,2.3-3.4,2.2-5.6C428.9,335.7,428.7,338.9,429.8,341.1z"/>
</g>
</svg>
