<?xml version="1.0" encoding="utf-8"?>
<!-- Generator: Adobe Illustrator 26.0.0, SVG Export Plug-In . SVG Version: 6.00 Build 0)  -->
<svg version="1.1" id="Layer_1" xmlns="http://www.w3.org/2000/svg" xmlns:xlink="http://www.w3.org/1999/xlink" x="0px" y="0px"
	 viewBox="0 0 486 500" style="enable-background:new 0 0 486 500;" xml:space="preserve">
<style type="text/css">
	.st0{fill:#139DFF;}
	.st1{fill:#000101;}
	.st2{fill:#FFFFFF;}
</style>
<path className="st0" d="M173,33.1c20.6-7,42.3-10.6,64-11.2c1.8,0,4.6-0.1,5,2.2c0.7,5.6,0.1,11.3,0.3,16.9c1.9,0.2,3.8,0.5,5.6,0.6
	c46,0.5,91.4,17.3,127.1,46.3c-5.1,2.8-9.8,6.4-14.5,9.8c-20,14.3-37.2,32.1-52.6,51.2c-1.4-23.7-2.7-47.3-4.1-71
	c-0.2-5.4-3.3-11.3-9-12.3c-43-10.2-86-20.2-128.9-30.4C168.3,34.7,170.7,33.9,173,33.1z"/>
<path className="st0" d="M214.9,54.7c-2.4-1.2-3.9-5.4-0.8-6.4C217.8,48.1,217.6,53.3,214.9,54.7z"/>
<path className="st0" d="M49.6,177.1c7.1-20.4,17.9-39.6,31.4-56.5c0.9,14.9,1.8,29.8,2.7,44.6c-5.5,1.6-11,3.4-16.6,5
	C61.2,172.2,55.5,175,49.6,177.1z"/>
<path className="st0" d="M286.5,182.5c13.8-22.6,30.2-43.8,49.7-61.8c7.4-0.8,15,1.8,21.1,6c9.9,7.3,15.7,19.1,18,31
	c-17.1,15.4-32.3,32.9-44.8,52.3l0.4,1.3c3.7-2.9,5.3-7.8,8.8-10.9c2.7,3.8,1,8.6-0.9,12.4c-3.1,5.6-7.5,11-13.5,13.7
	c-3.4,1.5-7.7-0.1-8.9-3.7c-1.8-6.1-0.3-12.7,1.8-18.6c0.3-1.3,1.3-2.7,0.6-4c-1.9,0.4-2,2.7-2.7,4.1c-2.3,7.2-4.1,15.9,0.2,22.7
	c-3.2,0.7-7.2,2.2-10-0.5c-4.3-4.2-4.7-10.9-4.1-16.5c0.2-3.7,1.9-7.1,2.4-10.7l-0.9-1.5c-3.8,8.1-4.9,17.7-1.7,26.2
	c-2.3,0.3-5,1.5-7-0.1c-4.9-3.1-5.5-9.6-5.5-14.9c-0.2-5,2.3-9.6,2.5-14.6c-2.4,1.7-2.6,4.8-3.4,7.4c-1.1,3.9-1,8-0.9,12.1
	c-2.3,4.1-5.5,7.7-8.5,11.2c0.6,0.4,1.2,0.8,1.9,1.2c3.5-1.1,7.1-2.2,10.8-2.4c0.3,0.4,1,1,1.3,1.4c-0.9,0.2-2.6,0.5-3.4,0.7
	c2,1.6,4.1,3.2,6.2,4.8c3.3-0.8,6.6-1.6,9.9-2.5c0.6,0.3,1.7,0.9,2.2,1.3c1.2,2.3,3.8,3.5,5.8,5c3-0.8,6-1.9,9.1-2.3
	c0.4,0.3,1.1,0.9,1.4,1.2c-6.1,1.9-12.1,3.6-18.3,5.1c2.3,1.8,4.6,3.6,7,5.4c2.4-0.8,4.8-1.5,7.2-2c-0.1,1.3-0.9,2.2-2.1,2.4
	c-4.4,1.5-9,2.7-13.5,4c2.4,2,4.9,4,7.4,5.9c7.9-2.2,15.5-6.8,24-5.8c-4.1,1.2-8.1,2.5-12.1,3.8c2.4,1.9,4.9,3.8,7.4,5.8
	c6.3-2.2,12.5-4.9,19.1-6.7c-0.8,3.3-5.2,3-7.7,4.4c2.3,2.1,4.8,4,7.3,5.8c3.4-0.8,6.8-4.1,10.4-2.6c-1.8,1.1-3.7,2-5.6,2.8
	c-45.5,18.2-91,36.5-136.5,54.7c0.7-0.9,1.9-2.6,2.6-3.5c11.2-3.5,22-8.7,33-12.8c-2.9-3-5.9-5.9-8.9-8.8
	c-6.8,2.2-13.4,5.2-20.3,7.1c0.4-1.2,1.2-2.1,2.2-2.8c-2.8-2.8-5.6-5.6-8.4-8.5c-9.8,3-19.5,6.6-29.4,9.5c1.7-3.9,6.7-3.5,10.1-5.2
	c-1.6-2-4.1-3.5-5-6c0.3-0.1,1-0.3,1.4-0.4c2,1.8,3.8,3.9,5.7,5.8c10.7-3.6,21.3-7.1,32-10.6c-1-1-2-2-3-3c2,0,3.8,0.7,5.2,2.2
	c9.2-2.7,18.2-6.1,27.3-8.9c-2.7-2.4-5.4-4.9-8.3-7.1c-5.4,1.6-10.8,3.4-16.2,5c-1.2,0.5-2.4,0.1-3.4-0.5c0.9-0.9,3.4-0.8,3.2-2.3
	c-2.1-2.3-4.5-4.3-6.7-6.4c-0.8,0.3-2.5,0.8-3.4,1.1c-0.9-0.5-1.8-1-2.6-1.5c6.2-1.6,12.3-3.4,18.5-5c-2.2-2-4.3-4.3-6.8-6.1
	c-1.6-0.4-3.2,0.5-4.8,0.8c-7.4,1.9-14.8,3.6-22.1,5.6c-1.3,0.7-2.3-0.7-3.2-1.3c4.6-1.1,9.1-2.2,13.7-3.4c-2.2-2.2-4.5-4.3-6.7-6.4
	c-7.9,1.7-15.8,3.5-23.7,5.3c-2.1,0.6-4.1,0-6.1-0.5c23.1-5.1,46.2-10.3,69.4-15.5c3.7-0.8,7.4-1.8,11.2-2.2c-0.3,0.4-1,1.3-1.4,1.7
	c-6.4,1.8-12.9,2.9-19.4,4.4c2.2,2,4.4,3.9,6.6,5.8c5-1.1,9.8-2.7,14.9-3.4c0,3.7,4.1,5.1,6.3,7.4c6.9-1.6,13.6-3.8,20.4-5.4
	c-2.2-1.8-4.5-3.5-6.8-5.3c-5.7,1.4-11.5,2.7-17.1,4.5l2.1-1.1c-1.3-0.6-2.6-1.1-4-1.4c-1.6-5,0.4-10.2,1.7-15
	C272.2,208.4,279,195.2,286.5,182.5 M294.7,182c10.8,5.5,23,8.3,35.2,8.1c-0.6-1.2-1.5-1.8-2.8-1.8c-9.6-0.7-19.2-2.5-28.1-6.4
	C297.6,181.6,295.9,180.3,294.7,182 M278,226.5c-2.5,3.4-5.1,6.9-8.4,9.6c0.4,0.5,0.9,1.1,1.3,1.6c0.5-0.6,1.6-1.7,2.1-2.2
	c2.2,0.8,4.5-0.1,6.7-0.6c4.5-1.2,9-2.2,13.5-3.4c-2-1.8-4-3.4-6.2-4.8c-2.4,0.6-4.8,1.1-7.2,1.7C279.3,227.7,278.7,227.1,278,226.5
	 M287.7,234.9c1.8,2.1,4.1,3.6,6.2,5.2c5.8-1.7,11.5-3.2,17.3-4.8c-2-1.7-3.9-3.5-6.3-4.7C299.2,231.7,293.4,233.3,287.7,234.9
	 M216,242.4c2.4,2,4.3,4.8,7.1,6.2c8.4-1.7,16.7-4.2,25.1-6c-2.4-1.9-4.4-4.4-7.1-5.6C232.6,238.5,224.4,240.8,216,242.4
	 M284.9,244.4c2.4,1.9,4.8,3.8,7.1,5.7c6.3-1.8,12.5-3.8,18.8-5.5c-2.3-1.8-4.6-3.6-6.9-5.4C297.5,240.9,291.2,242.7,284.9,244.4
	 M238.9,246.8c2.2,2.2,4.6,4.3,7,6.3c7.8-2.2,15.5-4.3,23.3-6.4c-2.2-1.9-4.5-3.7-6.7-5.7C254.6,242.7,246.8,245,238.9,246.8
	 M260.9,251.1c2.4,2.1,4.8,4.2,7.2,6.3c7.3-2,14.5-4.3,21.8-6.5c-2.3-1.9-4.7-3.8-7-5.8C275.5,247,268.2,249.1,260.9,251.1
	 M282.3,255.1c2.5,2.2,5.1,4.3,7.7,6.3c6.6-2.2,13.2-4.4,19.8-6.5c-2.4-2-4.8-3.9-7.2-5.8C295.8,251,289.1,253.1,282.3,255.1
	 M233.2,258.6c2.6,2.3,5.1,4.7,7.7,7c8.4-2.5,16.7-5.1,25.1-7.5c-2.4-2.1-4.8-4.2-7.1-6.3C250.3,253.8,241.8,256.4,233.2,258.6
	 M303,259.1c2.6,2.1,5.2,4.3,7.9,6.3c6.1-2.2,12.2-4.5,18.3-6.7c-2.5-1.9-4.9-3.9-7.4-5.8C315.5,255,309.3,257.1,303,259.1
	 M256.7,262.8c2.6,2.3,5.2,4.7,7.8,7c7.5-2.4,14.9-4.9,22.4-7.4c0-0.2,0-0.7,0-0.9c-2.2-2.1-4.6-3.8-6.9-5.7
	C272.3,258.1,264.5,260.4,256.7,262.8 M323.2,262.8c2.6,2.1,5.3,4.2,7.9,6.3c5.6-2.3,11.2-4.5,16.8-6.8c-2.6-1.9-5.1-3.9-7.8-5.8
	C334.5,258.8,328.9,260.8,323.2,262.8 M279.9,266.9c2.2,2.7,5.1,4.8,7.8,7c6.7-2.6,13.5-4.9,20.2-7.5c0-0.2,0.1-0.7,0.1-1
	c-2.2-2-4.7-3.7-7-5.6C293.9,262.2,286.8,264.3,279.9,266.9 M301.2,270.8c2.8,2.4,5.6,4.8,8.5,7c6.4-2.7,13-5.2,19.4-7.9
	c-2.6-2.1-5.3-4.3-8-6.3C314.4,266,307.8,268.5,301.2,270.8 M252.2,275.9c2.8,2.6,5.6,5.3,8.5,7.8c8.2-3.1,16.5-6.2,24.9-9.1
	c-2.8-2.3-5.5-4.7-8.3-7C268.9,270.5,260.5,273.2,252.2,275.9 M276.1,280c2.8,2.6,5.7,5.2,8.6,7.8c7.6-3.1,15.2-6.2,22.8-9.1
	c-2.8-2.4-5.6-4.8-8.5-7C291.4,274.4,283.7,277.2,276.1,280 M220.5,286.4c2.8,3,5.7,5.9,8.6,8.8c9.8-3.6,19.5-7.2,29.3-10.6
	c-2.7-2.7-5.5-5.3-8.3-7.9C240.1,279.9,230.3,283.2,220.5,286.4 M246.9,290.6c2.9,3,6,5.9,9,8.7c9-3.7,18-7.2,26.9-10.9
	c-3-2.5-5.9-5.1-8.9-7.7C264.9,284,255.9,287.4,246.9,290.6z"/>
<path className="st0" d="M431.7,120.9c11,16.2,19.7,33.9,26.6,52.3c-10.5,5.9-21.1,11.7-31.6,17.8c-15.2,7.5-30.1,15.5-45.5,22.5
	c-13.1,6.1-26.2,12.4-39.7,17.5c-3.1-2.2-6.2-4.4-9.3-6.5c5.3-5.2,10.5-11.6,11-19.3c0.3-2.5-1.3-4.6-2.6-6.5
	c6.3-8.3,12.9-16.5,20.1-24c8.8-10,19.3-18.1,29.4-26.7C403,137.7,416.9,128.4,431.7,120.9z"/>
<path className="st0" d="M68.9,171.7c14.4-4.6,29.1-8.4,44.1-9.5c11.4-0.8,23,0.7,33.9,4.2c1.6,0.2,2.8,2.6,1.2,3.6
	c-2.5,1.9-5.6,2.6-8.6,3.3c-16.9,3.3-34.4,4.3-50.6,10.3c-4.9,1.9-10.6,6.3-9.4,12.3c0.5,4.1,5.4,4.5,8.6,4.8
	c10.3,0.3,20.6-1.1,30.9-1.1c3,0.3,6.7,0.1,8.8,2.6c1.1,3.8-2.6,6.5-5.1,8.7c-11.5,8.3-23.7,15.8-36.2,22.6
	c-9.5,5.2-18.8,10.8-28.6,15.6c-13.3,6.6-26.5,13.5-40.4,18.8c0.5,0.5,0.9,1.1,1.4,1.6c23.7-9.9,46.4-22.2,69-34.4
	c0.3,6.3,0.7,12.6,1.1,18.8c8.7,11.3,17.3,22.7,25.8,34c-9.5,13.2-17.8,27.2-25.3,41.7c-9.7,19.4-18.7,39.3-23.4,60.6
	c-25.8-32.8-42.8-72.8-47.4-114.4c-0.2-1.9-0.8-3.6-1.5-5.4c0.2-4.8,0-9.6-0.2-14.5c0-1.7-0.1-4.4,2-4.9c5.7-0.9,11.5,0,17.3-0.7
	c0.3-17.4,1.8-34.9,6.4-51.7c1.7-6.6,3.3-13.2,6-19.5c6.1-2,11.8-5.4,18.1-6.6c1.4,2,2.4,4.4,4.4,6C70.9,176.2,70,173.9,68.9,171.7z
	"/>
<path className="st0" d="M120.7,178.5c7.1-1.7,14.4-2.1,21.5-4c1.5,2,4.2,6,0.6,7.2C135.4,183.4,127.8,180.6,120.7,178.5z"/>
<path className="st0" d="M96.9,182.8c6.7-1.5,13.4-3.1,20.3-3.8c3.3,0.8,6.5,2.2,9.6,3.4c2.7,1,4.1,3.9,4.4,6.6
	c-1.7,0.6-3.4,1.4-5.2,1.5C115.8,190.6,105.8,187.5,96.9,182.8z"/>
<path className="st0" d="M82.3,190.1c3.2-3.2,7.4-4.8,11.6-6.4c4.6,2.4,9.5,4.2,14.3,6c2.4,0.6,2.9,4.5-0.1,4.7
	C99.4,196.3,90.5,193.2,82.3,190.1z"/>
<path className="st0" d="M393.8,209.6c12.4-6.4,25.1-12.4,37.4-19.1c12.8,4.5,22.7,15.3,27.7,27.7c2.2,5.5,3.1,11.3,3.7,17.2
	c-16.1,11.8-32.4,23.5-49.3,34.1c-1,0.5-1.3,1.4-0.9,2.5c5.3-3.1,11.4-4.9,17.6-4.8c1.8,0,4.9,1.3,3.4,3.5
	c-3.4,4.9-9.2,7.3-14.7,9.1c-4.4,1.3-9.9,1.3-13.2-2.3c-3.1-2.9-4-7.5-3.3-11.5c0.5-4.2,3.2-7.8,4.8-11.6c-2.6-0.4-3.3,2.7-4.4,4.4
	c-3.2,6-3.2,13.5,0.5,19.2c-3.6,0-8,0.8-10.8-2.1c-4.6-4.2-4.5-11.2-3.4-16.9c0.8-4.6,3.3-8.5,5-12.7l-0.7-1.5
	c-6.1,8.4-9,20-4.7,29.8c-3.4,0.3-7.2,0.3-9.9-2.2c-4.6-4-4.3-10.9-3.5-16.4c0.6-5.2,4-9.5,5.4-14.5c-2.8,1-3.6,4.1-4.8,6.4
	c-2.9,6.3-3.7,13.5-2.2,20.3c-2.9-0.6-6.4-0.8-8.3-3.4c-3.9-4.4-3.5-10.9-2.5-16.3c0.9-4.8,3.6-8.9,5.4-13.4
	c-3.6,0.3-3.5,5.1-5.8,7.2c-8.8,2.6-18,3.9-27.2,4.2c-4.2,0-8.7,0.2-12.4-2c-1.8-0.8-1.3-3.5,0.5-3.9c11.9-4.9,23.9-9.7,35.8-14.6
	C370.5,220.4,382.2,215.1,393.8,209.6 M374.2,224.8c1.2,2.4,4,2.8,6.1,3.8c11.2,4.2,21.4,10.8,30.3,18.8c1,0.9,2.2,1.5,3.5,2
	c-0.2-0.5-0.5-1.4-0.7-1.9c-10-9.3-21.8-16.6-34.5-21.4C377.5,225.3,375.9,225,374.2,224.8z"/>
<path className="st0" d="M81.2,191.8c1.4,0.5,2.9,1.1,4.3,1.6c0.1,1.8,0.1,3.7,0.2,5.5c-1.4-0.7-3.1-1-4.2-2.3
	C81.2,195.1,81.3,193.4,81.2,191.8z"/>
<path className="st0" d="M93.4,198.8c0.1-1.2,0.2-2.5,0.3-3.7c1.5,0.7,1.9,2.2,2.1,3.7C95.2,198.8,94,198.8,93.4,198.8z"/>
<path className="st0" d="M98.1,250.5c56.4-10.4,112.7-21.9,169.1-32.4c-0.4,2.4-2.9,2.1-4.6,2.7c-54.6,10.4-109,21.3-163.6,31.7
	c7.5,9.4,15.2,18.7,22.2,28.5c-2.4,0.5-3.3-2-4.7-3.4c-6.7-8.5-13.2-17.1-20.1-25.4C97,251.5,97.5,251,98.1,250.5z"/>
<path className="st0" d="M95.9,229.3c1,0.6,1.5,1.5,1.4,2.6c0.5,6,0.5,12,1.1,18c-0.5,0.2-1.6,0.4-2.2,0.6
	C96.5,243.4,94.8,236.3,95.9,229.3z"/>
<path className="st0" d="M422.5,265.7c16.3-10.9,32.4-22.1,48.1-33.7c0.1,3.7,0.5,7.4,0.4,11.1c-0.1,1.3-0.1,2.9-1.3,3.7
	c-5.7,1.2-11.5-0.3-17.2,0.8c-1.5,1.8-1,4.3-1.2,6.4c-0.1,23.6-5.2,47-13.3,69.1c-9.7-8.5-19.3-17.2-30-24.6c3.5-3.2,5-7.7,5-12.4
	c-4.7,2.8-8.9,7.2-14.6,7.8c4.1-4.5,11.2-5.6,14-11.4c7.8-0.5,15.4-3.8,21-9.1c1.6-1.5,3.3-4.4,1.2-6.3
	C431.4,264.3,426.6,265.1,422.5,265.7z"/>
<path className="st0" d="M137.4,265.3c8.6-8.2,19.5-15.7,31.9-14.9c-5.6,3.3-11.3,6.4-16,11c-0.1,0.6-0.4,1.8-0.5,2.3
	c2.6-1.4,4.5-3.6,6.7-5.4c6.3-4.5,13.6-8.3,21.5-8.5c2.9,0.1,6,0.3,8.4,2c-6.7,2.1-12.9,5.7-17.9,10.6c-0.2,0.6-0.8,1.7-1,2.2
	c4.3-1.9,7.2-5.7,11.3-7.9c7.3-3.9,16.7-5.5,24.4-1.6c-7.9,1.6-15.8,5.2-20.8,11.8c0,2.8,2.1,0.1,2.9-0.5
	c6.4-6.3,15.5-10.6,24.6-9.4c9.7,0.9,19.1,7.1,23.1,16c-1.2,1.2-2.4,2.6-4.3,2.6c-6.6,0.1-12.3-4.6-19-4.3
	c-13.5,2.8-25,14.8-25.6,28.8c-0.2,4.9,5,9.1,9.8,7.6c9.1-2.1,16-9.7,25.3-11.4c2.8,6.1-0.9,12.6-4.5,17.5
	c-6.3,7.4-12.7,14.8-19.7,21.5c-13.5,13.6-27,27.4-38.9,42.5c-15.8-24.2-46.5-38-75.1-32.6c6.6-14.8,14.7-29,23-42.9
	C116,289,125.3,275.8,137.4,265.3 M131.2,276.2c-0.1,0.5-0.4,1.4-0.6,1.8c7.7-1.4,15.6-1.2,23.3-0.1c8.4,1.1,17.3,2,24.7,6.6
	c0.9,0.5,1.9,1.3,3.1,1.1c0.3-1.5-1.2-2.2-2.2-2.9c-6.3-3.8-13.8-4.5-20.9-5.9C149.4,275.5,140.1,274.4,131.2,276.2z"/>
<path className="st0" d="M206.9,275.1c3.6-1.9,7.7-2.8,11.6-1.1C215.8,278,210.6,276,206.9,275.1z"/>
<path className="st0" d="M199.7,279.8c2.3-2.4,5.5-3.8,8.7-2.4C205.5,278.2,202.6,279.1,199.7,279.8z"/>
<path className="st0" d="M324.9,282.9c2.2-0.9,4.7-1.8,6.9-0.6c1.8,0.9,3.3,2.2,5,3.4c-3.8-0.4-7.7-3.3-11.4-1.2
	c-13.4,5.9-26.9,11.7-40.3,17.7c-1.9,0.5-2.2,3.2-0.5,4.3c5.5,5.2,11,10.3,16.6,15.3c2,1.9,5.2,2.3,7.5,0.9
	c10.8-5.8,21.6-11.7,32.5-17.5c1.2-0.8,2.4-0.8,3.5,0.2c-12,6.5-24,12.9-36,19.2c-2.9,1.7-6.5,0.9-8.9-1.4
	c-5.2-4.8-10.3-9.6-15.5-14.4c-1.3-1.3-3-2.8-2.7-4.8c0.2-2,2-3.1,3.6-3.7C298.4,294.5,311.7,288.7,324.9,282.9z"/>
<path className="st0" d="M331.1,289.8c0.1-1.2,0.5-2.6,1.9-2.8c3.4-0.3,6.6,0.9,9.6,2.4c11.1,5.4,20.8,13.2,29.8,21.6
	c0.2-0.3,0.7-0.8,1-1c-7.7-8.9-17.9-15-27.5-21.6c3.6-1,7.6-1.5,11.3-0.3c8.3,2.5,15.9,7,22.8,12.2c2.6,1.8,4.6,4.5,7.8,5.4
	c-4.8-7.6-13.6-11.1-20.8-15.9c13.3-1.6,24.1,7.5,34.8,13.9c0-1.7-1.4-2.7-2.5-3.7c-4-3.1-8.6-5.3-12.8-8.1
	c9-0.1,16.4,5.7,23.5,10.5c9.7,6.9,18.6,14.9,27.5,22.8c-7.6,19.4-18.2,37.8-31.3,54c-7.9-2.1-15.1-6.1-22.3-9.8
	c-10.6-5.7-20.7-12.4-29.7-20.3c-6.2-5.5-11.9-11.9-15.2-19.6c-0.7-1.9-1.6-3.9-1.4-5.9c1.3-0.8,2.9-0.8,4.3-0.2
	c8,3.2,13.3,10.7,21.4,13.8c3.3,1.5,3.8-2.7,3.4-5c-1.2-6-5.1-11-8.9-15.6c-6-7-12.8-13.2-19.5-19.5
	C335.7,294.6,332.9,292.6,331.1,289.8 M385,319.1c-1.7,1-4.1,1.8-4.2,4.1c3.1-1.2,5.8-3.1,8.7-4.6c7.8-3.8,16.1-6.4,24.3-9
	c-0.2-0.4-0.6-1.3-0.8-1.8C403.4,310.5,394,314.4,385,319.1z"/>
<path className="st0" d="M347.7,325c3-2.1,6-4.3,9.4-5.8c0.4,0.2,1.3,0.5,1.7,0.7c-2.9,1.9-5.7,3.9-8.8,5.5
	C349.4,325.3,348.2,325.1,347.7,325z"/>
<path className="st0" d="M357.2,331.7c2-1.5,4.2-2.8,6.4-4c0.8,2.6,1.1,5.3,0.8,8C361.9,334.7,359.5,333.3,357.2,331.7z"/>
<path className="st0" d="M299.2,354.6c13.1-7.7,25.7-16.2,38.9-23.7c0.3,1.3-0.2,2.3-1.3,2.8c-12.2,7.6-24.5,15.2-36.8,22.8
	C299.8,356,299.4,355.1,299.2,354.6z"/>
<path className="st0" d="M267.7,359c-0.7-9.3-2.4-18.9,0.2-28.1c4.4,1,6.3,5.3,8.3,8.8c8.1,15.2,11.3,32.4,15,49.1
	c0.4-0.4,1.1-1.3,1.4-1.8c-2.4-12.3-5.3-24.7-9.4-36.5c1.7-1.2,3.5-3.4,5.9-2.5c4.9,1.3,7.5,6,10,10c4.9,8.9,8.4,18.5,11.5,28.1
	c0.5,1.7,1.4,3.2,2.8,4.3c-1.6-9.5-6-18.2-9.4-27.1c3.3-0.1,6.8,0.1,9.5,2.2c5.9,4.4,9.6,11.1,12.4,17.7c1.1,2.5,1.6,5.4,4.1,7
	c-1.3-8-5.7-15.1-10.2-21.7c7.9,1.6,13.1,8.1,17.2,14.5c6.7,10.6,11.6,22.4,15.7,34.2c2.8,9.1,6.1,18.1,7.1,27.6
	c-29,17-61.9,27.4-95.4,30.4c-5.4-21.1-9.8-42.6-10.6-64.4c0.1-6.9-0.3-15.2,5.5-20.1c1.4,1.6,2.9,3.3,3.7,5.3
	c3.1,7.8,4.5,16.1,7.1,24.1c0.8,2,1.5,5.2,4.4,4.6c1.6-1.8,0.8-4.2,0.6-6.3C272.2,398.7,269.9,378.8,267.7,359 M294.8,405.8
	c-2.3,0.7-4.9,1.4-6.3,3.6c2.7,0.2,5-1.2,7.5-1.9c7.2-2.1,14.6-2.9,22.1-3.5c9.6-0.4,19.9-1.5,28.8,3.1c0.1-0.3,0.3-0.9,0.5-1.1
	c-0.2-0.3-0.6-0.9-0.7-1.2c-9.7-3.7-20.4-3.1-30.6-2.4C308.8,403,301.7,403.8,294.8,405.8z"/>
<path className="st0" d="M311,362.1c10.5-7.6,21.6-14.2,32.3-21.5c9.7,11.5,22.2,20.3,35.1,27.8c8.4,4.7,16.9,9.3,26,12.3
	c-4.5,5.6-9.9,10.6-14.4,16.3c3.1,4.8,8.2,7.8,11.4,12.4c1.2,1.6-0.2,3.5-1.4,4.7c-11.8,11.3-25,21.1-38.8,29.8
	c-0.8-5.9-2.3-11.7-4-17.4c-4.9-16.2-10.8-32.3-20.3-46.5c-4.1-6-9.6-11.9-17-13C316.5,366.5,313.9,363.9,311,362.1z"/>
<path className="st0" d="M180.1,358.7c-1.1-0.8-0.2-1.8,0.2-2.7c10.3,13,20.3,26.1,30.7,39c3.2,4.2,8.9,5.8,13.9,4.8
	c4.4-1.4,8.2-4.3,12.1-6.6c10.3-6.3,20.4-12.8,30.8-18.9c-0.2,0.6-0.5,1.9-0.7,2.6c-10.7,6.8-21.5,13.3-32.2,20
	c-4.2,2.7-8.9,5.6-14.1,5.1c-4.6-0.1-8.9-2.4-11.7-6.1C199.5,383.5,189.8,371.1,180.1,358.7z"/>
<path className="st0" d="M134.6,425.6c8.4-22.8,22.2-43.2,38.4-61.1c11.8,15.4,23.4,30.9,35.2,46.4c3,4.1,7.7,6.9,12.9,6.8
	c4.8,0.2,8.8-2.8,12.6-5.2c6.3-4.2,12.6-8.2,18.8-12.4c-0.8,6.3-0.8,12.7-0.2,19c1.7,19.1,5.3,37.9,10.2,56.4
	c-4.8,0.1-9.6,1-14.4,0.4c-1.3-0.1-2-1.5-2-2.7c-0.4-5.4,0-10.7-0.2-16.1c-8.5-1.2-17.2-0.5-25.8-1.8
	C189.8,451.9,160.6,441.1,134.6,425.6z"/>
<path className="st0" d="M263.4,392.9c2-1.3,4-2.5,6-3.8c1.2,11.4,3.1,22.7,3.8,34.2C268.8,413.5,267.8,402.6,263.4,392.9z"/>
<g id="_x23_000101ff">
	<path className="st1" d="M86.4,23.4c1.5-1.8,3.1-3.9,5.6-4.4c4-0.6,7.9,0.7,11.7,1.5c19.3,4.6,38.6,9.1,57.9,13.7
		c1.4,0.3,2.9,0.7,4.3,1c43,10.2,86,20.2,128.9,30.4c5.7,1,8.8,6.9,9,12.3c1.4,23.7,2.7,47.3,4.1,71c15.4-19,32.6-36.9,52.6-51.2
		c4.7-3.5,9.4-7.1,14.5-9.8c0.4,0.3,1.4,0.9,1.8,1.3c-6.9,4.1-13.4,8.8-19.8,13.6c11.7-0.2,22.2,7.2,28.6,16.6
		c4.7,6.6,8,14,10.4,21.6c10.8-8.1,22.4-15.3,34.4-21.6c0.3,0.4,0.8,1.1,1.1,1.5c-14.8,7.5-28.7,16.8-41.8,27
		c-10.1,8.6-20.6,16.7-29.4,26.7c-7.2,7.5-13.8,15.7-20.1,24c1.3,1.9,2.9,4,2.6,6.5c-0.5,7.7-5.6,14.1-11,19.3
		c3.1,2.1,6.2,4.3,9.3,6.5c13.6-5,26.6-11.4,39.7-17.5c15.4-7,30.4-15,45.5-22.5c10.5-6,21.1-11.8,31.6-17.8
		c0.2,0.4,0.6,1.4,0.8,1.8c-8.4,4.8-16.9,9.5-25.2,14.4c17.8,7.5,29.8,25.7,30.7,44.9c2-1.5,4-3,6.1-4.5c0,0.6,0,1.7,0,2.3
		c-15.7,11.6-31.8,22.8-48.1,33.7c4.1-0.6,8.9-1.4,12.3,1.5c2.1,1.9,0.4,4.8-1.2,6.3c-5.7,5.4-13.3,8.6-21,9.1
		c-2.9,5.7-9.9,6.8-14,11.4c5.6-0.6,9.9-5,14.6-7.8c0,4.7-1.5,9.2-5,12.4c10.6,7.4,20.3,16,30,24.6c-0.2,0.5-0.5,1.5-0.7,2
		c-8.9-7.9-17.8-15.9-27.5-22.8c-7.1-4.8-14.5-10.6-23.5-10.5c4.2,2.8,8.8,5,12.8,8.1c1.1,1,2.5,2,2.5,3.7
		c-10.7-6.4-21.5-15.5-34.8-13.9c7.2,4.9,16,8.4,20.8,15.9c-3.1-0.9-5.2-3.6-7.8-5.4c-6.9-5.2-14.5-9.7-22.8-12.2
		c-3.7-1.2-7.6-0.7-11.3,0.3c9.6,6.6,19.9,12.7,27.5,21.6c-0.2,0.2-0.7,0.8-1,1c-9-8.3-18.7-16.2-29.8-21.6c-3-1.5-6.2-2.7-9.6-2.4
		c-1.4,0.2-1.8,1.5-1.9,2.8c1.8,2.8,4.6,4.8,6.9,7.1c6.7,6.3,13.5,12.5,19.5,19.5c3.8,4.7,7.7,9.6,8.9,15.6c0.4,2.3-0.1,6.4-3.4,5
		c-8-3-13.4-10.6-21.4-13.8c-1.4-0.6-3-0.6-4.3,0.2c-0.3,2.1,0.6,4,1.4,5.9c3.3,7.7,9,14.1,15.2,19.6c9.1,7.9,19.1,14.6,29.7,20.3
		c7.2,3.7,14.4,7.6,22.3,9.8c-0.5,0.6-1,1.1-1.5,1.7c-9.1-3-17.6-7.6-26-12.3c-13-7.5-25.4-16.3-35.1-27.8
		c-10.7,7.3-21.9,13.9-32.3,21.5c2.9,1.8,5.5,4.3,9,4.8c7.5,1.2,13,7.1,17,13c9.4,14.1,15.4,30.3,20.3,46.5c1.7,5.7,3.3,11.5,4,17.4
		c-0.4,0.3-1.3,0.8-1.8,1.1c-1-9.5-4.3-18.5-7.1-27.6c-4.1-11.9-8.9-23.6-15.7-34.2c-4.1-6.3-9.4-12.9-17.2-14.5
		c4.5,6.6,8.9,13.7,10.2,21.7c-2.4-1.6-3-4.5-4.1-7c-2.8-6.7-6.5-13.3-12.4-17.7c-2.7-2.1-6.2-2.3-9.5-2.2
		c3.4,8.9,7.8,17.6,9.4,27.1c-1.4-1.1-2.2-2.6-2.8-4.3c-3.2-9.6-6.6-19.2-11.5-28.1c-2.5-4-5.1-8.7-10-10c-2.3-0.9-4.2,1.3-5.9,2.5
		c4.1,11.9,7,24.2,9.4,36.5c-0.4,0.4-1,1.3-1.4,1.8c-3.7-16.7-6.8-33.9-15-49.1c-2-3.5-4-7.8-8.3-8.8c-2.6,9.2-0.9,18.8-0.2,28.1
		c2.2,19.9,4.5,39.7,7.1,59.5c0.2,2.1,1,4.5-0.6,6.3c-2.8,0.6-3.5-2.6-4.4-4.6c-2.6-7.9-4-16.3-7.1-24.1c-0.8-2-2.2-3.7-3.7-5.3
		c-5.8,4.9-5.4,13.2-5.5,20.1c0.8,21.8,5.2,43.3,10.6,64.4c-0.4,0-1.3,0.1-1.8,0.1c-4.9-18.5-8.5-37.4-10.2-56.4
		c-0.5-6.3-0.6-12.7,0.2-19c-6.2,4.2-12.6,8.2-18.8,12.4c-3.8,2.5-7.8,5.4-12.6,5.2c-5.2,0.2-9.9-2.7-12.9-6.8
		c-11.7-15.5-23.4-31-35.2-46.4c-16.2,17.9-30,38.3-38.4,61.1c-0.4-0.4-1.2-1.1-1.7-1.5c1.8-5.1,4-10.1,6.3-15
		c-2.8-6.4-8.4-10.9-14.5-14C112.6,389,99.3,386,86,384c-5.2-0.8-10.4-1.4-15.6-1c-0.8,3.1-1.3,6.3-2.6,9.3
		c-0.6-0.7-1.1-1.4-1.6-2.1c4.7-21.3,13.7-41.2,23.4-60.6c7.5-14.4,15.9-28.4,25.3-41.7c-8.6-11.4-17.1-22.8-25.8-34
		c-0.4-6.3-0.8-12.5-1.1-18.8c-22.6,12.2-45.2,24.5-69,34.4c-0.5-0.5-0.9-1.1-1.4-1.6c13.9-5.4,27.1-12.2,40.4-18.8
		c9.8-4.7,19.1-10.4,28.6-15.6c12.5-6.8,24.6-14.3,36.2-22.6c2.5-2.1,6.2-4.9,5.1-8.7c-2.2-2.5-5.8-2.3-8.8-2.6
		c-10.3,0-20.6,1.4-30.9,1.1c-3.2-0.3-8.1-0.7-8.6-4.8c-1.2-6,4.5-10.4,9.4-12.3c16.3-6,33.7-7,50.6-10.3c3-0.7,6.1-1.4,8.6-3.3
		c1.6-1,0.4-3.3-1.2-3.6c-10.9-3.5-22.4-4.9-33.9-4.2c-15.1,1-29.8,4.9-44.1,9.5c1.1,2.2,2,4.5,2.4,7c-2-1.5-3-3.9-4.4-6
		c-6.3,1.2-12,4.6-18.1,6.6c0.2-0.6,0.7-1.6,0.9-2.2c5.9-2.1,11.6-4.9,17.5-6.8c5.5-1.6,11-3.4,16.6-5c-0.9-14.9-1.8-29.8-2.7-44.6
		c-0.1-1.6-0.2-3.3-0.3-4.9c-1.6-26.9-3.2-53.8-4.9-80.8c-0.2-3.1,0-6.5,2-9c2.1-2.3,5-3.5,7.8-5c-1.4,2.6-1.8,5.6-1.6,8.5
		c2.6,44.8,4.9,89.5,7.6,134.3c0.8-0.8,2.5-1.1,1.8-2.6c-2.5-43.8-4.9-87.7-7.3-131.5C86,27.5,86.2,25.5,86.4,23.4 M93.9,29
		c2.6,44.2,5.3,88.4,7.9,132.6c15.3-2.1,31.3-2.1,46,3.2c2.2,0.6,2.8,2.9,3.2,4.8c-1.8,2.1-4.2,3.5-6.9,4.4c1.7,2.3,3.9,5.8,1.1,8.2
		c-4,2.8-9.5,1.7-14,0.9c1.1,2.2,2.8,5.4,0.5,7.4c-6.1,3.4-13.3,1.3-19.7,0.1c-0.1,1.5,0.6,3.4-0.8,4.6c-2.2,1.6-5.2,1.5-7.8,2.1
		c0.7,0.7,1.6,1,2.6,0.8c5.3-0.4,10.7-0.5,16-0.3c2.9,0.2,6.3,1.3,7.7,4.1c1.4,4.2-2.6,7.1-5.2,9.6c-6.1,4.5-12.2,9-18.8,12.7
		c0,5.4,0.6,10.8,0.8,16.1c50.9-9.2,101.8-17.9,152.7-26.9c3.4-0.7,6.9-1,10.3-2c7-14.9,14.3-29.7,23.9-43.1
		c1.6-3.1,5.3-5.5,4.6-9.4c-1.7-29-3.5-57.9-5.1-86.9C226.5,57.9,160.2,43.4,93.9,29 M214.9,54.7c2.7-1.4,2.8-6.6-0.8-6.4
		C211,49.4,212.6,53.6,214.9,54.7 M353.6,105.5c-5.4,4-10.2,8.8-15.3,13.2c6.6-0.3,13,2.1,18.5,5.5c11.1,7,17.3,19.6,20.2,32
		c5.9-4.7,11.5-9.8,17.6-14.2c-2.6-8-5.9-15.8-11.1-22.4c-5.6-8.1-14.6-14.1-24.5-15C357.1,104.5,355,104.1,353.6,105.5
		 M286.5,182.5c-7.4,12.7-14.3,25.9-18.8,39.9c-1.4,4.8-3.3,10-1.7,15c1.4,0.3,2.7,0.8,4,1.4l-2.1,1.1c5.6-1.8,11.4-3.1,17.1-4.5
		c2.3,1.7,4.6,3.5,6.8,5.3c-6.9,1.6-13.6,3.8-20.4,5.4c-2.2-2.4-6.3-3.7-6.3-7.4c-5.1,0.7-9.9,2.3-14.9,3.4
		c-2.2-1.9-4.4-3.8-6.6-5.8c6.4-1.5,13-2.7,19.4-4.4c0.3-0.4,1-1.3,1.4-1.7c-3.8,0.3-7.5,1.4-11.2,2.2
		c-23.1,5.1-46.2,10.3-69.4,15.5c2,0.5,4.1,1.1,6.1,0.5c7.9-1.8,15.8-3.6,23.7-5.3c2.2,2.1,4.5,4.2,6.7,6.4
		c-4.5,1.2-9.1,2.3-13.7,3.4c1,0.6,2,2,3.2,1.3c7.3-2,14.8-3.6,22.1-5.6c1.6-0.2,3.2-1.1,4.8-0.8c2.4,1.8,4.5,4,6.8,6.1
		c-6.2,1.6-12.3,3.3-18.5,5c0.9,0.5,1.8,1,2.6,1.5c0.9-0.3,2.6-0.8,3.4-1.1c2.3,2.1,4.7,4.1,6.7,6.4c0.2,1.6-2.3,1.5-3.2,2.3
		c1,0.6,2.2,1,3.4,0.5c5.4-1.6,10.8-3.3,16.2-5c2.9,2.2,5.6,4.7,8.3,7.1c-9.1,2.8-18.1,6.1-27.3,8.9c-1.4-1.5-3.2-2.2-5.2-2.2
		c1,1,2,2,3,3c-10.7,3.5-21.3,7-32,10.6c-1.9-1.9-3.7-4-5.7-5.8c-0.3,0.1-1,0.3-1.4,0.4c0.9,2.5,3.3,4,5,6
		c-3.3,1.7-8.3,1.3-10.1,5.2c9.9-2.9,19.5-6.5,29.4-9.5c2.7,2.9,5.5,5.7,8.4,8.5c-1.1,0.7-1.8,1.6-2.2,2.8
		c6.9-1.9,13.5-4.9,20.3-7.1c3,2.9,6,5.8,8.9,8.8c-11.1,4.1-21.8,9.3-33,12.8c-0.6,0.9-1.9,2.6-2.6,3.5
		c45.5-18.2,91-36.5,136.5-54.7c2-0.8,3.8-1.7,5.6-2.8c-3.6-1.6-7,1.8-10.4,2.6c-2.5-1.8-5-3.7-7.3-5.8c2.5-1.4,6.9-1.1,7.7-4.4
		c-6.5,1.7-12.7,4.4-19.1,6.7c-2.5-1.9-4.9-3.8-7.4-5.8c4-1.3,8.1-2.6,12.1-3.8c-8.5-1-16.1,3.6-24,5.8c-2.5-1.9-4.9-3.9-7.4-5.9
		c4.5-1.3,9-2.5,13.5-4c1.2-0.3,2-1.1,2.1-2.4c-2.4,0.5-4.8,1.2-7.2,2c-2.4-1.8-4.7-3.5-7-5.4c6.2-1.5,12.3-3.2,18.3-5.1
		c-0.4-0.3-1.1-0.9-1.4-1.2c-3.1,0.5-6,1.6-9.1,2.3c-2-1.5-4.6-2.7-5.8-5c-0.6-0.3-1.7-0.9-2.2-1.3c-3.3,0.8-6.6,1.6-9.9,2.5
		c-2.1-1.5-4.2-3.1-6.2-4.8c0.9-0.2,2.6-0.5,3.4-0.7c-0.3-0.3-0.9-1-1.3-1.4c-3.7,0.2-7.2,1.3-10.8,2.4c-0.6-0.4-1.3-0.8-1.9-1.2
		c3.1-3.5,6.3-7.1,8.5-11.2c0-4-0.1-8.1,0.9-12.1c0.8-2.6,1-5.7,3.4-7.4c-0.2,5-2.7,9.5-2.5,14.6c0,5.2,0.6,11.8,5.5,14.9
		c2.1,1.6,4.7,0.4,7,0.1c-3.2-8.5-2-18.1,1.7-26.2l0.9,1.5c-0.5,3.6-2.2,7-2.4,10.7c-0.6,5.6-0.3,12.3,4.1,16.5
		c2.7,2.7,6.7,1.1,10,0.5c-4.3-6.9-2.6-15.5-0.2-22.7c0.7-1.5,0.8-3.7,2.7-4.1c0.6,1.3-0.3,2.7-0.6,4c-2,5.9-3.6,12.4-1.8,18.6
		c1.2,3.6,5.5,5.3,8.9,3.7c6-2.7,10.4-8,13.5-13.7c1.8-3.8,3.6-8.6,0.9-12.4c-3.5,3.2-5.1,8-8.8,10.9l-0.4-1.3
		c12.4-19.3,27.7-36.9,44.8-52.3c-2.2-11.9-8.1-23.7-18-31c-6.1-4.2-13.7-6.7-21.1-6C316.6,138.7,300.3,159.9,286.5,182.5
		 M120.7,178.5c7.1,2.1,14.6,4.9,22.1,3.2c3.6-1.3,0.9-5.2-0.6-7.2C135.2,176.4,127.8,176.8,120.7,178.5 M96.9,182.8
		c8.9,4.7,18.9,7.8,29.1,7.7c1.8-0.1,3.5-0.9,5.2-1.5c-0.3-2.7-1.7-5.6-4.4-6.6c-3.2-1.2-6.3-2.6-9.6-3.4
		C110.3,179.7,103.6,181.3,96.9,182.8 M82.3,190.1c8.1,3,17,6.2,25.8,4.3c3-0.2,2.6-4,0.1-4.7c-4.8-1.8-9.7-3.7-14.3-6
		C89.8,185.3,85.5,186.9,82.3,190.1 M393.8,209.6c-11.6,5.5-23.3,10.8-34.9,16.2c-11.9,4.9-23.9,9.7-35.8,14.6
		c-1.7,0.4-2.3,3.2-0.5,3.9c3.7,2.2,8.2,2,12.4,2c9.2-0.3,18.4-1.6,27.2-4.2c2.3-2.1,2.2-6.9,5.8-7.2c-1.8,4.5-4.5,8.6-5.4,13.4
		c-0.9,5.4-1.4,11.9,2.5,16.3c1.9,2.6,5.4,2.8,8.3,3.4c-1.5-6.8-0.7-14,2.2-20.3c1.2-2.4,2-5.4,4.8-6.4c-1.4,5-4.8,9.2-5.4,14.5
		c-0.8,5.5-1.1,12.4,3.5,16.4c2.6,2.5,6.5,2.4,9.9,2.2c-4.3-9.8-1.4-21.4,4.7-29.8l0.7,1.5c-1.7,4.2-4.2,8.1-5,12.7
		c-1.1,5.7-1.2,12.7,3.4,16.9c2.8,2.9,7.2,2.1,10.8,2.1c-3.7-5.8-3.7-13.3-0.5-19.2c1.1-1.7,1.8-4.8,4.4-4.4
		c-1.6,3.9-4.3,7.4-4.8,11.6c-0.6,4.1,0.2,8.6,3.3,11.5c3.3,3.6,8.8,3.6,13.2,2.3c5.5-1.8,11.3-4.2,14.7-9.1
		c1.5-2.3-1.6-3.6-3.4-3.5c-6.2-0.1-12.3,1.8-17.6,4.8c-0.4-1.2-0.2-2,0.9-2.5c16.9-10.6,33.2-22.2,49.3-34.1
		c-0.6-5.9-1.6-11.7-3.7-17.2c-5-12.4-15-23.2-27.7-27.7C418.9,197.1,406.2,203.2,393.8,209.6 M81.2,191.8c0.1,1.6,0,3.2,0.3,4.8
		c1,1.3,2.7,1.6,4.2,2.3c0-1.9-0.1-3.7-0.2-5.5C84.1,192.9,82.6,192.3,81.2,191.8 M93.4,198.8c0.6,0,1.8,0,2.4,0
		c-0.2-1.5-0.6-3-2.1-3.7C93.6,196.3,93.5,197.6,93.4,198.8 M98.1,250.5c-0.6,0.5-1.1,1.1-1.7,1.6c6.9,8.3,13.4,16.9,20.1,25.4
		c1.3,1.5,2.3,3.9,4.7,3.4c-7-9.8-14.7-19.1-22.2-28.5c54.6-10.3,109-21.2,163.6-31.7c1.7-0.5,4.2-0.3,4.6-2.7
		C210.8,228.5,154.5,240,98.1,250.5 M95.9,229.3c-1.2,7,0.6,14.1,0.4,21.2c0.5-0.1,1.6-0.4,2.2-0.6c-0.6-6-0.6-12-1.1-18
		C97.4,230.8,96.9,229.9,95.9,229.3 M137.4,265.3c-12,10.5-21.3,23.7-30.1,37c-8.3,13.9-16.4,28.1-23,42.9
		c28.5-5.4,59.3,8.4,75.1,32.6c11.9-15.1,25.4-28.9,38.9-42.5c7-6.8,13.4-14.1,19.7-21.5c3.6-4.9,7.2-11.4,4.5-17.5
		c-9.3,1.8-16.2,9.4-25.3,11.4c-4.8,1.5-10-2.7-9.8-7.6c0.6-14,12.1-26,25.6-28.8c6.7-0.2,12.3,4.4,19,4.3c1.9,0,3.1-1.4,4.3-2.6
		c-4-8.9-13.5-15.1-23.1-16c-9.1-1.2-18.2,3.1-24.6,9.4c-0.9,0.6-2.9,3.3-2.9,0.5c5-6.5,12.9-10.2,20.8-11.8
		c-7.7-3.8-17-2.3-24.4,1.6c-4.1,2.2-7.1,6-11.3,7.9c0.2-0.6,0.8-1.7,1-2.2c5-4.9,11.2-8.5,17.9-10.6c-2.5-1.7-5.6-1.8-8.4-2
		c-7.9,0.2-15.2,4-21.5,8.5c-2.2,1.8-4.2,4-6.7,5.4c0.1-0.6,0.4-1.8,0.5-2.3c4.7-4.6,10.4-7.8,16-11
		C156.8,249.6,146,257.1,137.4,265.3 M206.9,275.1c3.7,0.9,9,2.9,11.6-1.1C214.6,272.4,210.5,273.2,206.9,275.1 M199.7,279.8
		c2.9-0.7,5.8-1.6,8.7-2.4C205.2,276,202,277.4,199.7,279.8 M324.9,282.9c-13.2,5.8-26.4,11.6-39.6,17.4c-1.7,0.7-3.4,1.8-3.6,3.7
		c-0.3,2.1,1.4,3.5,2.7,4.8c5.2,4.8,10.3,9.6,15.5,14.4c2.4,2.2,6,3.1,8.9,1.4c12.1-6.3,24.1-12.7,36-19.2c-1.2-1-2.4-1-3.5-0.2
		c-10.9,5.8-21.7,11.7-32.5,17.5c-2.4,1.5-5.5,1.1-7.5-0.9c-5.6-5-11.1-10.1-16.6-15.3c-1.7-1-1.4-3.7,0.5-4.3
		c13.4-6,26.9-11.8,40.3-17.7c3.7-2.1,7.6,0.8,11.4,1.2c-1.7-1.1-3.2-2.4-5-3.4C329.5,281.1,327,282,324.9,282.9 M347.7,325
		c0.6,0.1,1.7,0.3,2.3,0.4c3.1-1.5,5.9-3.6,8.8-5.5c-0.4-0.2-1.3-0.5-1.7-0.7C353.6,320.6,350.7,322.9,347.7,325 M357.2,331.7
		c2.3,1.5,4.7,3,7.2,4c0.3-2.7-0.1-5.4-0.8-8C361.4,328.9,359.3,330.3,357.2,331.7 M299.2,354.6c0.2,0.5,0.6,1.5,0.8,1.9
		c12.2-7.6,24.5-15.2,36.8-22.8c1.2-0.6,1.6-1.5,1.3-2.8C324.9,338.4,312.3,346.9,299.2,354.6 M83.5,347.5
		c-5.3,10.8-9.2,22.1-12.7,33.6c12-0.3,23.8,1.9,35.3,5.1c12.8,3.8,27.1,8.7,34.3,20.9c4.7-10,11.1-19.1,17.6-27.9
		c-11.9-18.2-32.2-30.6-53.8-32.6C97.3,345.9,90.1,345.5,83.5,347.5 M180.1,358.7c9.7,12.4,19.4,24.7,29.1,37.1
		c2.7,3.7,7.1,6,11.7,6.1c5.2,0.5,9.9-2.3,14.1-5.1c10.7-6.7,21.5-13.3,32.2-20c0.2-0.6,0.5-1.9,0.7-2.6
		c-10.4,6.1-20.5,12.6-30.8,18.9c-3.9,2.4-7.7,5.2-12.1,6.6c-5,1-10.7-0.6-13.9-4.8c-10.3-12.9-20.4-26-30.7-39
		C179.9,356.9,179,357.9,180.1,358.7 M263.4,392.9c4.4,9.7,5.4,20.6,9.8,30.3c-0.7-11.4-2.7-22.8-3.8-34.2
		C267.4,390.4,265.4,391.6,263.4,392.9z"/>
	<path className="st1" d="M162.4,70.4c0.7-1,1.7-1.6,3-1.8c-1.8,4.9-5.7,8.6-8.4,13.1c-0.5,0-1.5,0.1-2.1,0.1
		C157.1,77.7,159.5,73.9,162.4,70.4z"/>
	<path className="st1" d="M190.4,75.8c5.7-3,12.2-4.1,18.2-6.5c3.4,3.8,3.2,9.9,6.5,13.5c4.6-0.2,9.1,1.6,13.6,1.7
		c2.2-2.6,1.7-6.7,3.6-9.4c1-1.8,2.6,0.3,3.7,0.8c4.2,3.1,8.8,5.7,12.8,9.1c-0.2,4-2.3,7.6-2.5,11.5c3.3,3.9,6.6,7.8,9.1,12.3
		c2.7-0.2,4.9-1.8,7.5-2.7c1.5-0.4,1.8,1.7,2.3,2.6c1.9,5.5,3.8,11,5.6,16.5c-2.3,2-5.1,3.1-7.5,4.9c0.4,5.3,0.9,10.6,0.8,15.9
		c2.3,2.5,6.4,2.9,8.1,5.9c-0.9,5.1-2.3,10.1-3.4,15.1c-0.4,1.2-0.4,3-2,3.5c-2.5-0.8-4.8-2.2-7.1-3.4c-2.4,1.9-3.3,5-5.1,7.4
		c-1.1,1.8-2.9,3.2-3.4,5.4c1,3.8,3.1,7.2,3.8,11.1c-2.7,2.7-6.1,4.5-9.1,6.8c-2,1.2-3.8,3.3-6.4,3.1c-1.7-3.5-2.3-7.6-4.8-10.6
		c-4.4,0.9-8.8,1.4-13.3,1.4c-2.8,3.6-1.9,9.5-5.1,13.2c-6.3-2.5-13.1-4-18.9-7.5c0.8-4.6,3.4-9.2,3.3-13.9c-3.4-3-6.8-5.9-9.6-9.5
		c-1-0.9-1.6-2.5-3-2.7c-3.9,1.6-7.5,4-11.3,5.7c-4.1-6.1-6.1-13.4-9.4-20c-0.4-1.5-2.3-3.7-0.5-4.9c3.6-2.1,7.6-3.6,11.2-5.7
		c-1.3-6.6-1.1-13.4-1.5-20c-4.1-2.7-8.9-4.2-12.9-7.1c1.9-6.2,4-12.2,6-18.4c0.6-1.7,1-3.6,2.4-4.9c4.5,1.1,8,5.2,12.6,5.8
		c3.1-4.3,6.7-8.2,10.6-11.8C194.4,85.1,191.7,80.6,190.4,75.8 M217.6,110.8c-8.9,2.3-14.4,11.3-15.3,20c-1.2,11.6,3.3,24.8,13.8,31
		c4,2.6,9.2,3.2,13.8,2.3c5-1.4,9.4-5,11.8-9.5c6.6-11.4,4.3-26.6-4-36.5C232.9,112.6,225.1,108.7,217.6,110.8z"/>
	<path className="st1" d="M151.6,88.5c0.4,0.1,1.2,0.4,1.6,0.5c-1.4,5.3-3.9,10.4-4.9,15.8c-3.9,15.9-3.4,32.5-0.8,48.6
		c-0.4-0.2-1.3-0.7-1.7-1c-2.6-13.2-3.1-26.9-1.2-40.2C146.2,104.1,148.6,96.2,151.6,88.5z"/>
	<path className="st1" d="M273.3,98.3c0.4-0.2,1.2-0.6,1.6-0.9c3.7,9.2,7,18.6,8.9,28.3c1.3,10.3,2.4,20.8,1.1,31.2
		c-0.4,1.9,0.4,4.8-2.1,5.4c0.5-9.8,1.5-19.8-0.1-29.6C281.5,120.9,277.8,109.4,273.3,98.3z"/>
	<path className="st1" d="M282.2,165.2c0.4-0.1,1.3-0.4,1.7-0.5c-0.7,3.6-1.4,7.3-2.5,10.8c-0.5,0.2-1.4,0.6-1.8,0.8
		C280.3,172.6,281.1,168.9,282.2,165.2z"/>
	<path className="st1" d="M294.7,182c1.2-1.7,2.9-0.4,4.3,0c8.8,3.9,18.5,5.7,28.1,6.4c1.3,0,2.2,0.6,2.8,1.8
		C317.7,190.3,305.5,187.5,294.7,182z"/>
	<path className="st1" d="M374.2,224.8c1.6,0.2,3.2,0.5,4.8,1.2c12.8,4.8,24.6,12.1,34.5,21.4c0.2,0.5,0.5,1.4,0.7,1.9
		c-1.3-0.5-2.5-1.1-3.5-2c-8.9-8-19.1-14.6-30.3-18.8C378.2,227.6,375.4,227.1,374.2,224.8z"/>
	<path className="st1" d="M278,226.5c0.6,0.6,1.2,1.2,1.9,1.8c2.4-0.6,4.8-1.1,7.2-1.7c2.2,1.4,4.3,3.1,6.2,4.8
		c-4.5,1.1-9.1,2.1-13.5,3.4c-2.2,0.5-4.5,1.5-6.7,0.6c-0.5,0.6-1.6,1.7-2.1,2.2c-0.4-0.5-0.9-1.1-1.3-1.6
		C273,233.4,275.5,229.9,278,226.5z"/>
	<path className="st1" d="M287.7,234.9c5.7-1.5,11.4-3.2,17.3-4.2c2.3,1.2,4.3,3,6.3,4.7c-5.8,1.5-11.6,3.1-17.3,4.8
		C291.8,238.4,289.5,236.9,287.7,234.9z"/>
	<path className="st1" d="M216,242.4c8.4-1.6,16.6-3.9,25.1-5.4c2.8,1.2,4.8,3.7,7.1,5.6c-8.4,1.8-16.7,4.3-25.1,6
		C220.3,247.2,218.3,244.5,216,242.4z"/>
	<path className="st1" d="M284.9,244.4c6.3-1.7,12.6-3.5,19-5.2c2.3,1.8,4.6,3.6,6.9,5.4c-6.3,1.7-12.5,3.7-18.8,5.5
		C289.7,248.3,287.3,246.3,284.9,244.4z"/>
	<path className="st1" d="M238.9,246.8c7.9-1.9,15.7-4.1,23.7-5.7c2.2,2,4.4,3.8,6.7,5.7c-7.8,2.1-15.5,4.2-23.3,6.4
		C243.5,251.1,241.1,249.1,238.9,246.8z"/>
	<path className="st1" d="M260.9,251.1c7.3-2,14.6-4.1,22-6c2.3,1.9,4.7,3.8,7,5.8c-7.3,2.1-14.5,4.5-21.8,6.5
		C265.7,255.2,263.2,253.2,260.9,251.1z"/>
	<path className="st1" d="M282.3,255.1c6.8-1.9,13.5-4.1,20.2-6c2.4,1.9,4.8,3.8,7.2,5.8c-6.6,2.2-13.2,4.4-19.8,6.5
		C287.4,259.4,284.8,257.2,282.3,255.1z"/>
	<path className="st1" d="M233.2,258.6c8.6-2.1,17.1-4.8,25.7-6.9c2.3,2.1,4.7,4.2,7.1,6.3c-8.4,2.5-16.7,5-25.1,7.5
		C238.3,263.3,235.8,260.9,233.2,258.6z"/>
	<path className="st1" d="M303,259.1c6.3-2,12.5-4.1,18.8-6.1c2.5,1.9,4.9,3.8,7.4,5.8c-6.1,2.1-12.2,4.4-18.3,6.7
		C308.2,263.4,305.6,261.2,303,259.1z"/>
	<path className="st1" d="M256.7,262.8c7.8-2.4,15.6-4.7,23.4-7c2.3,1.9,4.7,3.7,6.9,5.7c0,0.2,0,0.7,0,0.9c-7.5,2.5-14.9,5-22.4,7.4
		C261.9,267.5,259.3,265.2,256.7,262.8z"/>
	<path className="st1" d="M323.2,262.8c5.7-2,11.4-4,17-6.2c2.6,1.8,5.2,3.8,7.8,5.8c-5.6,2.3-11.2,4.5-16.8,6.8
		C328.5,267,325.8,264.9,323.2,262.8z"/>
	<path className="st1" d="M279.9,266.9c6.9-2.6,14-4.7,21-7.1c2.3,1.9,4.8,3.6,7,5.6c0,0.2-0.1,0.7-0.1,1c-6.7,2.6-13.5,4.8-20.2,7.5
		C284.9,271.7,282,269.7,279.9,266.9z"/>
	<path className="st1" d="M301.2,270.8c6.6-2.3,13.2-4.8,19.8-7.2c2.7,2,5.4,4.2,8,6.3c-6.4,2.7-13,5.1-19.4,7.9
		C306.7,275.5,304,273.1,301.2,270.8z"/>
	<path className="st1" d="M252.2,275.9c8.4-2.8,16.7-5.5,25-8.3c2.8,2.3,5.5,4.7,8.3,7c-8.3,2.9-16.6,5.9-24.9,9.1
		C257.7,281.3,255,278.6,252.2,275.9z"/>
	<path className="st1" d="M276.1,280c7.7-2.8,15.4-5.5,23-8.4c2.9,2.3,5.6,4.7,8.5,7c-7.6,2.9-15.2,6-22.8,9.1
		C281.8,285.2,278.9,282.6,276.1,280z"/>
	<path className="st1" d="M131.2,276.2c9-1.8,18.3-0.7,27.3,0.6c7.1,1.3,14.6,2,20.9,5.9c1,0.7,2.6,1.4,2.2,2.9
		c-1.2,0.3-2.1-0.5-3.1-1.1c-7.4-4.6-16.2-5.5-24.7-6.6c-7.7-1.1-15.6-1.3-23.3,0.1C130.7,277.6,131,276.7,131.2,276.2z"/>
	<path className="st1" d="M220.5,286.4c9.9-3.2,19.7-6.5,29.5-9.7c2.8,2.6,5.7,5.1,8.3,7.9c-9.8,3.5-19.5,7.1-29.3,10.6
		C226.1,292.3,223.2,289.4,220.5,286.4z"/>
	<path className="st1" d="M246.9,290.6c9.1-3.2,18.1-6.6,27.1-9.8c2.9,2.6,5.8,5.2,8.9,7.7c-8.9,3.7-18,7.2-26.9,10.9
		C252.8,296.5,249.8,293.6,246.9,290.6z"/>
	<path className="st1" d="M385,319.1c8.9-4.8,18.3-8.6,28.1-11.3c0.2,0.5,0.6,1.3,0.8,1.8c-8.2,2.6-16.5,5.2-24.3,9
		c-2.9,1.5-5.7,3.4-8.7,4.6C380.9,320.9,383.4,320.1,385,319.1z"/>
	<path className="st1" d="M136.4,376.6c4.9-2.3,10,3.7,7.4,8.2c-1.8,4-8,4.5-10.3,0.7C131.4,382.4,132.9,377.9,136.4,376.6 M136.4,378.6
		c-2.4,1.1-2.8,5.1-0.6,6.6c2.2,2.2,6.3,0.8,6.7-2.3C143.3,379.7,139.3,376.6,136.4,378.6z"/>
	<path className="st1" d="M294.8,405.8c6.9-1.9,14-2.8,21.1-3.4c10.2-0.7,20.8-1.3,30.6,2.4c0.2,0.3,0.5,0.9,0.7,1.2
		c-0.1,0.3-0.4,0.9-0.5,1.1c-8.9-4.6-19.2-3.5-28.8-3.1c-7.4,0.6-14.9,1.4-22.1,3.5c-2.5,0.7-4.8,2.2-7.5,1.9
		C289.9,407.1,292.5,406.5,294.8,405.8z"/>
</g>
<g id="_x23_ffffffff">
	<path className="st2" d="M161.6,34.2c24.2-10,50.4-14.5,76.5-15.4c3.5-0.5,6.9,1.8,7.6,5.2c0.5,4.7,0.1,9.5,0.2,14.2
		C300,38.1,353.5,60.6,392,98.6c3.4-3.2,6.4-6.8,10-9.8c3-2.2,7.2-0.9,9.4,1.8c39.3,41.1,62.6,97.3,63,154.2c-0.1,3-2.9,4.9-5.5,5.8
		c-4.6,0.6-9.3,0.1-14,0.3c-0.3,43.3-14.4,86.3-39.7,121.4c-6.3,8.8-13.3,16.9-20.8,24.7c3,3.2,6.3,6,9.2,9.3
		c2.3,2.5,2.2,6.8-0.2,9.2c-40.9,39.9-97.5,63-154.6,64.1c-3.2-0.2-6.1-2.7-6.5-6c-0.4-4.5-0.1-9.1-0.2-13.6
		c-10.7-0.2-21.3-1.2-31.9-2.5c-29.4-4.7-57.7-15.9-82.6-32.3c-11.4-7.4-21.7-16.4-31.7-25.5c-3.3,3.1-6.3,6.7-9.9,9.5
		c-2.8,2.3-6.9,1.3-9.1-1.3C38,367.2,14.8,311.5,13.8,255c-0.6-3.6,2.1-6.9,5.6-7.5c4.5-0.6,9.1-0.1,13.7-0.3
		c0.5-28.5,6.1-57.1,18-83c7.5-17.5,17.7-33.7,29.5-48.5c0.1,1.6,0.2,3.3,0.3,4.9c-13.5,16.9-24.4,36-31.4,56.5
		c-0.2,0.5-0.7,1.6-0.9,2.2c-2.7,6.3-4.2,12.9-6,19.5c-4.6,16.8-6.1,34.3-6.4,51.7c-5.7,0.6-11.6-0.2-17.3,0.7c-2.2,0.5-2,3.1-2,4.9
		c0.2,4.8,0.4,9.6,0.2,14.5c0.7,1.7,1.2,3.5,1.5,5.4c4.6,41.6,21.6,81.5,47.4,114.4c0.5,0.7,1.1,1.4,1.6,2.1c1.3-3,1.8-6.2,2.6-9.3
		c5.2-0.4,10.5,0.2,15.6,1c13.3,2,26.7,5.1,38.8,11.2c6.1,3.1,11.6,7.7,14.5,14c-2.3,4.9-4.5,9.9-6.3,15c0.4,0.4,1.2,1.1,1.7,1.5
		c26.1,15.5,55.2,26.3,85.5,29.5c8.5,1.3,17.2,0.7,25.8,1.8c0.3,5.4-0.2,10.7,0.2,16.1c0,1.2,0.7,2.6,2,2.7
		c4.8,0.7,9.6-0.2,14.4-0.4c0.4,0,1.3-0.1,1.8-0.1c33.5-3,66.4-13.4,95.4-30.4c0.4-0.3,1.3-0.8,1.8-1.1c13.9-8.6,27-18.5,38.8-29.8
		c1.2-1.2,2.7-3,1.4-4.7c-3.3-4.6-8.4-7.6-11.4-12.4c4.4-5.7,9.8-10.6,14.4-16.3c0.5-0.6,1-1.1,1.5-1.7c13.1-16.2,23.7-34.5,31.3-54
		c0.2-0.5,0.5-1.5,0.7-2c8.1-22.1,13.2-45.5,13.3-69.1c0.2-2.1-0.3-4.6,1.2-6.4c5.7-1.1,11.5,0.4,17.2-0.8c1.2-0.8,1.2-2.4,1.3-3.7
		c0.1-3.7-0.3-7.4-0.4-11.1c0-0.6,0-1.7,0-2.3c-2.1,1.5-4.1,3-6.1,4.5c-0.8-19.2-12.9-37.4-30.7-44.9c8.4-4.9,16.9-9.5,25.2-14.4
		c-0.2-0.5-0.6-1.4-0.8-1.8c-6.9-18.4-15.5-36.1-26.6-52.3c-0.3-0.4-0.8-1.1-1.1-1.5c-12,6.3-23.6,13.5-34.4,21.6
		c-2.5-7.6-5.7-15.1-10.4-21.6c-6.4-9.4-16.9-16.7-28.6-16.6c6.4-4.8,12.9-9.5,19.8-13.6c-0.5-0.3-1.4-0.9-1.8-1.3
		C339.4,58.9,294,42.1,248,41.6c-1.9-0.1-3.8-0.3-5.6-0.6c-0.2-5.6,0.3-11.3-0.3-16.9c-0.3-2.3-3.2-2.2-5-2.2
		c-21.7,0.7-43.4,4.3-64,11.2c-2.3,0.8-4.7,1.6-7.1,2.1C164.5,34.9,163,34.5,161.6,34.2z"/>
	<path className="st2" d="M93.9,29c66.3,14.3,132.7,28.8,199,43.1c1.6,29,3.4,58,5.1,86.9c0.7,3.8-3,6.3-4.6,9.4
		c-9.7,13.4-16.9,28.2-23.9,43.1c-3.4,1-6.9,1.3-10.3,2c-50.9,9-101.9,17.7-152.7,26.9c-0.1-5.4-0.8-10.7-0.8-16.1
		c6.6-3.7,12.7-8.2,18.8-12.7c2.6-2.5,6.6-5.5,5.2-9.6c-1.4-2.8-4.8-3.8-7.7-4.1c-5.3-0.2-10.7-0.1-16,0.3c-1,0.2-1.9-0.1-2.6-0.8
		c2.6-0.6,5.5-0.4,7.8-2.1c1.4-1.1,0.7-3.1,0.8-4.6c6.4,1.2,13.6,3.3,19.7-0.1c2.3-2,0.6-5.2-0.5-7.4c4.5,0.8,9.9,1.9,14-0.9
		c2.8-2.4,0.6-5.9-1.1-8.2c2.7-0.8,5.1-2.2,6.9-4.4c-0.4-1.9-1-4.2-3.2-4.8c-14.7-5.3-30.7-5.3-46-3.2C99.2,117.4,96.5,73.2,93.9,29
		 M162.4,70.4c-2.9,3.5-5.3,7.3-7.5,11.3c0.5,0,1.6,0,2.1-0.1c2.6-4.5,6.5-8.2,8.4-13.1C164.1,68.8,163.1,69.4,162.4,70.4
		 M190.4,75.8c1.3,4.8,4,9.3,4.9,14.2c-3.9,3.6-7.4,7.5-10.6,11.8c-4.6-0.6-8-4.8-12.6-5.8c-1.4,1.3-1.8,3.2-2.4,4.9
		c-1.9,6.1-4.1,12.2-6,18.4c4,2.9,8.8,4.5,12.9,7.1c0.4,6.6,0.2,13.4,1.5,20c-3.6,2.2-7.6,3.6-11.2,5.7c-1.9,1.2,0.1,3.4,0.5,4.9
		c3.3,6.6,5.3,13.8,9.4,20c3.9-1.7,7.4-4.1,11.3-5.7c1.4,0.2,2.1,1.8,3,2.7c2.7,3.6,6.2,6.5,9.6,9.5c0.2,4.7-2.4,9.2-3.3,13.9
		c5.8,3.5,12.6,5,18.9,7.5c3.1-3.7,2.2-9.6,5.1-13.2c4.5,0,8.9-0.5,13.3-1.4c2.5,3,3.1,7.1,4.8,10.6c2.6,0.3,4.4-1.8,6.4-3.1
		c3-2.3,6.4-4.1,9.1-6.8c-0.7-3.9-2.8-7.3-3.8-11.1c0.5-2.1,2.4-3.5,3.4-5.4c1.9-2.4,2.7-5.5,5.1-7.4c2.3,1.2,4.6,2.6,7.1,3.4
		c1.6-0.5,1.5-2.3,2-3.5c1.1-5.1,2.5-10,3.4-15.1c-1.7-3-5.9-3.4-8.1-5.9c0.1-5.3-0.4-10.6-0.8-15.9c2.4-1.8,5.3-2.9,7.5-4.9
		c-1.8-5.5-3.8-11-5.6-16.5c-0.5-0.9-0.7-3-2.3-2.6c-2.5,0.8-4.8,2.4-7.5,2.7c-2.5-4.5-5.8-8.5-9.1-12.3c0.2-3.9,2.2-7.6,2.5-11.5
		c-4-3.4-8.6-6-12.8-9.1c-1.1-0.5-2.7-2.6-3.7-0.8c-2,2.8-1.4,6.8-3.6,9.4c-4.5-0.1-9-2-13.6-1.7c-3.3-3.7-3.1-9.7-6.5-13.5
		C202.6,71.7,196.1,72.8,190.4,75.8 M151.6,88.5c-3,7.7-5.4,15.6-6.9,23.7c-1.9,13.3-1.4,27,1.2,40.2c0.4,0.2,1.3,0.7,1.7,1
		c-2.7-16.1-3.2-32.7,0.8-48.6c1-5.5,3.5-10.5,4.9-15.8C152.8,88.8,152,88.6,151.6,88.5 M273.3,98.3c4.5,11.1,8.2,22.6,9.4,34.5
		c1.7,9.8,0.6,19.7,0.1,29.6c2.6-0.6,1.7-3.5,2.1-5.4c1.3-10.4,0.1-20.9-1.1-31.2c-1.9-9.8-5.2-19.1-8.9-28.3
		C274.5,97.7,273.7,98.1,273.3,98.3 M282.2,165.2c-1.1,3.7-1.9,7.4-2.6,11.2c0.5-0.2,1.4-0.6,1.8-0.8c1.1-3.5,1.8-7.2,2.5-10.8
		C283.5,164.9,282.6,165.1,282.2,165.2z"/>
	<path className="st2" d="M353.6,105.5c1.5-1.4,3.6-1,5.4-0.9c9.9,0.9,18.9,6.9,24.5,15c5.2,6.7,8.5,14.5,11.1,22.4
		c-6.1,4.4-11.7,9.5-17.6,14.2c-2.9-12.4-9.1-25-20.2-32c-5.5-3.4-11.9-5.8-18.5-5.5C343.4,114.3,348.1,109.5,353.6,105.5z"/>
	<path className="st2" d="M217.6,110.8c7.5-2.1,15.3,1.7,20.1,7.4c8.3,9.9,10.6,25.1,4,36.5c-2.5,4.6-6.8,8.1-11.8,9.5
		c-4.7,0.9-9.8,0.3-13.8-2.3c-10.5-6.2-15-19.3-13.8-31C203.2,122.1,208.7,113.2,217.6,110.8z"/>
	<path className="st2" d="M83.5,347.5c6.6-1.9,13.8-1.5,20.7-0.9c21.7,2,41.9,14.4,53.8,32.6c-6.5,8.9-12.9,17.9-17.6,27.9
		c-7.2-12.2-21.5-17.1-34.3-20.9c-11.5-3.2-23.3-5.4-35.3-5.1C74.3,369.6,78.2,358.2,83.5,347.5 M136.4,376.6
		c-3.5,1.2-5,5.8-2.9,8.9c2.2,3.8,8.4,3.3,10.3-0.7C146.4,380.3,141.2,374.4,136.4,376.6z"/>
	<path className="st2" d="M136.4,378.6c2.9-2,6.9,1.1,6.1,4.3c-0.4,3.1-4.5,4.4-6.7,2.3C133.6,383.7,134,379.8,136.4,378.6z"/>
</g>
</svg>
