<svg id="Layer_1" data-name="Layer 1" xmlns="http://www.w3.org/2000/svg" viewBox="0 0 137.02 88.36"><defs><style>.cls-1{fill:#001b47;}.cls-2,.cls-24{fill:#fff;}.cls-3{fill:#ededed;}.cls-20,.cls-21,.cls-4{fill:none;}.cls-19,.cls-5{isolation:isolate;font-family:Montserrat-SemiBold, Montserrat;font-weight:600;}.cls-5{font-size:2.8px;}.cls-6{letter-spacing:-0.01em;}.cls-7{letter-spacing:-0.01em;}.cls-8{fill:#d8d8d8;}.cls-9{letter-spacing:-0.06em;}.cls-10{letter-spacing:0em;}.cls-11{letter-spacing:-0.02em;}.cls-12{letter-spacing:-0.01em;}.cls-13{letter-spacing:0em;}.cls-14{letter-spacing:0.01em;}.cls-15{letter-spacing:0em;}.cls-16{letter-spacing:-0.01em;}.cls-17{letter-spacing:-0.01em;}.cls-18{letter-spacing:0em;}.cls-19{font-size:1.49px;}.cls-20{stroke:#303030;}.cls-20,.cls-21,.cls-22,.cls-24{stroke-miterlimit:10;}.cls-20,.cls-21{stroke-width:0.35px;}.cls-21{stroke:#9f9f9f;}.cls-22{fill:#139dff;stroke-width:0.25px;}.cls-22,.cls-24{stroke:#231f20;}.cls-23{fill:#1f1f1f;}</style></defs><g id="Layer_1-2" data-name="Layer 1"><circle class="cls-1" cx="44.18" cy="44.18" r="44.18"/><rect class="cls-2" x="32.22" y="28.86" width="99.42" height="44.25"/><path class="cls-3" d="M32.73,35.84a3.14,3.14,0,0,1,3-2.54H141.5a3.13,3.13,0,0,1,2.23.86,3.44,3.44,0,0,1,1,2.64v64.44a3.14,3.14,0,0,1-3,3.24H35.75a3.12,3.12,0,0,1-3.08-3.06c0-10.46,0-20.94,0-31.4.6.07,1-.45,1.33-.8,2.17-2.23,4.45-4.38,6.58-6.64-2.17-2.29-4.47-4.46-6.67-6.72-.36-.34-.68-.82-1.24-.69,0-5.57,0-11.12,0-16.68A18,18,0,0,1,32.73,35.84Zm3,.6c-.41.64.69,1.38,1.14.75.34-.3.12-.71,0-1.07C36.52,36.07,35.92,36,35.77,36.44Zm2.34-.32c-.11.3-.38.7-.11,1a.67.67,0,0,0,1,.15.74.74,0,0,0,0-1.12A1.87,1.87,0,0,0,38.11,36.12Zm2,.34c-.32.65.63,1.33,1.12.79.39-.3.15-.79,0-1.13C40.84,36.07,40.26,36,40.11,36.46Zm9.24,8.72a.8.8,0,0,0,.75,1.2q39.25,0,78.51,0a1.39,1.39,0,0,0,.56-.8c0-.15-.11-.3-.16-.47a1.14,1.14,0,0,0-.79-.26H50.87C50.34,44.9,49.71,44.72,49.35,45.18ZM61.1,49.24c-.41.43-.26,1.32.43,1.31,8.65,0,17.3,0,26,0,9.9,0,19.8,0,29.7,0a.69.69,0,0,0,.67-.87c0-.34-.39-.47-.61-.64-18.57,0-37.16,0-55.73,0ZM42.82,56.82c0,7.57,0,15.15,0,22.74,0,5.1,0,10.2,0,15.3,11.57,0,23.15,0,34.71,0,19.62,0,39.23,0,58.82,0,.1-4.23,0-8.45,0-12.67,0-4.78,0-9.56,0-14.35,0-3.86.06-7.73,0-11.6-2.24-.09-4.46,0-6.7,0-21.15,0-42.31,0-63.46,0-7.79,0-15.56,0-23.35,0C42.87,56.37,42.83,56.6,42.82,56.82Z" transform="translate(-7.68 -24.6)"/><path class="cls-3" d="M114.29,87.81" transform="translate(-7.68 -24.6)"/><path d="M49.35,45.18c.36-.46,1-.28,1.52-.31h77.35a1.18,1.18,0,0,1,.79.26c.05.15.11.3.16.47a1.36,1.36,0,0,1-.56.8q-39.26,0-78.51,0A.79.79,0,0,1,49.35,45.18Z" transform="translate(-7.68 -24.6)"/><path d="M61.1,49.24l.41-.17c18.57,0,37.16,0,55.73,0,.22.17.6.3.61.64a.69.69,0,0,1-.67.87c-9.9,0-19.8,0-29.7,0-8.65,0-17.3,0-25.95,0C60.84,50.56,60.69,49.67,61.1,49.24Z" transform="translate(-7.68 -24.6)"/><path d="M42.82,56.82c0-.22,0-.45.07-.67,7.79,0,15.56,0,23.35,0v.67Q54.53,56.81,42.82,56.82Z" transform="translate(-7.68 -24.6)"/><path class="cls-2" d="M122.49,62.18h.41C123,62.48,122.37,62.5,122.49,62.18Z" transform="translate(-7.68 -24.6)"/><path class="cls-2" d="M129.57,73.41c.28,0,.28.54,0,.56A.29.29,0,0,1,129.57,73.41Z" transform="translate(-7.68 -24.6)"/><path class="cls-2" d="M129.57,77.56c.28,0,.28.54,0,.58S129.29,77.59,129.57,77.56Z" transform="translate(-7.68 -24.6)"/><path class="cls-2" d="M45.45,87.42c.28-.24.5.3.3.49S45.21,87.61,45.45,87.42Z" transform="translate(-7.68 -24.6)"/><path class="cls-2" d="M91.27,87.63" transform="translate(-7.68 -24.6)"/><rect class="cls-4" x="42.87" y="35.62" width="19.6" height="3.31"/><text class="cls-5" transform="translate(42.86 37.7)"><tspan class="cls-6">V</tspan><tspan x="2.01" y="0">i</tspan><tspan class="cls-6" x="2.82" y="0">e</tspan><tspan class="cls-7" x="4.54" y="0">w</tspan><tspan x="7.09" y="0">s</tspan></text><rect class="cls-8" x="58.56" y="31.53" width="70.16" height="11.66"/><circle class="cls-1" cx="30.9" cy="12.07" r="0.77"/><circle class="cls-1" cx="28.79" cy="12.07" r="0.77"/><circle class="cls-1" cx="32.99" cy="12.07" r="0.77"/><rect class="cls-4" x="63.34" y="35.62" width="19.6" height="3.31"/><text class="cls-5" transform="translate(63.34 37.7)"><tspan class="cls-9">W</tspan><tspan class="cls-10" x="3.05" y="0">a</tspan><tspan class="cls-11" x="4.75" y="0">t</tspan><tspan class="cls-12" x="5.89" y="0">c</tspan><tspan class="cls-13" x="7.5" y="0">h ti</tspan><tspan class="cls-14" x="12.19" y="0">m</tspan><tspan x="15.16" y="0">e</tspan></text><rect class="cls-4" x="86.23" y="35.81" width="19.6" height="3.31"/><text class="cls-5" transform="translate(86.22 37.89)">Subsc<tspan class="cls-12" x="8.66" y="0">r</tspan><tspan class="cls-13" x="9.83" y="0">ibe</tspan><tspan class="cls-15" x="14.3" y="0">r</tspan><tspan x="15.47" y="0">s</tspan></text><rect class="cls-4" x="111.71" y="35.62" width="19.6" height="3.31"/><text class="cls-5" transform="translate(111.71 37.7)">R<tspan class="cls-16" x="2.05" y="0">e</tspan><tspan class="cls-17" x="3.76" y="0">v</tspan><tspan class="cls-18" x="5.34" y="0">enue</tspan></text><rect class="cls-4" x="120.3" y="48.21" width="7.53" height="3.31"/><text class="cls-19" transform="translate(120.3 49.32)">100K</text><rect class="cls-4" x="120.21" y="52.38" width="7.53" height="3.31"/><text class="cls-19" transform="translate(120.21 53.49)">50K</text><rect class="cls-4" x="120.21" y="56.3" width="7.53" height="3.31"/><text class="cls-19" transform="translate(120.21 57.41)">10K</text><rect class="cls-4" x="120.21" y="60.21" width="7.53" height="3.31"/><text class="cls-19" transform="translate(120.21 61.32)">0</text><rect class="cls-4" x="37.66" y="62.26" width="1.38" height="1.64"/><text class="cls-19" transform="translate(37.66 63.36)">0</text><rect class="cls-4" x="48.87" y="62.26" width="1.38" height="1.64"/><text class="cls-19" transform="translate(48.87 63.36)">1</text><rect class="cls-4" x="60.32" y="62.45" width="2.26" height="2.07"/><text class="cls-19" transform="translate(60.32 63.56)">2</text><rect class="cls-4" x="71.94" y="62.5" width="2.26" height="2.07"/><text class="cls-19" transform="translate(71.94 63.61)">3</text><rect class="cls-4" x="83.09" y="62.52" width="2.26" height="2.07"/><text class="cls-19" transform="translate(83.09 63.63)">4</text><rect class="cls-4" x="94.52" y="62.52" width="2.26" height="2.07"/><text class="cls-19" transform="translate(94.52 63.63)">5</text><rect class="cls-4" x="105.73" y="62.49" width="2.26" height="2.07"/><text class="cls-19" transform="translate(105.72 63.59)">6</text><rect class="cls-4" x="117.01" y="62.45" width="2.26" height="2.07"/><text class="cls-19" transform="translate(117 63.56)">7</text><line class="cls-20" x1="37.68" y1="60.9" x2="117.91" y2="60.9"/><line class="cls-21" x1="37.68" y1="56.81" x2="117.91" y2="56.81"/><line class="cls-21" x1="37.68" y1="52.98" x2="117.91" y2="52.98"/><line class="cls-21" x1="37.68" y1="48.98" x2="117.91" y2="48.98"/><path class="cls-20" d="M106.38,75c-7.62,1.3-8.08-1.35-15.71,0s-7.17,4-14.79,5.27-8.09-1.35-15.71,0-7.17,4-14.81,5.27" transform="translate(-7.68 -24.6)"/><path class="cls-20" d="M106.31,75.05c4.35-1.3,4.82.25,9.19-1.08s3.9-2.86,8.26-4.17" transform="translate(-7.68 -24.6)"/><path class="cls-22" d="M20.34,64.84c1.69-2,3.29-5.26,9.73-6.12A25.88,25.88,0,0,0,33,58.2V55.49l7,6.89-7,7.06-.17-2.94a11.57,11.57,0,0,0-5.36.67c-3.22,1.09-3.22.45-6.64,2.94s-2.55,3-2.95,3,0-2.12,0-2.12l.47-1.8L19.12,67Z" transform="translate(-7.68 -24.6)"/><path class="cls-23" d="M32.65,55.18c.56-.15.88.35,1.24.69,2.2,2.26,4.5,4.43,6.67,6.72C38.43,64.85,36.17,67,34,69.23c-.37.37-.73.87-1.33.8,0-1,0-2,0-3a17.22,17.22,0,0,0-9.9,2.54,16.62,16.62,0,0,0-4.67,4.52c-.19.32-.64.19-.94.27a10.77,10.77,0,0,1,.24-2.41,18.71,18.71,0,0,1,4-8.8,14.7,14.7,0,0,1,9.19-4.88c.71-.07,1.42-.07,2.12-.18C32.62,57.1,32.6,56.15,32.65,55.18Zm.75,1.29c-.08,1.49,0,.28-.17,2.29a17.87,17.87,0,0,0-3.49.4,15.73,15.73,0,0,0-2.93.89l-.58.22a12.61,12.61,0,0,0-2.43,1.58,10.16,10.16,0,0,0-2.06,2,9,9,0,0,0-1.28,1.74A18.42,18.42,0,0,0,18,72.76a24,24,0,0,1,3.75-3.52c.77-.44,1.52-.91,2.32-1.3a26.07,26.07,0,0,1,3.27-1.18,15,15,0,0,1,2.09-.43l.62,0c.89-.05,1.73,0,2.63,0,.5,0,.67.1.67.44.06.63,0,1.28,0,1.92a35.47,35.47,0,0,0,2.93-2.82c1.07-1.08,2.17-2.13,3.22-3.21-1.12-1.22-2.34-2.34-3.5-3.52C35.18,58.2,34.3,57.33,33.4,56.47Z" transform="translate(-7.68 -24.6)"/></g><path class="cls-24" d="M17.61,73.33" transform="translate(-7.68 -24.6)"/></svg>