<?xml version="1.0" encoding="utf-8"?>
<!-- Generator: Adobe Illustrator 26.0.0, SVG Export Plug-In . SVG Version: 6.00 Build 0)  -->
<svg version="1.1" id="Layer_1" xmlns="http://www.w3.org/2000/svg" xmlns:xlink="http://www.w3.org/1999/xlink" x="0px" y="0px"
	 viewBox="0 0 800 800" style="enable-background:new 0 0 800 800;" xml:space="preserve">
<style type="text/css">
	.st0{fill:#001B47;}
	.st1{fill:#ECECEC;}
	.st2{fill:#FFFFFF;}
	.st3{fill:#E93524;}
	.st4{fill:#D2D2D2;}
	.st5{fill:#DBDBDB;}
	.st6{fill:#5ECDEF;}
	.st7{fill:#1EB3F1;}
	.st8{fill:#F1F1F1;}
	.st9{fill:#E1E1E1;}
	.st10{fill:#DCDCDC;}
</style>
<circle class="st0" cx="544.6" cy="401.1" r="243"/>
<g>
	<g>
		<path class="st1" d="M49.7,147.8c1.8-9.5,10.3-17.5,20.2-17.4c155.4,0,310.7,0,466.1,0c8.6-0.2,16.8,5.7,19.6,13.8
			c1.8,4.3,0.7,9.1,1.4,13.7l0,0.4c-0.5,16.2-0.1,32.5-0.2,48.7c0,29.7,0.1,59.4,0,89.1c-4-4-7.9-8.1-12-12.1
			c-1.1-1.3-2.9-0.5-4.3-0.6c-0.9,4.3,3.7,6.4,6,9.2c3.5,3,5.9,7.4,10.4,9c0,5.9,0.1,11.9,0,17.9c-10.8,16.1-15,36.6-10.6,55.5
			c1.9,9,5.9,17.4,10.8,25.1c-0.5,41.9-0.1,83.9-0.2,125.9c-0.2,6,0.9,12.5-1.8,18.1c-3.2,7.3-11,12.2-19,12.2
			c-59.1,0-118.1-0.1-177.2,0c-94.9-0.1-189.9,0-284.8,0c-2.6-0.1-5.3,0.3-7.8-0.4c-7.9-1.6-14.5-8.2-16.2-16
			c-0.6-2.2-0.4-4.6-0.4-6.9c0-90.7,0-181.3,0-272C49.7,223.3,49.5,185.5,49.7,147.8z M137.4,144.5c-5.1,1.2-8.9,7.1-7.1,12.2
			c1.2,4.1,5.3,7.3,9.7,7c128.7,0,257.4,0,386,0c5.3,0.3,10.5-4.1,10.2-9.6c0.4-5.6-4.9-10-10.2-9.7c-126,0-252,0-378,0
			C144.5,144.4,140.9,144.1,137.4,144.5z M69.4,152.9c0.8,2.5,2.5,5.6,5.6,4.8c4.7-0.1,5.3-7.9,0.8-8.9
			C72.9,147.6,70.4,150.4,69.4,152.9z M86.4,149.4c-3.8,2.2-1.9,9,2.6,8.4c3.3,0.3,5-3.2,4.6-6.1C92.1,149.4,89,147.4,86.4,149.4z
			 M99.9,149.9c-2.3,2.8-0.8,7.8,3.1,7.9c3,0.6,4.8-2.2,5.4-4.8C107.5,149.2,103.1,147.3,99.9,149.9z M78.4,193.5
			c-2.8,0.8-5.5,2.5-6.8,5.1c-2.2,3.7-1.7,8.2-1.8,12.4c0.1,55.3,0,110.7,0.1,166.1c-0.1,6.2,5.8,11.8,12.1,11.1
			c70,0,140.1,0.1,210.1,0c6,0.2,11.3-5.3,11.2-11.2c0-54.3,0-108.6,0-162.9c-0.1-4.2,0.4-8.6-0.6-12.7c-1.1-5.2-6.6-8.6-11.7-8.1
			c-69.7,0-139.3,0-209,0C80.8,193.1,79.6,193.3,78.4,193.5z M326.6,196.7c-4.1,4-3.2,10-3.3,15.2c0,54.7,0,109.4,0,164.1
			c-0.2,6.3,5.2,12.3,11.6,12.1c63.4,0,126.7,0.1,190.1,0c6.3,0.2,11.7-5.9,11.2-12.1c-0.1-15.8,0.2-31.6-0.1-47.4
			c1.1,0.1,2.2,0.1,3.3-0.3c0-1.2,0-2.4,0-3.6c-1.5-0.7-3.1-1.4-4.6-2c1-1,1.5-2.3,1.4-3.7c0-37.3-0.1-74.7,0-112
			c0-3.2-0.3-6.5-2.2-9.2c-2.3-3.1-6.2-4.9-10.1-4.7c-60.7,0-121.4,0.1-182,0C336.8,193.2,330.4,192.2,326.6,196.7z M532.8,390.9
			c-5,2-10,4.2-15,6.1c-0.4,1.3-0.6,2.6-0.3,3.9c-10.1-0.6-20.4,0-30.6-0.2c-133.3,0-266.6,0-399.9,0c-4.3,0.1-9.4-0.7-12.9,2.6
			c-3.1,2.3-4.5,6.1-4.3,9.9c0,37.3,0,74.6,0,112c-0.2,6.5,5.5,12.4,12.1,12c142.3,0,284.7,0,427,0c5.7-0.1,11.4,0.3,17-0.2
			c5.8-0.5,10.7-5.9,10.2-11.8c0-37.7,0.1-75.4,0-113.1c0.2-7-6.9-12.3-13.6-11.5c5-2.3,10.3-4.2,15.4-6.5c2.1-0.6,1.7-3.5,0.1-4.5
			C536.2,389.2,534.5,390.2,532.8,390.9z"/>
	</g>
</g>
<g>
	<path class="st2" d="M137.4,144.5c3.5-0.5,7.1-0.2,10.6-0.2c126,0,252,0,378,0c5.3-0.3,10.6,4.2,10.2,9.7c0.3,5.5-4.9,9.9-10.2,9.6
		c-128.7,0-257.4,0-386,0c-4.4,0.3-8.5-2.8-9.7-7C128.6,151.6,132.3,145.8,137.4,144.5z"/>
	<g>
		<path class="st2" d="M78.4,193.5c1.2-0.2,2.4-0.4,3.6-0.4c69.7,0,139.3,0,209,0c5.1-0.4,10.6,3,11.7,8.1c0.9,4.2,0.5,8.5,0.6,12.7
			c0,54.3,0,108.6,0,162.9c0.1,5.9-5.2,11.4-11.2,11.2c-70,0.1-140.1,0-210.1,0c-6.2,0.6-12.2-4.9-12.1-11.1
			c-0.1-55.4,0-110.7-0.1-166.1c0-4.1-0.5-8.6,1.8-12.4C73,196,75.6,194.3,78.4,193.5z M181.9,236.2c-21.4,1.5-41,16.9-47.4,37.4
			c-5.3,15.7-2.8,33.8,6.5,47.4c8.4,12.5,22.1,21.4,37,23.6c12.3,1.9,25.4-0.4,36.1-6.9c9.7-5.5,17.5-14.2,22.1-24.4
			c6.4-13.7,6.6-29.9,0.8-43.8c-7-16.6-22.4-29.2-40.1-32.6C192.1,235.6,187,235.1,181.9,236.2z"/>
	</g>
	<g>
		<path class="st2" d="M326.6,196.7c3.8-4.5,10.2-3.5,15.4-3.6c60.7,0.1,121.4,0,182,0c3.9-0.2,7.8,1.5,10.1,4.7
			c1.8,2.7,2.1,6.1,2.2,9.2c-0.1,37.3,0,74.7,0,112c0.1,1.4-0.4,2.7-1.4,3.7c-5-2.2-10.1-4.2-15.1-6.3c-1.4,0.8-2.7,1.9-2.3,3.8
			c1.2,1.4,3.1,1.9,4.7,2.7c4.7,1.8,9.2,4,14,5.8c0.2,15.8,0,31.6,0.1,47.4c0.5,6.2-4.9,12.3-11.2,12.1c-63.4,0.1-126.7,0-190.1,0
			c-6.5,0.2-11.8-5.8-11.6-12.1c0-54.7,0-109.4,0-164.1C323.4,206.8,322.5,200.7,326.6,196.7z M349,235.3c4,12,9.3,23.6,13.6,35.5
			l0.6,0c1.4,5,3.6,9.7,5.1,14.7l0.3,0c3.2,8.5,6.7,16.9,9.9,25.3h0.5c1.1,4.7,3.1,9.1,5.1,13.5c2.9,9,6.8,17.6,10.2,26.4
			c23.7,0,47.5,0.1,71.2,0c3.5-8.3,6.4-16.9,10.2-25.2c1.4-5,3.6-9.6,5.3-14.5c3.9-8.3,6.8-17,10.3-25.4l0.4,0
			c1.3-5,3.5-9.8,5.3-14.6c4.9-11.7,9.5-23.6,14.1-35.6C457,235.2,403,235.2,349,235.3z M509.5,357.9c-0.6,1.7,0.4,3.8,2.4,3.6
			c6.7,0,13.5,0.3,20.2-0.1c0.4-0.8,0.9-1.6,1.3-2.4c-0.9-1-1.7-2.7-3.4-2.3c-5-0.1-10,0-15.1-0.1
			C513.1,356.6,510.8,356,509.5,357.9z"/>
	</g>
	<path class="st2" d="M186.6,252.5c15-0.1,29.4,9.4,35.1,23.3c7.5,16.8,0.6,38.5-15.6,47.5c-8.7,5.5-19.7,6.9-29.5,4.2
		c-14.1-3.7-25.4-16-27.7-30.4c-2.3-13,2.7-26.9,12.8-35.4C168.6,255.9,177.5,252.5,186.6,252.5z"/>
	<g>
		<path class="st2" d="M74.2,403.2c3.5-3.3,8.5-2.5,12.9-2.6c133.3,0,266.6,0,399.9,0c10.2,0.2,20.4-0.4,30.6,0.2
			c1.7,0.6,3.5,0.4,5.2-0.3c6.7-0.8,13.8,4.5,13.6,11.5c0.1,37.7,0,75.4,0,113.1c0.5,5.9-4.5,11.3-10.2,11.8
			c-5.7,0.5-11.4,0.1-17,0.2c-142.3,0-284.7,0-427,0c-6.6,0.4-12.3-5.5-12.1-12c0-37.3,0-74.6,0-112
			C69.7,409.3,71.1,405.5,74.2,403.2z M100.4,420.6c-3.3,1-5.8,4.2-6,7.7c-0.1,4.6,3.8,9,8.6,8.4c133.3,0,266.7,0,400,0
			c4.4,0.4,8.7-3.2,8.8-7.6c0.6-4.8-4-9.2-8.8-8.7c-130.7,0-261.4,0-392,0C107.5,420.5,103.9,420.1,100.4,420.6z M100.3,447.5
			c-4,1-6.8,5.5-5.7,9.5c0.8,3.8,4.4,6.8,8.3,6.5c133.4,0,266.7,0,400.1,0c4.3,0.4,8.7-3.2,8.8-7.5c0.5-3.9-2.4-7.8-6.2-8.6
			c-3.5-0.4-7.1-0.1-10.6-0.2c-115.3,0-230.7,0-346,0C132.8,447.5,116.5,446.9,100.3,447.5z M99.4,474.5c-4.8,1.9-6.8,8.4-3.5,12.5
			c2.9,4.3,8.7,3.2,13.2,3.4c131,0,262,0,393,0c3.5,0.2,7.4-1.2,8.8-4.6c2.8-4.9-1.2-11.6-6.8-11.7c-17.3-0.4-34.7,0.2-52-0.2
			c-16-0.2-32,0.6-48,0c-32.7,0.3-65.3,0.2-98,0c-27.7,0.4-55.3-0.3-83,0.1c-31.7-0.1-63.3,0.1-95,0
			C118.5,474.4,108.9,473.3,99.4,474.5z M99.3,501.4c-3.4,1.2-5.4,5-5,8.5c0.4,4.3,4.4,7.7,8.7,7.3c131.7,0.1,263.3,0,395,0.1
			c3.7-0.1,8.1,0.6,11-2.3c3.5-3,3.5-9,0-12c-1.9-1.8-4.6-2.2-7.1-2.2c-130.7,0-261.3,0-391.9,0C106.5,500.9,102.8,500.3,99.3,501.4
			z"/>
	</g>
</g>
<g>
	<path class="st3" d="M69.4,152.9c1-2.6,3.4-5.3,6.5-4c4.5,1,3.8,8.8-0.8,8.9C71.9,158.5,70.2,155.5,69.4,152.9z"/>
	<path class="st3" d="M86.4,149.4c2.6-2,5.8-0.1,7.2,2.3c0.3,2.8-1.3,6.4-4.6,6.1C84.4,158.4,82.6,151.6,86.4,149.4z"/>
	<path class="st3" d="M99.9,149.9c3.2-2.5,7.6-0.7,8.5,3.2c-0.6,2.5-2.4,5.3-5.4,4.8C99,157.7,97.6,152.7,99.9,149.9z"/>
</g>
<g>
	<path class="st4" d="M181.9,236.2c5-1.1,10.2-0.7,15.1,0.7c-3.4-0.6-7-0.7-10.5-0.8c0,5.4,0,10.9,0,16.3c-9,0-18,3.4-24.9,9.2
		c-10.1,8.5-15.1,22.4-12.8,35.4c2.3,14.4,13.6,26.7,27.7,30.4c9.9,2.6,20.8,1.3,29.5-4.2c2.3,5.1,5.5,9.6,8.1,14.5
		c-10.7,6.5-23.8,8.8-36.1,6.9c-14.9-2.2-28.6-11.1-37-23.6c-9.3-13.7-11.8-31.7-6.5-47.4C141,253.2,160.5,237.7,181.9,236.2z"/>
</g>
<g>
	<path class="st5" d="M349,235.3c54,0,108-0.1,161.9,0c-4.5,11.9-9.1,23.8-14.1,35.6c-44.6-0.1-89.1,0-133.7-0.1l-0.6,0
		C358.3,258.8,352.9,247.3,349,235.3z"/>
	<path class="st5" d="M368.5,285.4c7.8-1.3,15.6-0.4,23.5-0.6c28.3,0,56.7,0,85,0c4.8-0.1,9.5-0.3,14.2,0.6
		c-3.4,8.5-6.4,17.2-10.3,25.4c-34-0.3-68-0.1-102-0.1h-0.5C375.2,302.3,371.7,293.9,368.5,285.4z"/>
	<path class="st5" d="M384.1,324.2c29.3,0.3,58.6,0.1,88,0.1c1.3,0,2.5,0.6,3.6,1c-3.7,8.3-6.6,16.9-10.2,25.2
		c-23.7,0.2-47.5,0.1-71.2,0C390.9,341.8,387,333.2,384.1,324.2z"/>
</g>
<g>
	<path class="st0" d="M186.6,236.2c3.5,0.1,7,0.1,10.5,0.8c17.7,3.4,33.1,16,40.1,32.6c-5.1,2.1-10.3,4.2-15.4,6.2
		c-5.7-13.9-20.2-23.4-35.1-23.3C186.5,247.1,186.5,241.6,186.6,236.2z"/>
</g>
<g>
	<path class="st6" d="M614.2,255.9c-0.4-2.1,1.3-3,2.9-3.6c0.8,1.1,2.3,2,2.1,3.6c0,6,0.2,11.9-0.1,17.9c-0.1,2.3-2.3,3-4.3,2.6
		C613.4,269.7,614.5,262.8,614.2,255.9z"/>
	<path class="st6" d="M574.4,263.9c-1.3-2.5,2.7-4.8,4.1-2.4c3,6,5.1,12.5,7.9,18.6c-0.3,0.6-0.8,2-1,2.6c-1.2-0.1-3.2,0.4-3.7-1.2
		C579.1,275.7,576.6,269.8,574.4,263.9z"/>
	<path class="st6" d="M654.7,261.3c1.3-0.1,2.7,0,4,0.1c0.6,3.5-1.5,6.5-2.7,9.5c-1.7,3.8-3,7.6-4.8,11.3c-1.6,1.4-3.7,0.4-4.7-1.1
		C649.1,274.5,651.9,267.9,654.7,261.3z"/>
	<path class="st6" d="M540.4,283.5c1.4,0,3.2-0.8,4.3,0.6c4.1,3.9,8,8,12,12.1c0.7,0.9,1.3,1.9,2,2.8c-0.5,0.7-1.5,2.1-1.9,2.7
		c-4.5-1.6-7-6-10.4-9C544.1,289.8,539.5,287.7,540.4,283.5z"/>
	<path class="st6" d="M688.5,284.5c1.8-2.3,5.2,0.1,4.1,2.6c-4.4,4.8-9.1,9.2-13.7,13.8c-1.9,2.1-5.7-0.2-4.1-2.8
		C679.2,293.4,683.9,289,688.5,284.5z"/>
	<g>
		<path class="st6" d="M578,299c13.6-8.7,30.3-12.5,46.4-10.6c12.9,1.4,25.4,6.5,35.7,14.5c13.7,10.5,23.3,26.2,26.5,43.1
			c3,16.2,0.5,33.5-7.6,48c-3.9,7.4-10,13.4-14.4,20.5c-9.8,14.9-15.5,32.2-17.9,49.8c2.2,0.1,4.5,0.1,6.7,0.1
			c2,6.8,0.3,14.1,0.9,21.2c1.9,0,3.8,0.1,5.8,0.1c0.4,0.6,1.2,1.7,1.6,2.2c-0.3,0.6-1,1.9-1.4,2.5c-2,0-3.9,0-5.9,0.1
			c-0.8,5.4-2,11-5.2,15.5c-5.8,8.9-16.5,14.2-27.2,13.5c-9.2-0.4-19,1.3-27.5-2.9c-10.1-4.6-16.9-15.2-17.4-26.2
			c-1.8,0-3.5,0-5.2-0.2c-2.3-0.4-1.3-3-1.4-4.6c2.2-0.1,4.5-0.3,6.8-0.3c0.2-6.9-0.2-13.9,0.4-20.8c2.3-0.2,4.7-0.3,7.1-0.3
			c-2.2-23.5-12.9-45.7-27.6-64c-4.9-7.7-8.9-16.1-10.8-25.1c-4.4-18.9-0.3-39.5,10.6-55.5C562.5,311.4,569.7,304.3,578,299z
			 M588,297.8c-6.8,3.1-13,7.4-18.5,12.5l0,0.3c-19.2,17.3-26.2,46.2-17.8,70.5c3.4,11.1,10.9,20.2,17.7,29.5l0,0.3
			c8.9,13.8,14.8,29.3,18.3,45.4c-0.1,2.5,0.5,4.9,0.9,7.4c7.4,1.4,15.1,0.3,22.6,0.7c5.1,0,10.2,0.2,15.2-0.1c4,0.4,8,0.1,11.9,0
			c1.5,0.3,3.1,0.1,4.6,0.1c1.3-12.6,5.3-24.7,9.8-36.4c4.1-7.8,8.2-15.6,13.7-22.5c2.5-3.4,5.7-6.5,7.4-10.4
			c13.8-21,13.8-50.1,0-71.1c-4.9-8.9-12.7-16.1-21.2-21.6c-5.1-3.4-10.9-5.8-16.7-7.7c-4.9-1.5-10-2.2-15-2.8
			c-3.7-0.2-7.4-0.1-11.1,0C602.3,292.8,594.8,294.5,588,297.8z M582.3,468.9c-0.1,7-0.1,14,0,21.1c-0.1,10.6,7.6,20.5,17.7,23.5
			c4.9,1.6,10.1,1.1,15.1,1.2c6.3-0.1,13,0.8,18.9-2c8.6-3.5,14.7-12.3,15.2-21.6c0.3-7.2,0.1-14.4,0.2-21.7
			C627,469.1,604.6,469.3,582.3,468.9z"/>
	</g>
	<path class="st6" d="M517.5,320.2c-0.4-1.9,0.8-2.9,2.3-3.8c5,2.1,10,4.2,15.1,6.3c1.5,0.6,3.1,1.3,4.6,2c0,1.2,0,2.4,0,3.6
		c-1.1,0.3-2.2,0.4-3.3,0.3c-4.7-1.8-9.3-3.9-14-5.8C520.6,322.1,518.7,321.6,517.5,320.2z"/>
	<path class="st6" d="M698.2,323.2c5.3-1.8,10.2-5,15.8-5.7c0.4,0.6,1.1,1.9,1.5,2.6c-1.2,2.6-4.1,3-6.5,4.1
		c-4.1,1.6-8.1,3.4-12.2,4.9c-1.3,0.6-3.6,0.7-3.7-1.2C692.2,324.7,696.1,324.2,698.2,323.2z"/>
	<path class="st6" d="M509.5,357.9c1.3-1.8,3.6-1.2,5.5-1.3c5,0.1,10,0,15.1,0.1c1.7-0.4,2.5,1.3,3.4,2.3c-0.4,0.8-0.9,1.6-1.3,2.4
		c-6.7,0.5-13.5,0.1-20.2,0.1C510,361.7,508.9,359.5,509.5,357.9z"/>
	<path class="st6" d="M702,362.3c-2.9,0.5-3.8-4.4-1-4.8c7-0.2,14.1-0.2,21.2,0.1c0.6,1.5,1.2,4.4-1.1,4.6
		C714.8,362.5,708.4,362.3,702,362.3z"/>
	<path class="st6" d="M532.8,390.9c1.7-0.7,3.4-1.7,5.3-1.4c1.6,1,2,3.9-0.1,4.5c-5,2.3-10.3,4.1-15.4,6.5c-1.7,0.7-3.4,1-5.2,0.3
		c-0.4-1.3-0.1-2.6,0.3-3.9C522.8,395.1,527.8,392.9,532.8,390.9z"/>
	<path class="st6" d="M693.6,390.5c2.2-0.8,4.4,0.6,6.4,1.4c4.4,2,9,3.7,13.4,5.7c1.6,0.5,1.8,3.4,0.3,4.2c-1.1,1.2-2.7-0.1-3.9-0.4
		c-5.2-2.3-10.5-4.3-15.7-6.7C692.2,394.2,692,391.6,693.6,390.5z"/>
</g>
<g>
	<path class="st7" d="M221.7,275.8c5.1-2.1,10.3-4.1,15.4-6.2c5.8,13.9,5.6,30.1-0.8,43.8c-4.6,10.1-12.4,18.8-22.1,24.4
		c-2.6-4.9-5.8-9.5-8.1-14.5C222.3,314.3,229.2,292.6,221.7,275.8z"/>
</g>
<g>
	<path class="st8" d="M363.1,270.8c44.6,0.1,89.1,0,133.7,0.1c-1.8,4.9-4,9.6-5.3,14.6l-0.4,0c-4.7-0.9-9.5-0.7-14.2-0.6
		c-28.3-0.1-56.7,0-85,0c-7.8,0.2-15.7-0.6-23.5,0.6l-0.3,0C366.8,280.5,364.5,275.8,363.1,270.8z"/>
	<path class="st8" d="M379,310.8c34,0,68-0.2,102,0.1c-1.7,4.9-3.9,9.6-5.3,14.5c-1.2-0.4-2.4-1-3.6-1c-29.3-0.1-58.6,0.2-88-0.1
		C382.1,319.9,380,315.5,379,310.8z"/>
</g>
<g>
	<path class="st7" d="M588,297.8c6.8-3.3,14.3-5.1,21.8-6.1c-2.8,3.5-1.8,8.1-1.9,12.2c0,52.6-0.1,105.3,0,157.9
		c1.1,0.8,2.2,1.6,3.2,2.4c-7.5-0.3-15.2,0.7-22.6-0.7c-0.3-2.5-1-4.9-0.9-7.4c0.8-14.4,0.3-28.8,0.4-43.3
		C587.9,374.6,588.2,336.2,588,297.8z"/>
</g>
<g>
	<path class="st7" d="M609.8,291.8c3.7-0.1,7.4-0.2,11.1,0c0.2,52.1,0,104.2,0.1,156.3c-0.1,4.8-0.3,9.6,0.2,14.4
		c1.7,0.6,3.4,1.2,5.2,1.8c-5.1,0.3-10.2,0.1-15.2,0.1c-1.1-0.8-2.2-1.6-3.2-2.4c-0.1-52.6,0-105.3,0-157.9
		C608,299.9,607,295.2,609.8,291.8z"/>
</g>
<g>
	<path class="st7" d="M621,291.7c5.1,0.5,10.1,1.2,15,2.8c-0.7,0.2-2.1,0.7-2.8,1c-0.3,51.2,0,102.3-0.2,153.5
		c-0.1,4.4-0.2,8.9,0.2,13.3c1.7,0.6,3.3,1.3,5.1,1.9c-4,0.1-8,0.3-11.9,0c-1.8-0.5-3.5-1.1-5.2-1.8c-0.5-4.8-0.2-9.6-0.2-14.4
		C620.9,396,621.2,343.8,621,291.7z"/>
</g>
<g>
	<path class="st7" d="M633.2,295.5c0.7-0.2,2.1-0.8,2.8-1c5.8,1.9,11.6,4.3,16.7,7.7c-1.8,10.2-0.2,20.5-0.7,30.8
		c0.2,23.3-0.2,46.6,0.1,69.9c0.2,8.3-1,16.8,0.6,25c-4.5,11.7-8.5,23.8-9.8,36.4c-1.6,0-3.1,0.2-4.6-0.1c-1.7-0.6-3.4-1.2-5.1-1.9
		c-0.4-4.4-0.3-8.9-0.2-13.3C633.2,397.9,632.9,346.7,633.2,295.5z"/>
</g>
<g>
	<path class="st7" d="M569.5,310.3c5.5-5,11.7-9.4,18.5-12.5c0.2,38.4-0.1,76.7,0.1,115.1c-0.2,14.4,0.4,28.9-0.4,43.3
		c-3.5-16-9.4-31.5-18.3-45.4l0-0.3c0.4-2.5,0.7-5,0.7-7.5c0-28.3-0.1-56.7,0-85c0-2.5-0.3-5-0.6-7.5L569.5,310.3z"/>
</g>
<g>
	<path class="st7" d="M652,333c0.6-10.2-1.1-20.6,0.7-30.8c8.5,5.5,16.3,12.8,21.2,21.6c-0.5,2.7-1.1,5.4-1.1,8.1
		c0.1,14.6,0,29.3,0.1,43.9c0.1,6.4-0.6,12.8,1,19.1c-1.7,3.9-4.9,6.9-7.4,10.4c-5.5,6.9-9.6,14.7-13.7,22.5
		c-1.7-8.2-0.5-16.7-0.6-25C651.8,379.6,652.1,356.3,652,333z"/>
</g>
<g>
	<path class="st7" d="M551.8,381.1c-8.5-24.3-1.4-53.2,17.8-70.5c0.3,2.5,0.5,5,0.6,7.5c-0.1,28.3,0,56.7,0,85c0,2.5-0.3,5-0.7,7.5
		C562.7,401.3,555.2,392.2,551.8,381.1z"/>
</g>
<g>
	<path class="st7" d="M672.8,332c0-2.8,0.5-5.4,1.1-8.1c13.7,21,13.8,50.2,0,71.1c-1.5-6.3-0.9-12.7-1-19.1
		C672.8,361.3,672.9,346.7,672.8,332z"/>
</g>
<g>
	<path class="st9" d="M100.4,420.6c3.5-0.5,7-0.2,10.6-0.2c130.7,0,261.4,0,392,0c4.8-0.5,9.3,3.9,8.8,8.7c-0.1,4.4-4.4,8.1-8.8,7.6
		c-133.3,0-266.7,0-400,0c-4.7,0.5-8.7-3.9-8.6-8.4C94.6,424.8,97.1,421.6,100.4,420.6z"/>
	<path class="st9" d="M100.3,447.5c16.2-0.6,32.5-0.1,48.7-0.2c115.3,0,230.7,0,346,0c3.5,0.1,7.1-0.2,10.6,0.2
		c3.8,0.8,6.7,4.7,6.2,8.6c-0.1,4.4-4.5,8-8.8,7.5c-133.4,0-266.7,0-400.1,0c-3.9,0.3-7.6-2.7-8.3-6.5
		C93.6,453,96.3,448.5,100.3,447.5z"/>
	<path class="st9" d="M99.4,474.5c9.5-1.2,19.1-0.1,28.7-0.5c31.7,0.1,63.3-0.1,95,0c27.7-0.4,55.3,0.2,83-0.1
		c32.7,0.2,65.3,0.3,98,0c16,0.6,32-0.2,48,0c17.3,0.3,34.7-0.3,52,0.2c5.6,0.1,9.5,6.8,6.8,11.7c-1.4,3.4-5.3,4.8-8.8,4.6
		c-131,0-262,0-393,0c-4.5-0.1-10.2,1-13.2-3.4C92.6,482.9,94.6,476.4,99.4,474.5z"/>
	<path class="st9" d="M99.3,501.4c3.4-1.1,7.1-0.5,10.7-0.6c130.6,0,261.3,0,391.9,0c2.5,0,5.2,0.4,7.1,2.2c3.5,3,3.5,9,0,12
		c-2.9,2.9-7.3,2.2-11,2.3c-131.7-0.1-263.3,0-395-0.1c-4.3,0.4-8.4-3-8.7-7.3C93.9,506.4,96,502.6,99.3,501.4z"/>
</g>
<g>
	<path class="st10" d="M582.3,468.9c22.3,0.4,44.7,0.2,67.1,0.5c-0.1,7.2,0,14.4-0.2,21.7c-0.5,9.3-6.6,18-15.2,21.6
		c-5.9,2.8-12.5,2-18.9,2c-5.1-0.1-10.3,0.5-15.1-1.2c-10.1-3-17.8-12.9-17.7-23.5C582.2,482.9,582.2,475.9,582.3,468.9z"/>
</g>
<circle class="st0" cx="89" cy="153.2" r="5.1"/>
<circle class="st0" cx="103.6" cy="153.3" r="5.1"/>
<circle class="st0" cx="73.8" cy="153.3" r="5.1"/>
</svg>
