<?xml version="1.0" encoding="UTF-8"?>
<svg xmlns="http://www.w3.org/2000/svg" viewBox="0 0 59 59">
  <defs>
    <style>.cls-1{fill:#00adf1;}.cls-2{fill:#fff;}</style>
  </defs>
  <title>@1-logo-icon-aluxAsset 2@1</title>
  <g id="Layer_2" data-name="Layer 2">
    <g id="Layer_1-2" data-name="Layer 1">
      <rect class="cls-1" width="59" height="59"></rect>
      <path class="cls-2" d="M41.7,40.3H17.3l-.1-.9c0-.1-1.1-8.6-1.5-12.6a11.47,11.47,0,0,1-6.4-3.2,4.23,4.23,0,0,1,.3-6,4.11,4.11,0,0,1,3.1-1.1,4.69,4.69,0,0,1,2.9,1.4c1.5,1.6,1.8,3.6,2.1,6.9a10.39,10.39,0,0,0,3.9-.4,15.25,15.25,0,0,0,6.5-3.5,10.93,10.93,0,0,1-2.7-6.7,3.89,3.89,0,0,1,4.2-4,3.94,3.94,0,0,1,4.2,4,10.93,10.93,0,0,1-2.7,6.7,15.25,15.25,0,0,0,6.5,3.5,17.82,17.82,0,0,0,3.9.4c.3-3.4.6-5.3,2.1-6.9a3.85,3.85,0,0,1,2.9-1.4,4.38,4.38,0,0,1,3.1,1.1,4.22,4.22,0,0,1,.3,6,11.47,11.47,0,0,1-6.4,3.2c-.4,4-1.5,12.5-1.5,12.6ZM19.2,38.1H39.8c.3-2.2,1-7.8,1.4-11.1a14.63,14.63,0,0,1-4.2-.4,17,17,0,0,1-7.4-4,17.59,17.59,0,0,1-7.4,4A15,15,0,0,1,18,27C18.2,30.3,18.9,35.9,19.2,38.1ZM46.6,18.7h-.1a2.1,2.1,0,0,0-1.4.7c-.9,1-1.2,2.4-1.5,5.2a8.73,8.73,0,0,0,4.6-2.4,2,2,0,0,0-.1-2.9A2.4,2.4,0,0,0,46.6,18.7Zm-34.2,0a2.4,2.4,0,0,0-1.5.6,1.89,1.89,0,0,0-.1,2.9,9.5,9.5,0,0,0,4.6,2.4c-.3-2.8-.6-4.1-1.5-5.2a2.1,2.1,0,0,0-1.4-.7Zm17.1-6.2c-.3,0-2.1.1-2.1,1.8a8.54,8.54,0,0,0,2.1,5.1,8.54,8.54,0,0,0,2.1-5.1A2,2,0,0,0,29.5,12.5Z"></path>
      <rect class="cls-2" x="17.2" y="42.9" width="24.5" height="2.2"></rect>
    </g>
  </g>
</svg>
