<svg xmlns="http://www.w3.org/2000/svg" fill="none" viewBox="0 0 224 48" height="48" width="224">
<path fill="url(#paint0_linear_302_4872)" d="M1.52539 48.0005L21.841 0.00012207L34.9556 30.5533L48.027 0.00012207L68.2924 47.7906L77.9142 30.5161L94.5721 0.000210217L120.508 47.942H101.447L94.5392 35.5017L87.7466 47.942H68.3566L68.3814 48.0005H53.4193L47.9969 35.545L42.6649 48.0005H27.3323L21.8238 35.545L16.3885 48.0005H1.52539ZM120.508 0.000210217H138.989L149.911 17.6858L160.962 0.000210217H178.91L164.429 24.0004L164.371 24.0005L164.429 24.0005L178.91 48.0007H160.962L149.911 30.3152L138.989 48.0007H120.508L131.347 30.5535L135.336 24.0005L131.347 17.4475L120.508 0.000210217Z" clip-rule="evenodd" fill-rule="evenodd"></path>
<path fill-opacity="0.2" fill="url(#paint1_linear_302_4872)" d="M1.52539 48.0005L21.841 0.00012207L34.9556 30.5533L48.027 0.00012207L68.2924 47.7906L77.9142 30.5161L94.5721 0.000210217L120.508 47.942H101.447L94.5392 35.5017L87.7466 47.942H68.3566L68.3814 48.0005H53.4193L47.9969 35.545L42.6649 48.0005H27.3323L21.8238 35.545L16.3885 48.0005H1.52539ZM120.508 0.000210217H138.989L149.911 17.6858L160.962 0.000210217H178.91L164.429 24.0004L164.371 24.0005L164.429 24.0005L178.91 48.0007H160.962L149.911 30.3152L138.989 48.0007H120.508L131.347 30.5535L135.336 24.0005L131.347 17.4475L120.508 0.000210217Z" clip-rule="evenodd" fill-rule="evenodd"></path>
<rect fill="white" rx="6" height="19" width="40" x="184"></rect>
<path fill="white" d="M197.755 5.27265V14H196.161L192.364 8.50705H192.3V14H190.455V5.27265H192.075L195.842 10.7613H195.918V5.27265H197.755ZM199.28 14V5.27265H205.16V6.79397H201.125V8.87353H204.858V10.3949H201.125V12.4787H205.177V14H199.28ZM208.592 14L206.095 5.27265H208.11L209.555 11.3366H209.627L211.221 5.27265H212.947L214.536 11.3494H214.613L216.058 5.27265H218.073L215.576 14H213.778L212.116 8.29398H212.048L210.39 14H208.592Z"></path>
<path fill="url(#paint2_linear_302_4872)" d="M197.755 5.27265V14H196.161L192.364 8.50705H192.3V14H190.455V5.27265H192.075L195.842 10.7613H195.918V5.27265H197.755ZM199.28 14V5.27265H205.16V6.79397H201.125V8.87353H204.858V10.3949H201.125V12.4787H205.177V14H199.28ZM208.592 14L206.095 5.27265H208.11L209.555 11.3366H209.627L211.221 5.27265H212.947L214.536 11.3494H214.613L216.058 5.27265H218.073L215.576 14H213.778L212.116 8.29398H212.048L210.39 14H208.592Z"></path>
<defs>
<linearGradient gradientUnits="userSpaceOnUse" y2="38.7894" x2="176.077" y1="3.48679" x1="-1.74337" id="paint0_linear_302_4872">
<stop stop-color="#FFC122" offset="0.07"></stop>
<stop stop-color="#FD8248" offset="0.34375"></stop>
<stop stop-color="#FFAA29" offset="0.635417"></stop>
<stop stop-color="#FF5151" offset="0.93"></stop>
</linearGradient>
<linearGradient gradientUnits="userSpaceOnUse" y2="60.1453" x2="91.5252" y1="5.23014" x1="91.5252" id="paint1_linear_302_4872">
<stop stop-color="#AE1A1A"></stop>
<stop stop-opacity="0.5" stop-color="white" offset="1"></stop>
</linearGradient>
<linearGradient gradientUnits="userSpaceOnUse" y2="-10.9571" x2="196.949" y1="-2.82884e-05" x1="185" id="paint2_linear_302_4872">
<stop stop-color="#8031A7"></stop>
<stop stop-color="#E31C79" offset="0.453125"></stop>
<stop stop-color="#E31C79" offset="1"></stop>
</linearGradient>
</defs>
</svg>
